<?xml version="1.0" encoding="UTF-8" standalone="no"?>
<!DOCTYPE svg PUBLIC "-//W3C//DTD SVG 1.1//EN" "http://www.w3.org/Graphics/SVG/1.1/DTD/svg11.dtd">
<svg width="100%" height="100%" viewBox="0 0 376 349" version="1.1" xmlns="http://www.w3.org/2000/svg" xmlns:xlink="http://www.w3.org/1999/xlink" xml:space="preserve" xmlns:serif="http://www.serif.com/" style="fill-rule:evenodd;clip-rule:evenodd;stroke-miterlimit:10;">
    <g id="Layer-1" serif:id="Layer 1" transform="matrix(1,0,0,1,0,-5.37432)">
        <g>
            <text x="344.598px" y="30.591px" style="font-family:'Consolas', monospace;font-size:36.549px;fill:rgb(205,179,130);">1</text>
            <text x="344.598px" y="74.45px" style="font-family:'Consolas', monospace;font-size:36.549px;fill:rgb(205,179,130);">0</text>
            <text x="344.598px" y="118.31px" style="font-family:'Consolas', monospace;font-size:36.549px;fill:rgb(205,179,130);">1</text>
            <text x="344.598px" y="162.169px" style="font-family:'Consolas', monospace;font-size:36.549px;fill:rgb(205,179,130);">1</text>
            <text x="344.598px" y="206.028px" style="font-family:'Consolas', monospace;font-size:36.549px;fill:rgb(205,179,130);">0</text>
            <text x="344.598px" y="249.888px" style="font-family:'Consolas', monospace;font-size:36.549px;fill:rgb(205,179,130);">0</text>
        </g>
        <g>
            <text x="304.338px" y="252.473px" style="font-family:'Consolas', monospace;font-size:25.045px;">1</text>
            <text x="304.338px" y="282.528px" style="font-family:'Consolas', monospace;font-size:25.045px;">0</text>
            <text x="304.338px" y="312.583px" style="font-family:'Consolas', monospace;font-size:25.045px;">1</text>
            <text x="304.338px" y="342.638px" style="font-family:'Consolas', monospace;font-size:25.045px;">0</text>
        </g>
        <g transform="matrix(1,0,0,1,227.547,57.6065)">
            <path d="M0,52.089L-70.631,29.501L-158.379,0" style="fill:none;fill-rule:nonzero;stroke:rgb(205,179,130);stroke-width:1px;"/>
        </g>
        <g transform="matrix(0.908744,-0.417353,-0.417353,-0.908744,172.783,212.055)">
            <path d="M-3.212,14.69L67.184,14.69" style="fill:none;fill-rule:nonzero;stroke:rgb(205,179,130);stroke-width:1px;"/>
        </g>
        <g transform="matrix(0.964763,0.26312,0.26312,-0.964763,161.481,223.616)">
            <path d="M-1.065,-7.949L59.357,-7.949" style="fill:none;fill-rule:nonzero;stroke:rgb(205,179,130);stroke-width:1px;"/>
        </g>
        <g transform="matrix(0.61182,-0.790997,-0.790997,-0.61182,255.268,251.034)">
            <path d="M-13.693,27.903L56.857,27.902" style="fill:none;fill-rule:nonzero;stroke:rgb(205,179,130);stroke-width:1px;"/>
        </g>
        <g transform="matrix(1,0,0,1,94.3906,84.0125)">
            <path d="M0,57.432L-34.885,-18.955L-63.656,76.387" style="fill:none;fill-rule:nonzero;stroke:rgb(205,179,130);stroke-width:1px;"/>
        </g>
        <g transform="matrix(-34.339,97.3888,97.3888,34.339,130.539,205.652)">
            <path d="M-0.164,0.377L0.763,0.377L1.188,-0.377L0.261,-0.377L-0.164,0.377Z" style="fill:url(#_Linear1);fill-rule:nonzero;"/>
        </g>
        <g>
            <clipPath id="_clip2">
                <path d="M84.851,218.152L53.027,308.407L141.061,292.885L172.885,202.628L84.851,218.152Z" clip-rule="nonzero"/>
            </clipPath>
            <g clip-path="url(#_clip2)">
                <g transform="matrix(-0.942978,-0.332854,-0.332854,0.942978,136.186,277.364)">
                    <path d="M-0.247,-1.485C0.141,-1.267 0.45,-0.746 0.45,-0.332C0.45,0.094 0.141,0.263 -0.247,0.044C-0.635,-0.175 -0.95,-0.696 -0.95,-1.122C-0.951,-1.537 -0.634,-1.704 -0.247,-1.485" style="fill:white;fill-rule:nonzero;"/>
                </g>
                <g transform="matrix(-0.942906,-0.33306,-0.33306,0.942906,134.883,281.066)">
                    <path d="M-0.245,-1.484C0.143,-1.265 0.452,-0.753 0.452,-0.33C0.452,0.094 0.142,0.264 -0.245,0.044C-0.633,-0.174 -0.948,-0.696 -0.948,-1.12C-0.948,-1.543 -0.632,-1.702 -0.245,-1.484" style="fill:white;fill-rule:nonzero;"/>
                </g>
                <g transform="matrix(-0.943111,-0.332478,-0.332478,0.943111,133.575,284.761)">
                    <path d="M-0.249,-1.484C0.138,-1.265 0.447,-0.746 0.448,-0.324C0.448,0.101 0.138,0.263 -0.249,0.044C-0.638,-0.174 -0.952,-0.689 -0.953,-1.112C-0.953,-1.536 -0.636,-1.703 -0.249,-1.484" style="fill:white;fill-rule:nonzero;"/>
                </g>
                <g transform="matrix(-0.942906,-0.33306,-0.33306,0.942906,132.27,288.465)">
                    <path d="M-0.248,-1.486C0.14,-1.267 0.448,-0.746 0.448,-0.323C0.449,0.093 0.138,0.263 -0.248,0.043C-0.637,-0.176 -0.952,-0.698 -0.951,-1.113C-0.951,-1.537 -0.635,-1.704 -0.248,-1.486" style="fill:white;fill-rule:nonzero;"/>
                </g>
                <g transform="matrix(-0.943111,-0.332478,-0.332478,0.943111,130.662,271.391)">
                    <path d="M-0.25,-1.484C0.137,-1.266 0.447,-0.747 0.447,-0.324C0.448,0.101 0.138,0.264 -0.25,0.044C-0.638,-0.174 -0.953,-0.689 -0.954,-1.113C-0.954,-1.537 -0.637,-1.703 -0.25,-1.484" style="fill:white;fill-rule:nonzero;"/>
                </g>
                <g transform="matrix(-0.943111,-0.332478,-0.332478,0.943111,129.359,275.095)">
                    <path d="M-0.247,-1.485C0.141,-1.267 0.45,-0.748 0.45,-0.325C0.45,0.092 0.141,0.263 -0.247,0.043C-0.635,-0.176 -0.95,-0.697 -0.95,-1.114C-0.951,-1.537 -0.634,-1.703 -0.247,-1.485" style="fill:white;fill-rule:nonzero;"/>
                </g>
                <g transform="matrix(-0.943111,-0.332478,-0.332478,0.943111,128.054,278.796)">
                    <path d="M-0.247,-1.483C0.14,-1.265 0.449,-0.746 0.45,-0.33C0.45,0.094 0.14,0.264 -0.247,0.045C-0.636,-0.174 -0.95,-0.695 -0.951,-1.12C-0.951,-1.535 -0.634,-1.702 -0.247,-1.483" style="fill:white;fill-rule:nonzero;"/>
                </g>
                <g transform="matrix(-0.942978,-0.332854,-0.332854,0.942978,126.75,282.5)">
                    <path d="M-0.246,-1.485C0.143,-1.266 0.452,-0.753 0.452,-0.331C0.452,0.093 0.141,0.263 -0.246,0.044C-0.634,-0.176 -0.949,-0.696 -0.949,-1.121C-0.949,-1.544 -0.632,-1.703 -0.246,-1.485" style="fill:white;fill-rule:nonzero;"/>
                </g>
                <g transform="matrix(-0.942906,-0.33306,-0.33306,0.942906,125.488,286.179)">
                    <path d="M-0.212,-1.454C0.176,-1.236 0.484,-0.716 0.484,-0.293C0.485,0.002 0.057,0.226 -0.212,0.074C-0.6,-0.145 -0.915,-0.66 -0.915,-1.083C-0.915,-1.507 -0.599,-1.673 -0.212,-1.454" style="fill:white;fill-rule:nonzero;"/>
                </g>
                <g transform="matrix(-0.943183,-0.332273,-0.332273,0.943183,124.14,289.899)">
                    <path d="M-0.247,-1.485C0.14,-1.266 0.449,-0.747 0.451,-0.323C0.45,0.093 0.141,0.263 -0.247,0.044C-0.635,-0.175 -0.95,-0.696 -0.951,-1.113C-0.951,-1.536 -0.635,-1.703 -0.247,-1.485" style="fill:white;fill-rule:nonzero;"/>
                </g>
                <g transform="matrix(-0.942906,-0.33306,-0.33306,0.942906,119.922,280.23)">
                    <path d="M-0.247,-1.483C0.134,-1.268 0.449,-0.745 0.45,-0.329C0.449,0.095 0.133,0.261 -0.247,0.045C-0.636,-0.174 -0.95,-0.696 -0.951,-1.12C-0.95,-1.536 -0.634,-1.702 -0.247,-1.483" style="fill:white;fill-rule:nonzero;"/>
                </g>
                <g transform="matrix(-0.943183,-0.332273,-0.332273,0.943183,118.665,283.918)">
                    <path d="M-0.206,-1.454C0.175,-1.239 0.49,-0.723 0.491,-0.301C0.491,-0.005 0.062,0.227 -0.206,0.075C-0.595,-0.144 -0.91,-0.665 -0.911,-1.09C-0.911,-1.513 -0.594,-1.672 -0.206,-1.454" style="fill:white;fill-rule:nonzero;"/>
                </g>
                <g transform="matrix(-0.942978,-0.332854,-0.332854,0.942978,117.311,287.628)">
                    <path d="M-0.25,-1.484C0.132,-1.268 0.446,-0.745 0.446,-0.323C0.447,0.102 0.13,0.26 -0.25,0.045C-0.638,-0.174 -0.953,-0.69 -0.953,-1.113C-0.954,-1.535 -0.637,-1.702 -0.25,-1.484" style="fill:white;fill-rule:nonzero;"/>
                </g>
                <g transform="matrix(-0.942906,-0.33306,-0.33306,0.942906,116.008,291.331)">
                    <path d="M-0.247,-1.483C0.135,-1.268 0.449,-0.745 0.45,-0.322C0.449,0.095 0.133,0.261 -0.247,0.045C-0.635,-0.174 -0.95,-0.696 -0.95,-1.112C-0.95,-1.536 -0.634,-1.702 -0.247,-1.483" style="fill:white;fill-rule:nonzero;"/>
                </g>
                <g transform="matrix(-0.942978,-0.332854,-0.332854,0.942978,109.171,289.061)">
                    <path d="M-0.263,-1.489C0.124,-1.271 0.44,-0.747 0.441,-0.324C0.439,0.1 0.123,0.259 -0.263,0.04C-0.645,-0.175 -0.96,-0.691 -0.959,-1.114C-0.96,-1.537 -0.644,-1.704 -0.263,-1.489" style="fill:white;fill-rule:nonzero;"/>
                </g>
                <g transform="matrix(-0.943111,-0.332478,-0.332478,0.943111,107.913,292.748)">
                    <path d="M-0.224,-1.458C0.163,-1.24 0.479,-0.717 0.479,-0.293C0.479,0 0.052,0.225 -0.224,0.07C-0.606,-0.145 -0.922,-0.667 -0.921,-1.083C-0.922,-1.506 -0.607,-1.674 -0.224,-1.458" style="fill:white;fill-rule:nonzero;"/>
                </g>
                <g transform="matrix(-0.943183,-0.332273,-0.332273,0.943183,103.651,283.096)">
                    <path d="M-0.262,-1.488C0.126,-1.27 0.442,-0.746 0.443,-0.33C0.442,0.094 0.127,0.261 -0.262,0.041C-0.65,-0.178 -0.959,-0.696 -0.959,-1.119C-0.959,-1.535 -0.649,-1.706 -0.262,-1.488" style="fill:white;fill-rule:nonzero;"/>
                </g>
                <g transform="matrix(-0.943111,-0.332478,-0.332478,0.943111,102.348,286.798)">
                    <path d="M-0.259,-1.486C0.129,-1.268 0.444,-0.752 0.445,-0.33C0.445,0.095 0.128,0.261 -0.259,0.042C-0.647,-0.177 -0.956,-0.695 -0.955,-1.119C-0.956,-1.541 -0.646,-1.705 -0.259,-1.486" style="fill:white;fill-rule:nonzero;"/>
                </g>
                <g transform="matrix(-0.942978,-0.332854,-0.332854,0.942978,101.039,290.493)">
                    <path d="M-0.264,-1.488C0.123,-1.269 0.439,-0.746 0.439,-0.323C0.439,0.101 0.123,0.26 -0.264,0.041C-0.652,-0.178 -0.962,-0.69 -0.961,-1.113C-0.961,-1.536 -0.651,-1.707 -0.264,-1.488" style="fill:white;fill-rule:nonzero;"/>
                </g>
                <g transform="matrix(-0.943111,-0.332478,-0.332478,0.943111,99.7363,294.197)">
                    <path d="M-0.261,-1.488C0.126,-1.269 0.442,-0.746 0.442,-0.323C0.442,0.094 0.126,0.261 -0.261,0.04C-0.649,-0.178 -0.959,-0.695 -0.958,-1.112C-0.958,-1.535 -0.649,-1.706 -0.261,-1.488" style="fill:white;fill-rule:nonzero;"/>
                </g>
                <g transform="matrix(-0.942978,-0.332854,-0.332854,0.942978,98.1276,277.123)">
                    <path d="M-0.263,-1.488C0.125,-1.268 0.44,-0.746 0.44,-0.323C0.439,0.101 0.124,0.26 -0.263,0.041C-0.651,-0.178 -0.961,-0.69 -0.96,-1.113C-0.96,-1.536 -0.65,-1.706 -0.263,-1.488" style="fill:white;fill-rule:nonzero;"/>
                </g>
                <g transform="matrix(-0.942906,-0.33306,-0.33306,0.942906,96.8248,280.827)">
                    <path d="M-0.26,-1.488C0.127,-1.269 0.443,-0.746 0.443,-0.323C0.442,0.095 0.127,0.261 -0.26,0.041C-0.648,-0.178 -0.958,-0.696 -0.956,-1.113C-0.957,-1.537 -0.647,-1.706 -0.26,-1.488" style="fill:white;fill-rule:nonzero;"/>
                </g>
                <g transform="matrix(-0.942906,-0.33306,-0.33306,0.942906,95.5185,284.528)">
                    <path d="M-0.261,-1.486C0.126,-1.267 0.442,-0.744 0.442,-0.328C0.441,0.095 0.126,0.262 -0.261,0.042C-0.65,-0.176 -0.959,-0.695 -0.958,-1.119C-0.958,-1.535 -0.648,-1.705 -0.261,-1.486" style="fill:white;fill-rule:nonzero;"/>
                </g>
                <g transform="matrix(-0.942906,-0.33306,-0.33306,0.942906,94.2154,288.233)">
                    <path d="M-0.258,-1.487C0.129,-1.269 0.444,-0.752 0.445,-0.33C0.444,0.095 0.129,0.261 -0.258,0.041C-0.646,-0.178 -0.957,-0.696 -0.955,-1.119C-0.955,-1.543 -0.645,-1.706 -0.258,-1.487" style="fill:white;fill-rule:nonzero;"/>
                </g>
                <g transform="matrix(-0.942906,-0.33306,-0.33306,0.942906,92.907,291.927)">
                    <path d="M-0.264,-1.487C0.124,-1.268 0.439,-0.745 0.439,-0.323C0.439,0.102 0.123,0.26 -0.264,0.041C-0.652,-0.178 -0.961,-0.69 -0.961,-1.113C-0.961,-1.535 -0.65,-1.705 -0.264,-1.487" style="fill:white;fill-rule:nonzero;"/>
                </g>
                <g transform="matrix(-0.942978,-0.332854,-0.332854,0.942978,91.6043,295.631)">
                    <path d="M-0.261,-1.488C0.127,-1.268 0.442,-0.745 0.442,-0.322C0.441,0.094 0.126,0.261 -0.261,0.041C-0.649,-0.177 -0.959,-0.696 -0.958,-1.112C-0.958,-1.535 -0.649,-1.706 -0.261,-1.488" style="fill:white;fill-rule:nonzero;"/>
                </g>
                <g transform="matrix(-0.943183,-0.332273,-0.332273,0.943183,88.708,282.264)">
                    <path d="M-0.245,-1.485C0.141,-1.266 0.451,-0.748 0.452,-0.324C0.451,0.093 0.142,0.263 -0.245,0.044C-0.634,-0.175 -0.949,-0.696 -0.949,-1.114C-0.95,-1.537 -0.634,-1.703 -0.245,-1.485" style="fill:white;fill-rule:nonzero;"/>
                </g>
                <g transform="matrix(-0.942906,-0.33306,-0.33306,0.942906,87.4011,285.965)">
                    <path d="M-0.247,-1.484C0.141,-1.266 0.449,-0.746 0.45,-0.33C0.45,0.094 0.14,0.263 -0.247,0.044C-0.635,-0.175 -0.95,-0.697 -0.95,-1.121C-0.95,-1.537 -0.634,-1.703 -0.247,-1.484" style="fill:white;fill-rule:nonzero;"/>
                </g>
                <g transform="matrix(-0.942978,-0.332854,-0.332854,0.942978,86.0973,289.669)">
                    <path d="M-0.245,-1.485C0.142,-1.266 0.452,-0.753 0.452,-0.331C0.452,0.094 0.142,0.264 -0.245,0.044C-0.633,-0.174 -0.948,-0.696 -0.948,-1.12C-0.948,-1.543 -0.632,-1.703 -0.245,-1.485" style="fill:white;fill-rule:nonzero;"/>
                </g>
                <g transform="matrix(-0.943183,-0.332273,-0.332273,0.943183,84.7901,293.365)">
                    <path d="M-0.249,-1.486C0.139,-1.267 0.447,-0.747 0.448,-0.325C0.448,0.099 0.138,0.262 -0.249,0.043C-0.637,-0.176 -0.952,-0.691 -0.952,-1.114C-0.953,-1.536 -0.637,-1.704 -0.249,-1.486" style="fill:white;fill-rule:nonzero;"/>
                </g>
                <g transform="matrix(-0.943111,-0.332478,-0.332478,0.943111,83.4875,297.066)">
                    <path d="M-0.246,-1.483C0.141,-1.265 0.45,-0.746 0.451,-0.322C0.451,0.094 0.141,0.264 -0.246,0.045C-0.635,-0.174 -0.95,-0.695 -0.95,-1.112C-0.951,-1.535 -0.634,-1.703 -0.246,-1.483" style="fill:white;fill-rule:nonzero;"/>
                </g>
                <g transform="matrix(-0.942906,-0.33306,-0.33306,0.942906,77.9645,291.102)">
                    <path d="M-0.246,-1.484C0.143,-1.265 0.451,-0.753 0.451,-0.33C0.452,0.094 0.141,0.264 -0.246,0.044C-0.634,-0.175 -0.949,-0.696 -0.949,-1.121C-0.949,-1.543 -0.632,-1.702 -0.246,-1.484" style="fill:white;fill-rule:nonzero;"/>
                </g>
                <g transform="matrix(-0.943183,-0.332273,-0.332273,0.943183,76.6573,294.798)">
                    <path d="M-0.25,-1.486C0.137,-1.267 0.446,-0.747 0.447,-0.325C0.448,0.099 0.138,0.263 -0.25,0.043C-0.637,-0.175 -0.953,-0.69 -0.953,-1.114C-0.954,-1.537 -0.637,-1.704 -0.25,-1.486" style="fill:white;fill-rule:nonzero;"/>
                </g>
                <g transform="matrix(-0.943111,-0.332478,-0.332478,0.943111,75.3544,298.501)">
                    <path d="M-0.247,-1.485C0.141,-1.267 0.45,-0.748 0.45,-0.324C0.45,0.092 0.141,0.263 -0.247,0.043C-0.635,-0.176 -0.95,-0.697 -0.951,-1.113C-0.951,-1.536 -0.634,-1.703 -0.247,-1.485" style="fill:white;fill-rule:nonzero;"/>
                </g>
                <g transform="matrix(-0.942978,-0.332854,-0.332854,0.942978,73.745,281.427)">
                    <path d="M-0.25,-1.485C0.132,-1.269 0.446,-0.747 0.448,-0.323C0.447,0.102 0.13,0.26 -0.25,0.044C-0.639,-0.175 -0.952,-0.689 -0.953,-1.114C-0.953,-1.537 -0.637,-1.703 -0.25,-1.485" style="fill:white;fill-rule:nonzero;"/>
                </g>
                <g transform="matrix(-0.942906,-0.33306,-0.33306,0.942906,72.4422,285.129)">
                    <path d="M-0.247,-1.483C0.135,-1.268 0.449,-0.745 0.449,-0.322C0.449,0.095 0.133,0.261 -0.247,0.045C-0.636,-0.174 -0.95,-0.696 -0.95,-1.112C-0.95,-1.536 -0.634,-1.702 -0.247,-1.483" style="fill:white;fill-rule:nonzero;"/>
                </g>
                <g transform="matrix(-0.942906,-0.33306,-0.33306,0.942906,71.1367,288.831)">
                    <path d="M-0.247,-1.482C0.135,-1.268 0.449,-0.744 0.45,-0.328C0.449,0.096 0.133,0.262 -0.247,0.046C-0.636,-0.173 -0.95,-0.695 -0.95,-1.119C-0.951,-1.535 -0.634,-1.702 -0.247,-1.482" style="fill:white;fill-rule:nonzero;"/>
                </g>
                <g transform="matrix(-0.943111,-0.332478,-0.332478,0.943111,69.8332,292.535)">
                    <path d="M-0.245,-1.483C0.136,-1.268 0.451,-0.752 0.452,-0.33C0.452,0.095 0.136,0.261 -0.245,0.045C-0.634,-0.174 -0.948,-0.695 -0.948,-1.119C-0.949,-1.541 -0.633,-1.701 -0.245,-1.483" style="fill:white;fill-rule:nonzero;"/>
                </g>
                <g transform="matrix(-0.942906,-0.33306,-0.33306,0.942906,68.5252,296.23)">
                    <path d="M-0.25,-1.484C0.132,-1.268 0.447,-0.746 0.447,-0.322C0.447,0.102 0.13,0.26 -0.25,0.044C-0.638,-0.174 -0.952,-0.689 -0.953,-1.113C-0.953,-1.536 -0.637,-1.702 -0.25,-1.484" style="fill:white;fill-rule:nonzero;"/>
                </g>
                <g transform="matrix(-0.942978,-0.332854,-0.332854,0.942978,67.2215,299.934)">
                    <path d="M-0.248,-1.484C0.134,-1.269 0.449,-0.745 0.449,-0.322C0.449,0.095 0.132,0.261 -0.248,0.045C-0.637,-0.174 -0.951,-0.696 -0.951,-1.112C-0.952,-1.536 -0.635,-1.703 -0.248,-1.484" style="fill:white;fill-rule:nonzero;"/>
                </g>
            </g>
        </g>
        <g>
            <clipPath id="_clip3">
                <path d="M0,239.903L53.027,308.407L84.851,218.152L31.824,149.646L0,239.903Z" clip-rule="nonzero"/>
            </clipPath>
            <g clip-path="url(#_clip3)">
                <g transform="matrix(-65.1992,-23.3484,-23.3484,65.1992,80.6062,242.699)">
                    <rect x="0.055" y="-1.028" width="1.061" height="2.055" style="fill:url(#_Linear4);"/>
                </g>
                <g transform="matrix(-0.943002,-0.332786,-0.332786,0.943002,12.8543,231.254)">
                    <path d="M-0.253,-1.515C0.103,-1.745 0.399,-1.584 0.398,-1.162C0.398,-0.732 0.102,-0.192 -0.253,0.038C-0.616,0.273 -0.911,0.113 -0.912,-0.317C-0.911,-0.741 -0.616,-1.281 -0.253,-1.515" style="fill:white;fill-rule:nonzero;"/>
                </g>
                <g transform="matrix(-0.943002,-0.332786,-0.332786,0.943002,11.5304,235.015)">
                    <path d="M-0.251,-1.513C0.106,-1.743 0.401,-1.59 0.4,-1.161C0.401,-0.73 0.104,-0.19 -0.251,0.041C-0.614,0.274 -0.909,0.115 -0.91,-0.316C-0.909,-0.746 -0.614,-1.28 -0.251,-1.513" style="fill:white;fill-rule:nonzero;"/>
                </g>
                <g transform="matrix(-0.943204,-0.332214,-0.332214,0.943204,10.2023,238.772)">
                    <path d="M-0.255,-1.516C0.101,-1.746 0.396,-1.585 0.396,-1.156C0.397,-0.725 0.101,-0.192 -0.255,0.038C-0.618,0.273 -0.913,0.12 -0.912,-0.312C-0.913,-0.74 -0.618,-1.281 -0.255,-1.516" style="fill:white;fill-rule:nonzero;"/>
                </g>
                <g transform="matrix(-0.943002,-0.332786,-0.332786,0.943002,8.87696,242.533)">
                    <path d="M-0.254,-1.514C0.103,-1.745 0.398,-1.585 0.398,-1.154C0.398,-0.732 0.102,-0.192 -0.254,0.039C-0.617,0.273 -0.912,0.113 -0.912,-0.31C-0.911,-0.74 -0.617,-1.281 -0.254,-1.514" style="fill:white;fill-rule:nonzero;"/>
                </g>
                <g transform="matrix(-0.943073,-0.332585,-0.332585,0.943073,20.4043,230.052)">
                    <path d="M-0.258,-1.51C0.106,-1.744 0.395,-1.58 0.394,-1.15C0.395,-0.719 0.105,-0.19 -0.258,0.044C-0.62,0.278 -0.915,0.125 -0.915,-0.305C-0.915,-0.735 -0.62,-1.275 -0.258,-1.51" style="fill:white;fill-rule:nonzero;"/>
                </g>
                <g transform="matrix(-0.943002,-0.332786,-0.332786,0.943002,19.0812,233.813)">
                    <path d="M-0.254,-1.507C0.109,-1.742 0.398,-1.578 0.398,-1.148C0.398,-0.725 0.108,-0.189 -0.254,0.046C-0.617,0.279 -0.912,0.12 -0.912,-0.304C-0.912,-0.734 -0.617,-1.274 -0.254,-1.507" style="fill:white;fill-rule:nonzero;"/>
                </g>
                <g transform="matrix(-0.943073,-0.332585,-0.332585,0.943073,17.7538,237.576)">
                    <path d="M-0.255,-1.51C0.109,-1.743 0.397,-1.579 0.396,-1.157C0.397,-0.726 0.108,-0.19 -0.255,0.045C-0.617,0.279 -0.912,0.118 -0.913,-0.311C-0.912,-0.734 -0.617,-1.275 -0.255,-1.51" style="fill:white;fill-rule:nonzero;"/>
                </g>
                <g transform="matrix(-0.943204,-0.332214,-0.332214,0.943204,16.4312,241.338)">
                    <path d="M-0.251,-1.507C0.111,-1.742 0.4,-1.584 0.4,-1.155C0.4,-0.725 0.111,-0.189 -0.251,0.046C-0.614,0.28 -0.909,0.121 -0.91,-0.31C-0.909,-0.74 -0.615,-1.273 -0.251,-1.507" style="fill:white;fill-rule:nonzero;"/>
                </g>
                <g transform="matrix(-0.943073,-0.332585,-0.332585,0.943073,15.1181,244.992)">
                    <path d="M-0.275,-1.408C0.088,-1.642 0.377,-1.477 0.376,-1.048C0.377,-0.617 0.088,-0.088 -0.275,0.146C-0.526,0.308 -0.933,0.097 -0.932,-0.203C-0.932,-0.633 -0.638,-1.173 -0.275,-1.408" style="fill:white;fill-rule:nonzero;"/>
                </g>
                <g transform="matrix(-0.943002,-0.332786,-0.332786,0.943002,13.7765,248.855)">
                    <path d="M-0.255,-1.508C0.108,-1.742 0.397,-1.578 0.396,-1.147C0.397,-0.725 0.107,-0.189 -0.255,0.046C-0.618,0.279 -0.913,0.12 -0.913,-0.303C-0.912,-0.733 -0.618,-1.274 -0.255,-1.508" style="fill:white;fill-rule:nonzero;"/>
                </g>
                <g transform="matrix(-0.943002,-0.332786,-0.332786,0.943002,22.6522,243.904)">
                    <path d="M-0.254,-1.51C0.109,-1.743 0.398,-1.578 0.396,-1.157C0.397,-0.726 0.108,-0.19 -0.254,0.044C-0.617,0.279 -0.913,0.119 -0.913,-0.311C-0.912,-0.734 -0.617,-1.275 -0.254,-1.51" style="fill:white;fill-rule:nonzero;"/>
                </g>
                <g transform="matrix(-0.943002,-0.332786,-0.332786,0.943002,21.3465,247.565)">
                    <path d="M-0.268,-1.406C0.095,-1.641 0.382,-1.483 0.383,-1.053C0.383,-0.624 0.093,-0.086 -0.268,0.148C-0.521,0.31 -0.927,0.09 -0.927,-0.209C-0.926,-0.639 -0.632,-1.173 -0.268,-1.406" style="fill:white;fill-rule:nonzero;"/>
                </g>
                <g transform="matrix(-0.943002,-0.332786,-0.332786,0.943002,19.9998,251.422)">
                    <path d="M-0.255,-1.51C0.107,-1.743 0.396,-1.579 0.395,-1.15C0.396,-0.719 0.106,-0.19 -0.255,0.044C-0.619,0.278 -0.914,0.126 -0.914,-0.305C-0.914,-0.735 -0.619,-1.275 -0.255,-1.51" style="fill:white;fill-rule:nonzero;"/>
                </g>
                <g transform="matrix(-0.943002,-0.332786,-0.332786,0.943002,18.6748,255.184)">
                    <path d="M-0.255,-1.509C0.108,-1.743 0.397,-1.578 0.397,-1.148C0.397,-0.726 0.107,-0.189 -0.255,0.045C-0.618,0.279 -0.913,0.119 -0.913,-0.304C-0.912,-0.734 -0.618,-1.275 -0.255,-1.509" style="fill:white;fill-rule:nonzero;"/>
                </g>
                <g transform="matrix(-0.943073,-0.332585,-0.332585,0.943073,24.8897,257.749)">
                    <path d="M-0.264,-1.511C0.098,-1.745 0.393,-1.585 0.393,-1.155C0.393,-0.725 0.097,-0.192 -0.264,0.043C-0.628,0.277 -0.916,0.121 -0.917,-0.31C-0.916,-0.74 -0.628,-1.277 -0.264,-1.511" style="fill:white;fill-rule:nonzero;"/>
                </g>
                <g transform="matrix(-0.943002,-0.332786,-0.332786,0.943002,23.583,261.409)">
                    <path d="M-0.28,-1.408C0.084,-1.642 0.378,-1.481 0.377,-1.052C0.377,-0.628 0.083,-0.089 -0.28,0.146C-0.532,0.308 -0.932,0.092 -0.932,-0.206C-0.931,-0.638 -0.642,-1.174 -0.28,-1.408" style="fill:white;fill-rule:nonzero;"/>
                </g>
                <g transform="matrix(-0.943002,-0.332786,-0.332786,0.943002,32.4397,256.558)">
                    <path d="M-0.264,-1.509C0.099,-1.744 0.394,-1.583 0.393,-1.162C0.394,-0.73 0.098,-0.19 -0.264,0.044C-0.627,0.278 -0.916,0.114 -0.916,-0.316C-0.915,-0.739 -0.627,-1.276 -0.264,-1.509" style="fill:white;fill-rule:nonzero;"/>
                </g>
                <g transform="matrix(-0.943002,-0.332786,-0.332786,0.943002,31.1164,260.321)">
                    <path d="M-0.261,-1.509C0.102,-1.743 0.397,-1.589 0.397,-1.16C0.397,-0.73 0.101,-0.189 -0.261,0.045C-0.624,0.278 -0.912,0.115 -0.913,-0.316C-0.912,-0.745 -0.624,-1.275 -0.261,-1.509" style="fill:white;fill-rule:nonzero;"/>
                </g>
                <g transform="matrix(-0.943204,-0.332214,-0.332214,0.943204,29.7877,264.076)">
                    <path d="M-0.266,-1.509C0.097,-1.744 0.392,-1.584 0.392,-1.155C0.393,-0.724 0.097,-0.191 -0.266,0.044C-0.628,0.278 -0.917,0.121 -0.918,-0.309C-0.917,-0.739 -0.629,-1.276 -0.266,-1.509" style="fill:white;fill-rule:nonzero;"/>
                </g>
                <g transform="matrix(-0.943002,-0.332786,-0.332786,0.943002,28.4629,267.839)">
                    <path d="M-0.263,-1.51C0.1,-1.744 0.395,-1.583 0.395,-1.154C0.395,-0.731 0.098,-0.191 -0.263,0.043C-0.627,0.278 -0.915,0.114 -0.915,-0.309C-0.915,-0.74 -0.626,-1.276 -0.263,-1.51" style="fill:white;fill-rule:nonzero;"/>
                </g>
                <g transform="matrix(-0.943073,-0.332585,-0.332585,0.943073,39.9912,255.357)">
                    <path d="M-0.265,-1.505C0.097,-1.739 0.392,-1.579 0.392,-1.15C0.392,-0.719 0.096,-0.186 -0.265,0.049C-0.622,0.279 -0.917,0.127 -0.918,-0.304C-0.917,-0.735 -0.622,-1.275 -0.265,-1.505" style="fill:white;fill-rule:nonzero;"/>
                </g>
                <g transform="matrix(-0.943002,-0.332786,-0.332786,0.943002,38.6669,259.12)">
                    <path d="M-0.263,-1.505C0.099,-1.739 0.395,-1.579 0.394,-1.149C0.394,-0.725 0.098,-0.186 -0.263,0.048C-0.62,0.279 -0.915,0.119 -0.915,-0.305C-0.915,-0.735 -0.62,-1.276 -0.263,-1.505" style="fill:white;fill-rule:nonzero;"/>
                </g>
                <g transform="matrix(-0.943073,-0.332585,-0.332585,0.943073,37.3389,262.881)">
                    <path d="M-0.265,-1.505C0.098,-1.739 0.393,-1.579 0.392,-1.157C0.393,-0.725 0.097,-0.186 -0.265,0.049C-0.622,0.279 -0.917,0.119 -0.917,-0.311C-0.916,-0.734 -0.622,-1.275 -0.265,-1.505" style="fill:white;fill-rule:nonzero;"/>
                </g>
                <g transform="matrix(-0.943002,-0.332786,-0.332786,0.943002,36.0155,266.645)">
                    <path d="M-0.261,-1.505C0.101,-1.738 0.396,-1.586 0.396,-1.156C0.396,-0.725 0.1,-0.185 -0.261,0.049C-0.618,0.279 -0.913,0.119 -0.913,-0.312C-0.913,-0.741 -0.618,-1.275 -0.261,-1.505" style="fill:white;fill-rule:nonzero;"/>
                </g>
                <g transform="matrix(-0.943073,-0.332585,-0.332585,0.943073,34.6865,270.399)">
                    <path d="M-0.266,-1.506C0.096,-1.739 0.392,-1.579 0.391,-1.15C0.392,-0.719 0.095,-0.186 -0.266,0.049C-0.623,0.278 -0.918,0.127 -0.919,-0.304C-0.918,-0.734 -0.623,-1.275 -0.266,-1.506" style="fill:white;fill-rule:nonzero;"/>
                </g>
                <g transform="matrix(-0.943002,-0.332786,-0.332786,0.943002,33.3632,274.162)">
                    <path d="M-0.263,-1.505C0.099,-1.739 0.395,-1.578 0.395,-1.149C0.394,-0.725 0.098,-0.186 -0.263,0.048C-0.62,0.279 -0.915,0.119 -0.915,-0.304C-0.915,-0.735 -0.62,-1.276 -0.263,-1.505" style="fill:white;fill-rule:nonzero;"/>
                </g>
                <g transform="matrix(-0.943002,-0.332786,-0.332786,0.943002,43.5683,265.455)">
                    <path d="M-0.252,-1.514C0.105,-1.744 0.4,-1.584 0.399,-1.154C0.399,-0.731 0.104,-0.19 -0.252,0.039C-0.615,0.274 -0.91,0.114 -0.91,-0.31C-0.91,-0.74 -0.615,-1.28 -0.252,-1.514" style="fill:white;fill-rule:nonzero;"/>
                </g>
                <g transform="matrix(-0.943073,-0.332585,-0.332585,0.943073,42.2402,269.217)">
                    <path d="M-0.254,-1.515C0.103,-1.745 0.398,-1.585 0.397,-1.163C0.398,-0.732 0.102,-0.192 -0.254,0.039C-0.617,0.273 -0.912,0.113 -0.912,-0.317C-0.911,-0.74 -0.617,-1.281 -0.254,-1.515" style="fill:white;fill-rule:nonzero;"/>
                </g>
                <g transform="matrix(-0.943002,-0.332786,-0.332786,0.943002,40.916,272.979)">
                    <path d="M-0.252,-1.514C0.105,-1.744 0.4,-1.591 0.399,-1.161C0.4,-0.731 0.104,-0.19 -0.252,0.039C-0.614,0.274 -0.91,0.114 -0.91,-0.316C-0.909,-0.746 -0.614,-1.279 -0.252,-1.514" style="fill:white;fill-rule:nonzero;"/>
                </g>
                <g transform="matrix(-0.943073,-0.332585,-0.332585,0.943073,39.5879,276.734)">
                    <path d="M-0.256,-1.516C0.101,-1.745 0.397,-1.585 0.396,-1.156C0.396,-0.725 0.1,-0.192 -0.256,0.039C-0.618,0.273 -0.913,0.121 -0.914,-0.311C-0.913,-0.74 -0.618,-1.281 -0.256,-1.516" style="fill:white;fill-rule:nonzero;"/>
                </g>
                <g transform="matrix(-0.943002,-0.332786,-0.332786,0.943002,38.2646,280.497)">
                    <path d="M-0.252,-1.514C0.105,-1.744 0.399,-1.583 0.399,-1.153C0.399,-0.731 0.104,-0.19 -0.252,0.039C-0.615,0.274 -0.91,0.114 -0.91,-0.31C-0.91,-0.739 -0.615,-1.28 -0.252,-1.514" style="fill:white;fill-rule:nonzero;"/>
                </g>
                <g transform="matrix(-0.943002,-0.332786,-0.332786,0.943002,45.8154,279.301)">
                    <path d="M-0.253,-1.508C0.111,-1.743 0.399,-1.585 0.399,-1.155C0.399,-0.725 0.11,-0.188 -0.253,0.045C-0.615,0.28 -0.91,0.12 -0.911,-0.311C-0.909,-0.741 -0.615,-1.275 -0.253,-1.508" style="fill:white;fill-rule:nonzero;"/>
                </g>
                <g transform="matrix(-0.943002,-0.332786,-0.332786,0.943002,44.4865,283.055)">
                    <path d="M-0.258,-1.508C0.106,-1.742 0.395,-1.578 0.394,-1.149C0.395,-0.718 0.105,-0.189 -0.258,0.045C-0.62,0.279 -0.915,0.127 -0.916,-0.305C-0.915,-0.734 -0.62,-1.274 -0.258,-1.508" style="fill:white;fill-rule:nonzero;"/>
                </g>
                <g transform="matrix(-0.943002,-0.332786,-0.332786,0.943002,43.1622,286.819)">
                    <path d="M-0.255,-1.509C0.108,-1.743 0.397,-1.578 0.397,-1.148C0.397,-0.725 0.107,-0.189 -0.255,0.045C-0.618,0.279 -0.913,0.119 -0.913,-0.304C-0.912,-0.734 -0.618,-1.275 -0.255,-1.509" style="fill:white;fill-rule:nonzero;"/>
                </g>
                <g transform="matrix(-0.943002,-0.332786,-0.332786,0.943002,54.6886,274.342)">
                    <path d="M-0.258,-1.508C0.106,-1.742 0.394,-1.578 0.394,-1.149C0.395,-0.718 0.105,-0.189 -0.258,0.045C-0.62,0.279 -0.915,0.127 -0.916,-0.305C-0.915,-0.735 -0.62,-1.274 -0.258,-1.508" style="fill:white;fill-rule:nonzero;"/>
                </g>
                <g transform="matrix(-0.943204,-0.332214,-0.332214,0.943204,53.3664,278.106)">
                    <path d="M-0.253,-1.509C0.109,-1.743 0.398,-1.58 0.398,-1.15C0.398,-0.727 0.109,-0.19 -0.253,0.044C-0.616,0.279 -0.91,0.119 -0.911,-0.304C-0.911,-0.735 -0.617,-1.275 -0.253,-1.509" style="fill:white;fill-rule:nonzero;"/>
                </g>
                <g transform="matrix(-0.943002,-0.332786,-0.332786,0.943002,52.0382,281.866)">
                    <path d="M-0.255,-1.508C0.109,-1.742 0.397,-1.578 0.396,-1.156C0.397,-0.725 0.108,-0.189 -0.255,0.046C-0.618,0.279 -0.913,0.12 -0.913,-0.31C-0.912,-0.733 -0.617,-1.274 -0.255,-1.508" style="fill:white;fill-rule:nonzero;"/>
                </g>
                <g transform="matrix(-0.943002,-0.332786,-0.332786,0.943002,50.7137,285.63)">
                    <path d="M-0.253,-1.509C0.111,-1.743 0.399,-1.586 0.399,-1.156C0.399,-0.726 0.11,-0.189 -0.253,0.044C-0.615,0.279 -0.91,0.119 -0.911,-0.311C-0.91,-0.741 -0.615,-1.275 -0.253,-1.509" style="fill:white;fill-rule:nonzero;"/>
                </g>
                <g transform="matrix(-0.943002,-0.332786,-0.332786,0.943002,49.3849,289.384)">
                    <path d="M-0.258,-1.508C0.106,-1.742 0.395,-1.578 0.394,-1.149C0.395,-0.718 0.105,-0.189 -0.258,0.045C-0.62,0.279 -0.915,0.127 -0.916,-0.305C-0.915,-0.734 -0.62,-1.274 -0.258,-1.508" style="fill:white;fill-rule:nonzero;"/>
                </g>
                <g transform="matrix(-0.943002,-0.332786,-0.332786,0.943002,48.0614,293.148)">
                    <path d="M-0.253,-1.509C0.109,-1.743 0.398,-1.579 0.397,-1.148C0.398,-0.726 0.108,-0.19 -0.253,0.044C-0.617,0.278 -0.912,0.118 -0.912,-0.305C-0.912,-0.734 -0.617,-1.275 -0.253,-1.509" style="fill:white;fill-rule:nonzero;"/>
                </g>
            </g>
        </g>
        <g transform="matrix(0.612107,0.790775,0.790775,-0.612107,146.292,164.262)">
            <path d="M-40.013,-2.456L46.617,-2.456L5.007,-81.572L-81.623,-81.572L-40.013,-2.456Z" style="fill:rgb(186,85,0);fill-rule:nonzero;"/>
        </g>
        <g transform="matrix(86.3452,111.546,111.546,-86.3452,59.1817,120.365)">
            <path d="M0.34,0.28L0.955,0.28L0.66,-0.28L0.045,-0.28L0.34,0.28Z" style="fill:url(#_Linear5);fill-rule:nonzero;"/>
        </g>
        <g transform="matrix(1,0,0,1,119.857,217.113)">
            <path d="M0,-82.989L53.027,-14.484L-19.71,-1.658C-29.116,0 -38.667,-3.691 -44.513,-11.243L-88.033,-67.466L0,-82.989Z" style="fill:rgb(214,192,152);fill-rule:nonzero;"/>
        </g>
        <g transform="matrix(9.23511,36.3665,36.3665,-9.23511,279.323,153.194)">
            <path d="M-0.418,-0.555L0.98,-0.555L0.266,0.555L-1.132,0.555L-0.418,-0.555Z" style="fill:url(#_Linear6);fill-rule:nonzero;"/>
        </g>
        <g transform="matrix(-0.969392,0.245518,0.245518,0.969392,295.507,152.495)">
            <path d="M0.108,-0.855C0.324,-0.716 0.495,-0.411 0.494,-0.17C0.495,0.067 0.323,0.152 0.108,0.013C-0.107,-0.124 -0.281,-0.433 -0.281,-0.67C-0.28,-0.91 -0.106,-0.993 0.108,-0.855" style="fill:white;fill-rule:nonzero;"/>
        </g>
        <g transform="matrix(-0.969117,0.246601,0.246601,0.969117,296.058,154.655)">
            <path d="M0.11,-0.855C0.325,-0.716 0.496,-0.411 0.496,-0.175C0.496,0.066 0.325,0.151 0.11,0.013C-0.106,-0.125 -0.28,-0.433 -0.28,-0.673C-0.28,-0.909 -0.106,-0.993 0.11,-0.855" style="fill:white;fill-rule:nonzero;"/>
        </g>
        <g transform="matrix(-0.969117,0.246601,0.246601,0.969117,296.605,156.816)">
            <path d="M0.109,-0.855C0.324,-0.716 0.495,-0.414 0.495,-0.174C0.495,0.067 0.324,0.151 0.109,0.013C-0.106,-0.124 -0.281,-0.432 -0.281,-0.673C-0.281,-0.913 -0.107,-0.993 0.109,-0.855" style="fill:white;fill-rule:nonzero;"/>
        </g>
        <g transform="matrix(-0.969117,0.246601,0.246601,0.969117,297.154,158.973)">
            <path d="M0.11,-0.855C0.325,-0.716 0.496,-0.41 0.497,-0.171C0.496,0.071 0.326,0.151 0.11,0.013C-0.105,-0.124 -0.279,-0.429 -0.28,-0.67C-0.28,-0.909 -0.106,-0.993 0.11,-0.855" style="fill:white;fill-rule:nonzero;"/>
        </g>
        <g transform="matrix(-0.969117,0.246601,0.246601,0.969117,291.179,151.643)">
            <path d="M0.108,-0.855C0.323,-0.716 0.494,-0.415 0.495,-0.174C0.494,0.067 0.324,0.151 0.108,0.013C-0.107,-0.124 -0.281,-0.433 -0.282,-0.673C-0.282,-0.913 -0.108,-0.993 0.108,-0.855" style="fill:white;fill-rule:nonzero;"/>
        </g>
        <g transform="matrix(-0.969117,0.246601,0.246601,0.969117,291.728,153.799)">
            <path d="M0.11,-0.855C0.326,-0.717 0.496,-0.411 0.497,-0.171C0.496,0.071 0.326,0.151 0.11,0.013C-0.105,-0.125 -0.279,-0.429 -0.28,-0.67C-0.28,-0.909 -0.105,-0.993 0.11,-0.855" style="fill:white;fill-rule:nonzero;"/>
        </g>
        <g transform="matrix(-0.969187,0.246325,0.246325,0.969187,292.275,155.961)">
            <path d="M0.108,-0.856C0.324,-0.717 0.495,-0.412 0.495,-0.171C0.494,0.066 0.324,0.151 0.108,0.013C-0.107,-0.125 -0.281,-0.434 -0.281,-0.67C-0.282,-0.91 -0.107,-0.994 0.108,-0.856" style="fill:white;fill-rule:nonzero;"/>
        </g>
        <g transform="matrix(-0.969117,0.246601,0.246601,0.969117,292.824,158.122)">
            <path d="M0.108,-0.855C0.324,-0.716 0.495,-0.41 0.495,-0.175C0.494,0.067 0.324,0.151 0.108,0.013C-0.107,-0.124 -0.281,-0.433 -0.281,-0.673C-0.282,-0.909 -0.107,-0.993 0.108,-0.855" style="fill:white;fill-rule:nonzero;"/>
        </g>
        <g transform="matrix(-0.969461,0.245244,0.245244,0.969461,293.365,160.227)">
            <path d="M0.114,-0.799C0.33,-0.661 0.501,-0.359 0.5,-0.118C0.5,0.049 0.264,0.166 0.114,0.069C-0.101,-0.069 -0.275,-0.378 -0.275,-0.618C-0.275,-0.859 -0.1,-0.938 0.114,-0.799" style="fill:white;fill-rule:nonzero;"/>
        </g>
        <g transform="matrix(-0.969392,0.245518,0.245518,0.969392,293.921,162.44)">
            <path d="M0.109,-0.855C0.325,-0.716 0.496,-0.41 0.495,-0.169C0.496,0.071 0.324,0.151 0.109,0.013C-0.106,-0.124 -0.28,-0.429 -0.28,-0.669C-0.28,-0.91 -0.105,-0.993 0.109,-0.855" style="fill:white;fill-rule:nonzero;"/>
        </g>
        <g transform="matrix(-0.969117,0.246601,0.246601,0.969117,289.044,159.424)">
            <path d="M0.11,-0.852C0.321,-0.716 0.497,-0.408 0.496,-0.168C0.496,0.068 0.321,0.152 0.11,0.016C-0.105,-0.122 -0.28,-0.431 -0.28,-0.667C-0.279,-0.907 -0.105,-0.99 0.11,-0.852" style="fill:white;fill-rule:nonzero;"/>
        </g>
        <g transform="matrix(-0.969187,0.246325,0.246325,0.969187,289.587,161.531)">
            <path d="M0.117,-0.799C0.328,-0.662 0.503,-0.354 0.502,-0.119C0.503,0.049 0.266,0.165 0.117,0.07C-0.099,-0.068 -0.273,-0.377 -0.273,-0.617C-0.272,-0.853 -0.099,-0.937 0.117,-0.799" style="fill:white;fill-rule:nonzero;"/>
        </g>
        <g transform="matrix(-0.969117,0.246601,0.246601,0.969117,290.14,163.746)">
            <path d="M0.108,-0.852C0.319,-0.715 0.495,-0.412 0.495,-0.172C0.494,0.07 0.32,0.152 0.108,0.016C-0.106,-0.122 -0.281,-0.43 -0.282,-0.67C-0.281,-0.91 -0.107,-0.99 0.108,-0.852" style="fill:white;fill-rule:nonzero;"/>
        </g>
        <g transform="matrix(-0.969187,0.246325,0.246325,0.969187,290.69,165.902)">
            <path d="M0.11,-0.852C0.322,-0.716 0.497,-0.407 0.497,-0.167C0.496,0.074 0.322,0.152 0.11,0.017C-0.104,-0.121 -0.279,-0.426 -0.28,-0.666C-0.279,-0.907 -0.105,-0.99 0.11,-0.852" style="fill:white;fill-rule:nonzero;"/>
        </g>
        <g transform="matrix(-0.969461,0.245244,0.245244,0.969461,286.906,167.215)">
            <path d="M0.102,-0.857C0.318,-0.718 0.493,-0.414 0.492,-0.173C0.492,0.067 0.317,0.149 0.102,0.012C-0.11,-0.124 -0.285,-0.433 -0.284,-0.674C-0.283,-0.913 -0.109,-0.993 0.102,-0.857" style="fill:white;fill-rule:nonzero;"/>
        </g>
        <g transform="matrix(-0.969117,0.246601,0.246601,0.969117,287.45,169.319)">
            <path d="M0.111,-0.805C0.326,-0.667 0.501,-0.358 0.501,-0.118C0.501,0.049 0.264,0.162 0.111,0.063C-0.101,-0.072 -0.275,-0.376 -0.275,-0.617C-0.275,-0.857 -0.101,-0.941 0.111,-0.805" style="fill:white;fill-rule:nonzero;"/>
        </g>
        <g transform="matrix(-0.969187,0.246325,0.246325,0.969187,282.578,166.355)">
            <path d="M0.104,-0.854C0.319,-0.716 0.494,-0.407 0.494,-0.167C0.494,0.069 0.319,0.152 0.104,0.015C-0.111,-0.124 -0.282,-0.43 -0.282,-0.666C-0.282,-0.907 -0.112,-0.992 0.104,-0.854" style="fill:white;fill-rule:nonzero;"/>
        </g>
        <g transform="matrix(-0.969117,0.246601,0.246601,0.969117,283.127,168.517)">
            <path d="M0.104,-0.854C0.319,-0.716 0.494,-0.407 0.494,-0.171C0.494,0.069 0.32,0.152 0.104,0.014C-0.111,-0.125 -0.282,-0.43 -0.283,-0.67C-0.282,-0.906 -0.112,-0.992 0.104,-0.854" style="fill:white;fill-rule:nonzero;"/>
        </g>
        <g transform="matrix(-0.969187,0.246325,0.246325,0.969187,283.675,170.678)">
            <path d="M0.103,-0.855C0.319,-0.717 0.493,-0.412 0.493,-0.172C0.493,0.069 0.319,0.152 0.103,0.014C-0.112,-0.125 -0.283,-0.431 -0.283,-0.671C-0.283,-0.911 -0.112,-0.993 0.103,-0.855" style="fill:white;fill-rule:nonzero;"/>
        </g>
        <g transform="matrix(-0.969117,0.246601,0.246601,0.969117,284.222,172.835)">
            <path d="M0.103,-0.854C0.319,-0.716 0.494,-0.408 0.494,-0.167C0.493,0.074 0.319,0.152 0.103,0.014C-0.111,-0.123 -0.282,-0.426 -0.283,-0.666C-0.283,-0.906 -0.112,-0.992 0.103,-0.854" style="fill:white;fill-rule:nonzero;"/>
        </g>
        <g transform="matrix(-0.969187,0.246325,0.246325,0.969187,278.248,165.505)">
            <path d="M0.102,-0.855C0.318,-0.717 0.493,-0.413 0.492,-0.172C0.492,0.069 0.318,0.152 0.102,0.014C-0.113,-0.124 -0.284,-0.431 -0.284,-0.671C-0.284,-0.911 -0.113,-0.993 0.102,-0.855" style="fill:white;fill-rule:nonzero;"/>
        </g>
        <g transform="matrix(-0.969117,0.246601,0.246601,0.969117,278.797,167.661)">
            <path d="M0.103,-0.854C0.319,-0.716 0.494,-0.409 0.494,-0.167C0.493,0.074 0.319,0.152 0.103,0.014C-0.111,-0.123 -0.282,-0.426 -0.283,-0.666C-0.283,-0.906 -0.112,-0.992 0.103,-0.854" style="fill:white;fill-rule:nonzero;"/>
        </g>
        <g transform="matrix(-0.969461,0.245244,0.245244,0.969461,279.345,169.823)">
            <path d="M0.104,-0.855C0.319,-0.717 0.494,-0.408 0.493,-0.167C0.492,0.069 0.318,0.152 0.104,0.014C-0.112,-0.125 -0.283,-0.431 -0.282,-0.668C-0.282,-0.908 -0.111,-0.994 0.104,-0.855" style="fill:white;fill-rule:nonzero;"/>
        </g>
        <g transform="matrix(-0.969392,0.245518,0.245518,0.969392,279.894,171.983)">
            <path d="M0.104,-0.854C0.319,-0.716 0.494,-0.407 0.493,-0.171C0.493,0.07 0.318,0.152 0.104,0.014C-0.112,-0.124 -0.283,-0.43 -0.282,-0.671C-0.282,-0.907 -0.111,-0.992 0.104,-0.854" style="fill:white;fill-rule:nonzero;"/>
        </g>
        <g transform="matrix(-0.969117,0.246601,0.246601,0.969117,280.442,174.144)">
            <path d="M0.103,-0.854C0.318,-0.716 0.493,-0.411 0.493,-0.171C0.493,0.069 0.318,0.152 0.103,0.014C-0.113,-0.124 -0.283,-0.43 -0.283,-0.67C-0.283,-0.91 -0.113,-0.992 0.103,-0.854" style="fill:white;fill-rule:nonzero;"/>
        </g>
        <g transform="matrix(-0.969187,0.246325,0.246325,0.969187,280.992,176.301)">
            <path d="M0.105,-0.855C0.32,-0.717 0.495,-0.408 0.494,-0.168C0.495,0.073 0.32,0.152 0.105,0.014C-0.111,-0.125 -0.281,-0.427 -0.282,-0.667C-0.281,-0.908 -0.111,-0.993 0.105,-0.855" style="fill:white;fill-rule:nonzero;"/>
        </g>
        <g transform="matrix(-0.969187,0.246325,0.246325,0.969187,275.571,171.126)">
            <path d="M0.11,-0.855C0.325,-0.716 0.496,-0.411 0.496,-0.171C0.496,0.071 0.325,0.151 0.11,0.014C-0.105,-0.124 -0.279,-0.429 -0.28,-0.67C-0.279,-0.91 -0.106,-0.993 0.11,-0.855" style="fill:white;fill-rule:nonzero;"/>
        </g>
        <g transform="matrix(-0.969117,0.246601,0.246601,0.969117,276.119,173.287)">
            <path d="M0.109,-0.855C0.324,-0.716 0.495,-0.411 0.496,-0.171C0.495,0.067 0.325,0.151 0.109,0.013C-0.106,-0.125 -0.28,-0.433 -0.281,-0.67C-0.281,-0.91 -0.107,-0.993 0.109,-0.855" style="fill:white;fill-rule:nonzero;"/>
        </g>
        <g transform="matrix(-0.969187,0.246325,0.246325,0.969187,276.668,175.448)">
            <path d="M0.109,-0.855C0.325,-0.717 0.495,-0.41 0.496,-0.174C0.495,0.067 0.325,0.151 0.109,0.014C-0.106,-0.124 -0.28,-0.433 -0.281,-0.673C-0.28,-0.909 -0.106,-0.993 0.109,-0.855" style="fill:white;fill-rule:nonzero;"/>
        </g>
        <g transform="matrix(-0.969117,0.246601,0.246601,0.969117,277.216,177.609)">
            <path d="M0.108,-0.855C0.324,-0.716 0.494,-0.415 0.495,-0.175C0.494,0.067 0.324,0.151 0.108,0.013C-0.107,-0.125 -0.281,-0.433 -0.281,-0.673C-0.282,-0.913 -0.107,-0.993 0.108,-0.855" style="fill:white;fill-rule:nonzero;"/>
        </g>
        <g transform="matrix(-0.969392,0.245518,0.245518,0.969392,277.764,179.766)">
            <path d="M0.109,-0.855C0.325,-0.716 0.496,-0.411 0.495,-0.17C0.494,0.07 0.324,0.151 0.109,0.013C-0.106,-0.125 -0.28,-0.43 -0.28,-0.67C-0.28,-0.91 -0.105,-0.993 0.109,-0.855" style="fill:white;fill-rule:nonzero;"/>
        </g>
        <g transform="matrix(-0.969187,0.246325,0.246325,0.969187,273.436,178.914)">
            <path d="M0.11,-0.856C0.325,-0.717 0.496,-0.411 0.496,-0.175C0.496,0.066 0.325,0.151 0.11,0.013C-0.106,-0.125 -0.28,-0.434 -0.28,-0.674C-0.28,-0.911 -0.106,-0.994 0.11,-0.856" style="fill:white;fill-rule:nonzero;"/>
        </g>
        <g transform="matrix(-0.969117,0.246601,0.246601,0.969117,273.983,181.075)">
            <path d="M0.108,-0.855C0.323,-0.716 0.494,-0.414 0.495,-0.175C0.494,0.067 0.323,0.152 0.108,0.013C-0.107,-0.124 -0.281,-0.433 -0.282,-0.673C-0.282,-0.913 -0.108,-0.993 0.108,-0.855" style="fill:white;fill-rule:nonzero;"/>
        </g>
        <g transform="matrix(-0.969117,0.246601,0.246601,0.969117,274.533,183.232)">
            <path d="M0.11,-0.855C0.325,-0.716 0.496,-0.411 0.497,-0.171C0.496,0.071 0.326,0.151 0.11,0.013C-0.105,-0.125 -0.279,-0.429 -0.28,-0.67C-0.28,-0.909 -0.106,-0.993 0.11,-0.855" style="fill:white;fill-rule:nonzero;"/>
        </g>
        <g transform="matrix(-0.969117,0.246601,0.246601,0.969117,268.557,175.898)">
            <path d="M0.108,-0.852C0.319,-0.715 0.495,-0.412 0.495,-0.172C0.494,0.07 0.32,0.152 0.108,0.016C-0.106,-0.122 -0.281,-0.43 -0.282,-0.67C-0.281,-0.91 -0.107,-0.99 0.108,-0.852" style="fill:white;fill-rule:nonzero;"/>
        </g>
        <g transform="matrix(-0.969187,0.246325,0.246325,0.969187,269.107,178.054)">
            <path d="M0.11,-0.852C0.322,-0.716 0.497,-0.408 0.497,-0.167C0.496,0.074 0.322,0.152 0.11,0.017C-0.104,-0.121 -0.279,-0.426 -0.28,-0.666C-0.279,-0.907 -0.105,-0.99 0.11,-0.852" style="fill:white;fill-rule:nonzero;"/>
        </g>
        <g transform="matrix(-0.969117,0.246601,0.246601,0.969117,269.654,180.216)">
            <path d="M0.108,-0.852C0.32,-0.716 0.496,-0.408 0.495,-0.168C0.494,0.07 0.32,0.152 0.108,0.016C-0.106,-0.122 -0.281,-0.43 -0.281,-0.667C-0.281,-0.906 -0.106,-0.99 0.108,-0.852" style="fill:white;fill-rule:nonzero;"/>
        </g>
        <g transform="matrix(-0.969117,0.246601,0.246601,0.969117,270.203,182.377)">
            <path d="M0.108,-0.852C0.32,-0.716 0.496,-0.408 0.495,-0.172C0.494,0.07 0.32,0.152 0.108,0.016C-0.106,-0.122 -0.281,-0.43 -0.281,-0.67C-0.281,-0.906 -0.106,-0.99 0.108,-0.852" style="fill:white;fill-rule:nonzero;"/>
        </g>
        <g transform="matrix(-0.969461,0.245244,0.245244,0.969461,270.75,184.538)">
            <path d="M0.108,-0.851C0.32,-0.715 0.495,-0.411 0.494,-0.17C0.494,0.07 0.319,0.153 0.108,0.017C-0.108,-0.121 -0.282,-0.43 -0.282,-0.67C-0.281,-0.911 -0.107,-0.99 0.108,-0.851" style="fill:white;fill-rule:nonzero;"/>
        </g>
        <g transform="matrix(-0.969392,0.245518,0.245518,0.969392,271.3,186.695)">
            <path d="M0.11,-0.852C0.322,-0.716 0.497,-0.407 0.496,-0.167C0.496,0.074 0.321,0.152 0.11,0.016C-0.106,-0.122 -0.28,-0.426 -0.28,-0.667C-0.28,-0.907 -0.105,-0.99 0.11,-0.852" style="fill:white;fill-rule:nonzero;"/>
        </g>
        <g transform="matrix(1,0,0,1,289.761,162.464)">
            <path d="M0,-31.375L-25.537,-3.99C-26.361,-3.106 -26.803,-1.497 -26.522,-0.395C-26.242,0.708 -25.348,0.884 -24.523,0L1.014,-27.385C1.837,-28.269 2.278,-29.877 1.998,-30.98C1.719,-32.082 0.824,-32.259 0,-31.375" style="fill:white;fill-rule:nonzero;"/>
        </g>
        <g transform="matrix(1,0,0,1,287.112,152.034)">
            <path d="M0,-31.375L-25.537,-3.99C-26.361,-3.106 -26.802,-1.497 -26.522,-0.395C-26.242,0.707 -25.348,0.884 -24.523,0L1.014,-27.385C1.837,-28.269 2.278,-29.878 1.998,-30.98C1.719,-32.082 0.824,-32.259 0,-31.375" style="fill:white;fill-rule:nonzero;"/>
        </g>
        <g transform="matrix(50.5506,15.5281,15.5281,-50.5506,208.296,152.111)">
            <path d="M0.368,-0.424L1.315,-0.424L0.8,0.424L-0.148,0.424L0.368,-0.424Z" style="fill:url(#_Linear7);fill-rule:nonzero;"/>
        </g>
        <g transform="matrix(-0.969217,0.246208,0.246208,0.969217,224.329,170.662)">
            <path d="M0.107,-0.821C0.315,-0.949 0.488,-0.866 0.488,-0.635C0.489,-0.404 0.315,-0.116 0.107,0.011C-0.104,0.14 -0.277,0.061 -0.277,-0.17C-0.277,-0.401 -0.104,-0.692 0.107,-0.821" style="fill:white;fill-rule:nonzero;"/>
        </g>
        <g transform="matrix(-0.969503,0.245079,0.245079,0.969503,224.854,172.735)">
            <path d="M0.107,-0.822C0.315,-0.948 0.488,-0.866 0.487,-0.636C0.488,-0.408 0.314,-0.117 0.107,0.01C-0.105,0.139 -0.279,0.056 -0.277,-0.17C-0.278,-0.401 -0.105,-0.693 0.107,-0.822" style="fill:white;fill-rule:nonzero;"/>
        </g>
        <g transform="matrix(-0.969217,0.246208,0.246208,0.969217,225.379,174.806)">
            <path d="M0.106,-0.821C0.313,-0.948 0.487,-0.865 0.486,-0.638C0.487,-0.408 0.313,-0.116 0.106,0.011C-0.105,0.14 -0.278,0.057 -0.278,-0.173C-0.279,-0.4 -0.105,-0.692 0.106,-0.821" style="fill:white;fill-rule:nonzero;"/>
        </g>
        <g transform="matrix(-0.969217,0.246208,0.246208,0.969217,225.905,176.879)">
            <path d="M0.105,-0.822C0.313,-0.948 0.486,-0.869 0.486,-0.639C0.487,-0.408 0.313,-0.117 0.105,0.01C-0.107,0.14 -0.279,0.057 -0.279,-0.174C-0.28,-0.404 -0.107,-0.693 0.105,-0.822" style="fill:white;fill-rule:nonzero;"/>
        </g>
        <g transform="matrix(-0.969503,0.245079,0.245079,0.969503,227.673,167.871)">
            <path d="M0.107,-0.82C0.319,-0.949 0.488,-0.864 0.487,-0.637C0.488,-0.406 0.318,-0.117 0.107,0.012C-0.105,0.141 -0.279,0.058 -0.277,-0.172C-0.278,-0.399 -0.104,-0.692 0.107,-0.82" style="fill:white;fill-rule:nonzero;"/>
        </g>
        <g transform="matrix(-0.969217,0.246208,0.246208,0.969217,228.198,169.942)">
            <path d="M0.106,-0.819C0.316,-0.948 0.486,-0.867 0.485,-0.636C0.486,-0.406 0.317,-0.116 0.106,0.013C-0.106,0.142 -0.279,0.06 -0.279,-0.171C-0.279,-0.402 -0.106,-0.69 0.106,-0.819" style="fill:white;fill-rule:nonzero;"/>
        </g>
        <g transform="matrix(-0.969217,0.246208,0.246208,0.969217,228.725,172.011)">
            <path d="M0.108,-0.819C0.319,-0.949 0.488,-0.864 0.488,-0.633C0.489,-0.403 0.319,-0.116 0.108,0.013C-0.104,0.141 -0.277,0.063 -0.277,-0.168C-0.278,-0.399 -0.104,-0.69 0.108,-0.819" style="fill:white;fill-rule:nonzero;"/>
        </g>
        <g transform="matrix(-0.969217,0.246208,0.246208,0.969217,229.25,174.084)">
            <path d="M0.106,-0.82C0.318,-0.949 0.487,-0.864 0.487,-0.634C0.488,-0.407 0.318,-0.117 0.106,0.012C-0.104,0.141 -0.278,0.058 -0.278,-0.168C-0.279,-0.399 -0.105,-0.691 0.106,-0.82" style="fill:white;fill-rule:nonzero;"/>
        </g>
        <g transform="matrix(-0.969217,0.246208,0.246208,0.969217,229.757,176.135)">
            <path d="M0.093,-0.796C0.304,-0.925 0.473,-0.84 0.473,-0.613C0.474,-0.383 0.304,-0.092 0.093,0.037C-0.054,0.126 -0.291,0.017 -0.291,-0.147C-0.292,-0.374 -0.118,-0.667 0.093,-0.796" style="fill:white;fill-rule:nonzero;"/>
        </g>
        <g transform="matrix(-0.969503,0.245079,0.245079,0.969503,230.301,178.228)">
            <path d="M0.105,-0.82C0.317,-0.949 0.486,-0.867 0.485,-0.637C0.486,-0.406 0.317,-0.117 0.105,0.012C-0.107,0.141 -0.28,0.058 -0.279,-0.172C-0.279,-0.402 -0.106,-0.691 0.105,-0.82" style="fill:white;fill-rule:nonzero;"/>
        </g>
        <g transform="matrix(-0.969217,0.246208,0.246208,0.969217,233.122,173.361)">
            <path d="M0.109,-0.82C0.319,-0.948 0.488,-0.863 0.488,-0.633C0.489,-0.402 0.32,-0.116 0.109,0.013C-0.103,0.141 -0.276,0.063 -0.276,-0.168C-0.277,-0.399 -0.103,-0.69 0.109,-0.82" style="fill:white;fill-rule:nonzero;"/>
        </g>
        <g transform="matrix(-0.969217,0.246208,0.246208,0.969217,233.627,175.413)">
            <path d="M0.093,-0.796C0.304,-0.925 0.473,-0.84 0.473,-0.61C0.473,-0.382 0.304,-0.092 0.093,0.037C-0.055,0.126 -0.291,0.017 -0.292,-0.143C-0.292,-0.374 -0.119,-0.666 0.093,-0.796" style="fill:white;fill-rule:nonzero;"/>
        </g>
        <g transform="matrix(-0.969217,0.246208,0.246208,0.969217,234.173,177.505)">
            <path d="M0.107,-0.819C0.318,-0.948 0.487,-0.863 0.487,-0.636C0.488,-0.407 0.318,-0.116 0.107,0.013C-0.105,0.141 -0.278,0.059 -0.278,-0.171C-0.278,-0.398 -0.105,-0.69 0.107,-0.819" style="fill:white;fill-rule:nonzero;"/>
        </g>
        <g transform="matrix(-0.969503,0.245079,0.245079,0.969503,234.698,179.579)">
            <path d="M0.106,-0.82C0.318,-0.949 0.487,-0.867 0.486,-0.637C0.487,-0.406 0.317,-0.116 0.106,0.012C-0.106,0.141 -0.28,0.058 -0.279,-0.172C-0.279,-0.402 -0.106,-0.691 0.106,-0.82" style="fill:white;fill-rule:nonzero;"/>
        </g>
        <g transform="matrix(-0.969217,0.246208,0.246208,0.969217,238.562,178.857)">
            <path d="M0.099,-0.818C0.31,-0.947 0.483,-0.864 0.483,-0.637C0.483,-0.407 0.31,-0.115 0.099,0.014C-0.113,0.142 -0.282,0.058 -0.282,-0.173C-0.283,-0.399 -0.113,-0.689 0.099,-0.818" style="fill:white;fill-rule:nonzero;"/>
        </g>
        <g transform="matrix(-0.969217,0.246208,0.246208,0.969217,239.067,180.909)">
            <path d="M0.083,-0.794C0.294,-0.923 0.467,-0.845 0.467,-0.613C0.467,-0.383 0.294,-0.091 0.083,0.038C-0.065,0.127 -0.297,0.012 -0.298,-0.148C-0.298,-0.378 -0.129,-0.665 0.083,-0.794" style="fill:white;fill-rule:nonzero;"/>
        </g>
        <g transform="matrix(-0.969217,0.246208,0.246208,0.969217,241.907,176.063)">
            <path d="M0.1,-0.818C0.311,-0.948 0.484,-0.866 0.484,-0.634C0.485,-0.403 0.311,-0.115 0.1,0.014C-0.112,0.142 -0.281,0.062 -0.28,-0.169C-0.281,-0.4 -0.112,-0.689 0.1,-0.818" style="fill:white;fill-rule:nonzero;"/>
        </g>
        <g transform="matrix(-0.969217,0.246208,0.246208,0.969217,242.432,178.136)">
            <path d="M0.098,-0.819C0.309,-0.948 0.482,-0.865 0.482,-0.635C0.482,-0.408 0.309,-0.116 0.098,0.013C-0.113,0.142 -0.282,0.057 -0.282,-0.17C-0.283,-0.4 -0.113,-0.69 0.098,-0.819" style="fill:white;fill-rule:nonzero;"/>
        </g>
        <g transform="matrix(-0.969503,0.245079,0.245079,0.969503,242.957,180.208)">
            <path d="M0.097,-0.818C0.309,-0.947 0.483,-0.864 0.482,-0.637C0.481,-0.407 0.309,-0.115 0.097,0.014C-0.115,0.142 -0.284,0.058 -0.283,-0.173C-0.284,-0.399 -0.114,-0.689 0.097,-0.818" style="fill:white;fill-rule:nonzero;"/>
        </g>
        <g transform="matrix(-0.969217,0.246208,0.246208,0.969217,243.484,182.28)">
            <path d="M0.098,-0.819C0.309,-0.948 0.482,-0.869 0.482,-0.638C0.482,-0.408 0.309,-0.116 0.098,0.013C-0.114,0.143 -0.283,0.058 -0.283,-0.173C-0.284,-0.403 -0.114,-0.69 0.098,-0.819" style="fill:white;fill-rule:nonzero;"/>
        </g>
        <g transform="matrix(-0.969503,0.245079,0.245079,0.969503,245.251,173.273)">
            <path d="M0.098,-0.817C0.31,-0.946 0.483,-0.863 0.482,-0.636C0.482,-0.406 0.309,-0.113 0.098,0.015C-0.11,0.141 -0.283,0.059 -0.282,-0.171C-0.283,-0.399 -0.109,-0.691 0.098,-0.817" style="fill:white;fill-rule:nonzero;"/>
        </g>
        <g transform="matrix(-0.969217,0.246208,0.246208,0.969217,245.776,175.345)">
            <path d="M0.098,-0.817C0.309,-0.946 0.482,-0.867 0.482,-0.636C0.482,-0.406 0.31,-0.114 0.098,0.015C-0.111,0.142 -0.283,0.06 -0.283,-0.172C-0.284,-0.402 -0.111,-0.691 0.098,-0.817" style="fill:white;fill-rule:nonzero;"/>
        </g>
        <g transform="matrix(-0.969217,0.246208,0.246208,0.969217,246.304,177.413)">
            <path d="M0.1,-0.817C0.312,-0.947 0.484,-0.865 0.484,-0.633C0.485,-0.402 0.312,-0.114 0.1,0.015C-0.109,0.141 -0.281,0.063 -0.281,-0.168C-0.282,-0.399 -0.109,-0.691 0.1,-0.817" style="fill:white;fill-rule:nonzero;"/>
        </g>
        <g transform="matrix(-0.969217,0.246208,0.246208,0.969217,246.829,179.485)">
            <path d="M0.099,-0.817C0.311,-0.946 0.483,-0.863 0.483,-0.633C0.483,-0.406 0.311,-0.114 0.099,0.015C-0.109,0.141 -0.282,0.059 -0.282,-0.168C-0.283,-0.398 -0.109,-0.69 0.099,-0.817" style="fill:white;fill-rule:nonzero;"/>
        </g>
        <g transform="matrix(-0.969503,0.245079,0.245079,0.969503,247.355,181.557)">
            <path d="M0.099,-0.817C0.311,-0.946 0.484,-0.863 0.483,-0.636C0.483,-0.406 0.31,-0.114 0.099,0.015C-0.109,0.141 -0.283,0.059 -0.281,-0.172C-0.282,-0.398 -0.108,-0.692 0.099,-0.817" style="fill:white;fill-rule:nonzero;"/>
        </g>
        <g transform="matrix(-0.969217,0.246208,0.246208,0.969217,247.881,183.629)">
            <path d="M0.099,-0.817C0.31,-0.946 0.482,-0.867 0.482,-0.636C0.483,-0.406 0.31,-0.114 0.099,0.015C-0.11,0.141 -0.282,0.059 -0.282,-0.171C-0.282,-0.401 -0.109,-0.69 0.099,-0.817" style="fill:white;fill-rule:nonzero;"/>
        </g>
        <g transform="matrix(-0.969217,0.246208,0.246208,0.969217,250.179,176.696)">
            <path d="M0.107,-0.821C0.314,-0.948 0.487,-0.869 0.487,-0.638C0.488,-0.407 0.314,-0.116 0.107,0.011C-0.104,0.14 -0.278,0.058 -0.277,-0.173C-0.278,-0.404 -0.104,-0.692 0.107,-0.821" style="fill:white;fill-rule:nonzero;"/>
        </g>
        <g transform="matrix(-0.969217,0.246208,0.246208,0.969217,250.705,178.764)">
            <path d="M0.107,-0.821C0.314,-0.948 0.488,-0.866 0.487,-0.635C0.488,-0.404 0.315,-0.116 0.107,0.011C-0.104,0.14 -0.277,0.061 -0.277,-0.169C-0.278,-0.4 -0.104,-0.692 0.107,-0.821" style="fill:white;fill-rule:nonzero;"/>
        </g>
        <g transform="matrix(-0.969217,0.246208,0.246208,0.969217,251.23,180.835)">
            <path d="M0.106,-0.82C0.315,-0.947 0.487,-0.864 0.487,-0.634C0.487,-0.407 0.315,-0.115 0.106,0.012C-0.106,0.14 -0.278,0.058 -0.278,-0.169C-0.279,-0.399 -0.105,-0.691 0.106,-0.82" style="fill:white;fill-rule:nonzero;"/>
        </g>
        <g transform="matrix(-0.969217,0.246208,0.246208,0.969217,251.756,182.908)">
            <path d="M0.106,-0.821C0.314,-0.948 0.487,-0.865 0.487,-0.638C0.488,-0.408 0.314,-0.116 0.106,0.011C-0.104,0.14 -0.278,0.057 -0.278,-0.173C-0.279,-0.4 -0.105,-0.692 0.106,-0.821" style="fill:white;fill-rule:nonzero;"/>
        </g>
        <g transform="matrix(-0.969503,0.245079,0.245079,0.969503,252.281,184.98)">
            <path d="M0.106,-0.82C0.314,-0.947 0.487,-0.868 0.486,-0.637C0.487,-0.407 0.313,-0.114 0.106,0.012C-0.106,0.14 -0.28,0.058 -0.278,-0.172C-0.278,-0.402 -0.105,-0.692 0.106,-0.82" style="fill:white;fill-rule:nonzero;"/>
        </g>
        <g transform="matrix(-0.969217,0.246208,0.246208,0.969217,255.626,182.185)">
            <path d="M0.107,-0.819C0.318,-0.948 0.487,-0.863 0.487,-0.633C0.487,-0.406 0.318,-0.116 0.107,0.013C-0.105,0.141 -0.278,0.059 -0.278,-0.168C-0.278,-0.398 -0.105,-0.69 0.107,-0.819" style="fill:white;fill-rule:nonzero;"/>
        </g>
        <g transform="matrix(-0.969217,0.246208,0.246208,0.969217,256.153,184.258)">
            <path d="M0.106,-0.82C0.318,-0.949 0.487,-0.864 0.487,-0.637C0.488,-0.407 0.318,-0.117 0.106,0.012C-0.105,0.141 -0.278,0.058 -0.278,-0.172C-0.279,-0.399 -0.105,-0.691 0.106,-0.82" style="fill:white;fill-rule:nonzero;"/>
        </g>
        <g transform="matrix(-0.969217,0.246208,0.246208,0.969217,256.678,186.329)">
            <path d="M0.106,-0.819C0.317,-0.948 0.486,-0.867 0.486,-0.636C0.487,-0.406 0.317,-0.116 0.106,0.013C-0.105,0.141 -0.279,0.06 -0.279,-0.171C-0.279,-0.402 -0.106,-0.69 0.106,-0.819" style="fill:white;fill-rule:nonzero;"/>
        </g>
        <g transform="matrix(-0.969217,0.246208,0.246208,0.969217,258.446,177.323)">
            <path d="M0.107,-0.819C0.318,-0.948 0.487,-0.863 0.487,-0.636C0.487,-0.406 0.318,-0.116 0.107,0.013C-0.105,0.141 -0.278,0.059 -0.278,-0.171C-0.279,-0.399 -0.105,-0.69 0.107,-0.819" style="fill:white;fill-rule:nonzero;"/>
        </g>
        <g transform="matrix(-0.969217,0.246208,0.246208,0.969217,258.971,179.396)">
            <path d="M0.105,-0.82C0.317,-0.949 0.486,-0.868 0.486,-0.637C0.487,-0.407 0.317,-0.117 0.105,0.012C-0.106,0.142 -0.279,0.059 -0.279,-0.172C-0.28,-0.403 -0.106,-0.691 0.105,-0.82" style="fill:white;fill-rule:nonzero;"/>
        </g>
        <g transform="matrix(-0.969217,0.246208,0.246208,0.969217,259.498,181.464)">
            <path d="M0.107,-0.82C0.319,-0.95 0.488,-0.865 0.488,-0.634C0.489,-0.403 0.319,-0.117 0.107,0.012C-0.103,0.141 -0.277,0.062 -0.277,-0.168C-0.277,-0.399 -0.104,-0.691 0.107,-0.82" style="fill:white;fill-rule:nonzero;"/>
        </g>
        <g transform="matrix(-0.969503,0.245079,0.245079,0.969503,260.023,183.536)">
            <path d="M0.107,-0.819C0.319,-0.948 0.488,-0.863 0.487,-0.633C0.488,-0.406 0.318,-0.116 0.107,0.013C-0.105,0.141 -0.278,0.059 -0.277,-0.168C-0.277,-0.398 -0.104,-0.691 0.107,-0.819" style="fill:white;fill-rule:nonzero;"/>
        </g>
        <g transform="matrix(-0.969217,0.246208,0.246208,0.969217,260.55,185.608)">
            <path d="M0.107,-0.82C0.318,-0.949 0.487,-0.864 0.487,-0.637C0.488,-0.407 0.319,-0.117 0.107,0.012C-0.104,0.141 -0.277,0.058 -0.277,-0.172C-0.278,-0.399 -0.104,-0.691 0.107,-0.82" style="fill:white;fill-rule:nonzero;"/>
        </g>
        <g transform="matrix(-0.969217,0.246208,0.246208,0.969217,261.074,187.68)">
            <path d="M0.106,-0.819C0.317,-0.948 0.486,-0.867 0.486,-0.636C0.487,-0.406 0.317,-0.116 0.106,0.013C-0.106,0.142 -0.279,0.06 -0.279,-0.171C-0.279,-0.402 -0.106,-0.69 0.106,-0.819" style="fill:white;fill-rule:nonzero;"/>
        </g>
        <g transform="matrix(1,0,0,1,254.118,154.639)">
            <path d="M0,6.846L-34.74,-3.825C-35.861,-4.17 -36.553,-3.592 -36.284,-2.536C-36.016,-1.479 -34.89,-0.343 -33.769,0.001L0.972,10.672C2.093,11.016 2.783,10.439 2.515,9.382C2.247,8.325 1.121,7.19 0,6.846" style="fill:white;fill-rule:nonzero;"/>
        </g>
        <g transform="matrix(1,0,0,1,251.578,144.639)">
            <path d="M0,6.846L-34.739,-3.825C-35.86,-4.17 -36.552,-3.592 -36.283,-2.536C-36.015,-1.479 -34.89,-0.344 -33.769,0L0.972,10.672C2.093,11.016 2.784,10.439 2.516,9.382C2.247,8.325 1.121,7.19 0,6.846" style="fill:white;fill-rule:nonzero;"/>
        </g>
        <g transform="matrix(70.9922,21.8073,21.8073,-70.9922,231.1,112.402)">
            <path d="M-0.242,-0.3L0.433,-0.3L0.724,0.3L0.05,0.3L-0.242,-0.3Z" style="fill:url(#_Linear8);fill-rule:nonzero;"/>
        </g>
        <g transform="matrix(10.7471,27.5021,27.5021,-10.7471,140.254,66.184)">
            <path d="M0.038,-0.356L1.096,-0.356L0.962,0.356L-0.096,0.356L0.038,-0.356Z" style="fill:url(#_Linear9);fill-rule:nonzero;"/>
        </g>
        <g transform="matrix(-0.93123,0.364432,0.364432,0.93123,154.873,82.5415)">
            <path d="M0.212,-1.101C0.448,-1.057 0.642,-0.762 0.643,-0.453C0.644,-0.136 0.448,0.084 0.212,0.04C-0.028,-0.004 -0.222,-0.299 -0.223,-0.615C-0.223,-0.925 -0.028,-1.146 0.212,-1.101" style="fill:white;fill-rule:nonzero;"/>
        </g>
        <g transform="matrix(-0.931527,0.363672,0.363672,0.931527,155.936,85.2724)">
            <path d="M0.209,-1.1C0.445,-1.056 0.639,-0.767 0.639,-0.451C0.639,-0.135 0.444,0.085 0.209,0.041C-0.031,-0.004 -0.225,-0.299 -0.226,-0.615C-0.226,-0.93 -0.031,-1.145 0.209,-1.1" style="fill:white;fill-rule:nonzero;"/>
        </g>
        <g transform="matrix(-0.93123,0.364432,0.364432,0.93123,157.007,87.9961)">
            <path d="M0.214,-1.101C0.449,-1.057 0.644,-0.763 0.645,-0.447C0.646,-0.131 0.45,0.084 0.214,0.04C-0.026,-0.005 -0.22,-0.294 -0.221,-0.61C-0.221,-0.926 -0.026,-1.146 0.214,-1.101" style="fill:white;fill-rule:nonzero;"/>
        </g>
        <g transform="matrix(-0.93123,0.364432,0.364432,0.93123,149.968,82.2111)">
            <path d="M0.205,-1.104C0.445,-1.059 0.639,-0.765 0.64,-0.448C0.64,-0.138 0.445,0.083 0.205,0.038C-0.031,-0.006 -0.226,-0.299 -0.226,-0.611C-0.227,-0.927 -0.032,-1.148 0.205,-1.104" style="fill:white;fill-rule:nonzero;"/>
        </g>
        <g transform="matrix(-0.931527,0.363672,0.363672,0.931527,151.034,84.9416)">
            <path d="M0.204,-1.103C0.444,-1.059 0.639,-0.763 0.639,-0.453C0.639,-0.138 0.444,0.083 0.204,0.038C-0.032,-0.006 -0.226,-0.3 -0.226,-0.617C-0.227,-0.927 -0.031,-1.148 0.204,-1.103" style="fill:white;fill-rule:nonzero;"/>
        </g>
        <g transform="matrix(-0.93123,0.364432,0.364432,0.93123,152.1,87.6715)">
            <path d="M0.203,-1.103C0.443,-1.059 0.638,-0.769 0.638,-0.453C0.638,-0.137 0.443,0.083 0.203,0.038C-0.033,-0.006 -0.228,-0.3 -0.228,-0.616C-0.228,-0.931 -0.033,-1.147 0.203,-1.103" style="fill:white;fill-rule:nonzero;"/>
        </g>
        <g transform="matrix(-0.931527,0.363672,0.363672,0.931527,153.168,90.3964)">
            <path d="M0.206,-1.104C0.446,-1.059 0.641,-0.764 0.641,-0.448C0.641,-0.133 0.446,0.082 0.206,0.037C-0.03,-0.007 -0.224,-0.296 -0.224,-0.612C-0.225,-0.927 -0.029,-1.148 0.206,-1.104" style="fill:white;fill-rule:nonzero;"/>
        </g>
        <g transform="matrix(-0.931527,0.363672,0.363672,0.931527,149.331,92.7913)">
            <path d="M0.207,-1.102C0.446,-1.057 0.641,-0.762 0.642,-0.446C0.642,-0.131 0.445,0.085 0.207,0.039C-0.033,-0.006 -0.224,-0.294 -0.224,-0.61C-0.225,-0.925 -0.033,-1.147 0.207,-1.102" style="fill:white;fill-rule:nonzero;"/>
        </g>
        <g transform="matrix(-0.931527,0.363672,0.363672,0.931527,143.368,89.7323)">
            <path d="M0.211,-1.103C0.451,-1.058 0.642,-0.764 0.642,-0.454C0.642,-0.137 0.45,0.084 0.211,0.038C-0.028,-0.007 -0.224,-0.301 -0.224,-0.616C-0.224,-0.928 -0.028,-1.148 0.211,-1.103" style="fill:white;fill-rule:nonzero;"/>
        </g>
        <g transform="matrix(-0.931527,0.363672,0.363672,0.931527,144.433,92.4629)">
            <path d="M0.208,-1.102C0.448,-1.057 0.639,-0.769 0.639,-0.453C0.639,-0.137 0.448,0.084 0.208,0.039C-0.031,-0.006 -0.226,-0.3 -0.225,-0.616C-0.227,-0.932 -0.03,-1.148 0.208,-1.102" style="fill:white;fill-rule:nonzero;"/>
        </g>
        <g transform="matrix(-0.931527,0.363672,0.363672,0.931527,145.502,95.1871)">
            <path d="M0.213,-1.103C0.453,-1.058 0.644,-0.765 0.644,-0.449C0.644,-0.132 0.452,0.083 0.213,0.038C-0.026,-0.007 -0.222,-0.296 -0.222,-0.612C-0.222,-0.928 -0.026,-1.148 0.213,-1.103" style="fill:white;fill-rule:nonzero;"/>
        </g>
        <g transform="matrix(13.6876,35.0238,35.0238,-13.6876,123.089,77.3043)">
            <path d="M-0.196,-0.253L0.635,-0.253L0.751,0.253L-0.079,0.253L-0.196,-0.253Z" style="fill:url(#_Linear10);fill-rule:nonzero;"/>
        </g>
        <g transform="matrix(-0.931243,0.364399,0.364399,0.931243,122.751,94.5328)">
            <path d="M0.229,-1.194C0.463,-1.248 0.65,-1.012 0.65,-0.676C0.65,-0.334 0.464,-0.013 0.229,0.041C-0.005,0.095 -0.196,-0.139 -0.197,-0.481C-0.196,-0.817 -0.006,-1.14 0.229,-1.194" style="fill:white;fill-rule:nonzero;"/>
        </g>
        <g transform="matrix(-0.931624,0.363423,0.363423,0.931624,123.903,97.4884)">
            <path d="M0.226,-1.194C0.462,-1.248 0.649,-1.017 0.649,-0.676C0.648,-0.333 0.461,-0.012 0.226,0.042C-0.008,0.096 -0.199,-0.139 -0.199,-0.481C-0.199,-0.823 -0.007,-1.14 0.226,-1.194" style="fill:white;fill-rule:nonzero;"/>
        </g>
        <g transform="matrix(-0.931624,0.363423,0.363423,0.931624,125.06,100.437)">
            <path d="M0.231,-1.195C0.466,-1.248 0.652,-1.012 0.652,-0.671C0.652,-0.328 0.466,-0.013 0.231,0.041C-0.003,0.095 -0.195,-0.134 -0.195,-0.477C-0.194,-0.818 -0.003,-1.141 0.231,-1.195" style="fill:white;fill-rule:nonzero;"/>
        </g>
        <g transform="matrix(-0.931243,0.364399,0.364399,0.931243,126.005,90.9279)">
            <path d="M0.221,-1.193C0.454,-1.246 0.646,-1.012 0.647,-0.67C0.646,-0.334 0.456,-0.011 0.221,0.042C-0.013,0.096 -0.2,-0.138 -0.2,-0.475C-0.2,-0.817 -0.013,-1.139 0.221,-1.193" style="fill:white;fill-rule:nonzero;"/>
        </g>
        <g transform="matrix(-0.931624,0.363423,0.363423,0.931624,127.158,93.8831)">
            <path d="M0.221,-1.193C0.455,-1.246 0.647,-1.011 0.646,-0.675C0.646,-0.332 0.455,-0.011 0.221,0.043C-0.014,0.097 -0.201,-0.138 -0.201,-0.481C-0.201,-0.817 -0.014,-1.139 0.221,-1.193" style="fill:white;fill-rule:nonzero;"/>
        </g>
        <g transform="matrix(-0.93135,0.364125,0.364125,0.93135,128.312,96.838)">
            <path d="M0.219,-1.192C0.453,-1.246 0.644,-1.017 0.645,-0.676C0.644,-0.333 0.454,-0.011 0.219,0.044C-0.015,0.098 -0.202,-0.138 -0.202,-0.48C-0.202,-0.823 -0.015,-1.138 0.219,-1.192" style="fill:white;fill-rule:nonzero;"/>
        </g>
        <g transform="matrix(-0.931517,0.363697,0.363697,0.931517,129.468,99.7873)">
            <path d="M0.222,-1.193C0.457,-1.247 0.648,-1.012 0.648,-0.67C0.648,-0.328 0.457,-0.011 0.222,0.042C-0.012,0.096 -0.199,-0.134 -0.199,-0.476C-0.199,-0.818 -0.012,-1.139 0.222,-1.193" style="fill:white;fill-rule:nonzero;"/>
        </g>
        <g transform="matrix(-0.931624,0.363423,0.363423,0.931624,133.885,99.1366)">
            <path d="M0.222,-1.194C0.457,-1.248 0.649,-1.012 0.648,-0.671C0.648,-0.328 0.457,-0.012 0.222,0.042C-0.009,0.094 -0.199,-0.134 -0.199,-0.477C-0.199,-0.818 -0.008,-1.14 0.222,-1.194" style="fill:white;fill-rule:nonzero;"/>
        </g>
        <g transform="matrix(-0.931517,0.363697,0.363697,0.931517,135.996,92.5782)">
            <path d="M0.228,-1.193C0.459,-1.246 0.65,-1.011 0.65,-0.675C0.65,-0.332 0.459,-0.011 0.228,0.042C-0.006,0.096 -0.197,-0.138 -0.197,-0.481C-0.197,-0.817 -0.006,-1.139 0.228,-1.193" style="fill:white;fill-rule:nonzero;"/>
        </g>
        <g transform="matrix(-0.93135,0.364125,0.364125,0.93135,137.15,95.5338)">
            <path d="M0.227,-1.194C0.458,-1.246 0.648,-1.017 0.649,-0.676C0.648,-0.333 0.458,-0.011 0.227,0.042C-0.007,0.096 -0.198,-0.139 -0.199,-0.481C-0.198,-0.823 -0.007,-1.14 0.227,-1.194" style="fill:white;fill-rule:nonzero;"/>
        </g>
        <g transform="matrix(-0.931624,0.363423,0.363423,0.931624,138.306,98.4823)">
            <path d="M0.23,-1.193C0.461,-1.246 0.653,-1.011 0.652,-0.67C0.652,-0.327 0.461,-0.011 0.23,0.042C-0.004,0.096 -0.195,-0.133 -0.195,-0.476C-0.195,-0.817 -0.004,-1.139 0.23,-1.193" style="fill:white;fill-rule:nonzero;"/>
        </g>
        <g transform="matrix(0.989296,-0.145923,-0.145923,-0.989296,129.09,62.6942)">
            <path d="M0.626,0.039L20.15,0.039L0.533,-8.535L-18.991,-8.535L0.626,0.039Z" style="fill:rgb(214,192,152);fill-rule:nonzero;"/>
        </g>
        <g>
            <clipPath id="_clip11">
                <path d="M182.845,341.624L180.448,353.661L187.855,353.661L190.252,341.624L182.845,341.624Z" clip-rule="nonzero"/>
            </clipPath>
            <g clip-path="url(#_clip11)">
                <g transform="matrix(9.80416,0,0,-9.80416,180.448,347.643)">
                    <rect x="0" y="-0.614" width="1" height="1.228" style="fill:url(#_Linear12);"/>
                </g>
                <g transform="matrix(-0.980495,-0.196546,-0.196546,0.980495,187.377,350.417)">
                    <path d="M-0.043,-0.443C0.038,-0.427 0.106,-0.311 0.105,-0.19C0.106,-0.066 0.038,0.021 -0.043,0.004C-0.125,-0.012 -0.193,-0.126 -0.193,-0.25C-0.193,-0.371 -0.125,-0.46 -0.043,-0.443" style="fill:white;fill-rule:nonzero;"/>
                </g>
                <g transform="matrix(-0.981007,-0.193972,-0.193972,0.981007,187.153,351.547)">
                    <path d="M-0.042,-0.444C0.04,-0.428 0.107,-0.315 0.107,-0.191C0.107,-0.067 0.04,0.021 -0.042,0.004C-0.124,-0.012 -0.192,-0.126 -0.191,-0.25C-0.192,-0.374 -0.125,-0.461 -0.042,-0.444" style="fill:white;fill-rule:nonzero;"/>
                </g>
                <g transform="matrix(-0.980923,-0.194397,-0.194397,0.980923,186.928,352.674)">
                    <path d="M-0.043,-0.443C0.039,-0.427 0.106,-0.313 0.106,-0.188C0.107,-0.064 0.039,0.021 -0.043,0.004C-0.125,-0.012 -0.193,-0.123 -0.192,-0.248C-0.193,-0.372 -0.126,-0.46 -0.043,-0.443" style="fill:white;fill-rule:nonzero;"/>
                </g>
                <g transform="matrix(-0.980581,-0.196116,-0.196116,0.980581,186.036,349.288)">
                    <path d="M-0.045,-0.444C0.037,-0.428 0.105,-0.312 0.105,-0.188C0.105,-0.067 0.037,0.021 -0.045,0.004C-0.126,-0.012 -0.194,-0.127 -0.193,-0.248C-0.194,-0.372 -0.126,-0.461 -0.045,-0.444" style="fill:white;fill-rule:nonzero;"/>
                </g>
                <g transform="matrix(-0.980495,-0.196546,-0.196546,0.980495,185.811,350.416)">
                    <path d="M-0.045,-0.443C0.038,-0.427 0.105,-0.311 0.105,-0.19C0.105,-0.066 0.037,0.021 -0.045,0.004C-0.126,-0.012 -0.194,-0.126 -0.193,-0.25C-0.194,-0.371 -0.126,-0.46 -0.045,-0.443" style="fill:white;fill-rule:nonzero;"/>
                </g>
                <g transform="matrix(-0.981007,-0.193972,-0.193972,0.981007,185.587,351.547)">
                    <path d="M-0.044,-0.444C0.038,-0.428 0.105,-0.315 0.105,-0.191C0.106,-0.067 0.039,0.021 -0.044,0.004C-0.126,-0.012 -0.193,-0.126 -0.193,-0.25C-0.194,-0.374 -0.126,-0.46 -0.044,-0.444" style="fill:white;fill-rule:nonzero;"/>
                </g>
                <g transform="matrix(-0.980495,-0.196546,-0.196546,0.980495,185.361,352.673)">
                    <path d="M-0.046,-0.444C0.037,-0.427 0.104,-0.312 0.104,-0.188C0.104,-0.064 0.037,0.021 -0.046,0.004C-0.127,-0.012 -0.195,-0.124 -0.194,-0.248C-0.195,-0.372 -0.127,-0.46 -0.046,-0.444" style="fill:white;fill-rule:nonzero;"/>
                </g>
                <g transform="matrix(-0.980923,-0.194397,-0.194397,0.980923,183.797,352.673)">
                    <path d="M-0.045,-0.443C0.037,-0.427 0.105,-0.313 0.104,-0.189C0.105,-0.064 0.038,0.021 -0.045,0.004C-0.128,-0.012 -0.195,-0.123 -0.193,-0.247C-0.194,-0.372 -0.129,-0.46 -0.045,-0.443" style="fill:white;fill-rule:nonzero;"/>
                </g>
                <g transform="matrix(-0.980495,-0.196546,-0.196546,0.980495,182.684,350.417)">
                    <path d="M-0.042,-0.443C0.04,-0.427 0.106,-0.312 0.106,-0.19C0.107,-0.066 0.04,0.021 -0.042,0.005C-0.125,-0.012 -0.192,-0.126 -0.192,-0.25C-0.193,-0.371 -0.125,-0.46 -0.042,-0.443" style="fill:white;fill-rule:nonzero;"/>
                </g>
                <g transform="matrix(-0.980581,-0.196116,-0.196116,0.980581,182.459,351.547)">
                    <path d="M-0.042,-0.444C0.041,-0.427 0.106,-0.315 0.106,-0.191C0.107,-0.067 0.04,0.021 -0.042,0.005C-0.125,-0.012 -0.192,-0.126 -0.192,-0.251C-0.193,-0.374 -0.124,-0.461 -0.042,-0.444" style="fill:white;fill-rule:nonzero;"/>
                </g>
                <g transform="matrix(-0.980495,-0.196546,-0.196546,0.980495,182.234,352.673)">
                    <path d="M-0.043,-0.443C0.039,-0.427 0.106,-0.312 0.105,-0.188C0.105,-0.064 0.039,0.021 -0.043,0.004C-0.126,-0.012 -0.194,-0.124 -0.193,-0.248C-0.193,-0.372 -0.125,-0.46 -0.043,-0.443" style="fill:white;fill-rule:nonzero;"/>
                </g>
            </g>
        </g>
        <g>
            <clipPath id="_clip13">
                <path d="M172.502,350.796L180.448,353.661L182.845,341.624L174.899,338.759L172.502,350.796Z" clip-rule="nonzero"/>
            </clipPath>
            <g clip-path="url(#_clip13)">
                <g transform="matrix(10.3432,0,0,-10.3432,172.502,346.21)">
                    <rect x="0" y="-0.72" width="1" height="1.441" style="fill:url(#_Linear14);"/>
                </g>
                <g transform="matrix(-0.98066,-0.19572,-0.19572,0.98066,174.239,347.901)">
                    <path d="M-0.046,-0.48C0.057,-0.496 0.139,-0.399 0.139,-0.267C0.139,-0.132 0.057,-0.011 -0.046,0.005C-0.149,0.02 -0.232,-0.076 -0.233,-0.211C-0.232,-0.343 -0.149,-0.466 -0.046,-0.48" style="fill:white;fill-rule:nonzero;"/>
                </g>
                <g transform="matrix(-0.98066,-0.19572,-0.19572,0.98066,173.997,349.123)">
                    <path d="M-0.045,-0.479C0.059,-0.496 0.141,-0.401 0.14,-0.266C0.14,-0.132 0.058,-0.01 -0.045,0.006C-0.148,0.021 -0.231,-0.075 -0.232,-0.21C-0.232,-0.344 -0.148,-0.464 -0.045,-0.479" style="fill:white;fill-rule:nonzero;"/>
                </g>
                <g transform="matrix(-0.980739,-0.195325,-0.195325,0.980739,173.752,350.344)">
                    <path d="M-0.047,-0.482C0.056,-0.497 0.138,-0.4 0.139,-0.265C0.139,-0.131 0.056,-0.013 -0.047,0.005C-0.15,0.02 -0.234,-0.074 -0.234,-0.209C-0.233,-0.343 -0.15,-0.467 -0.047,-0.482" style="fill:white;fill-rule:nonzero;"/>
                </g>
                <g transform="matrix(-0.98066,-0.19572,-0.19572,0.98066,176.297,347.334)">
                    <path d="M-0.048,-0.482C0.055,-0.497 0.138,-0.401 0.139,-0.266C0.138,-0.134 0.054,-0.013 -0.048,0.004C-0.152,0.02 -0.234,-0.077 -0.234,-0.21C-0.234,-0.344 -0.152,-0.467 -0.048,-0.482" style="fill:white;fill-rule:nonzero;"/>
                </g>
                <g transform="matrix(-0.98066,-0.19572,-0.19572,0.98066,176.053,348.555)">
                    <path d="M-0.05,-0.48C0.054,-0.496 0.137,-0.399 0.137,-0.266C0.137,-0.132 0.053,-0.011 -0.05,0.005C-0.153,0.021 -0.235,-0.076 -0.235,-0.211C-0.234,-0.342 -0.153,-0.465 -0.05,-0.48" style="fill:white;fill-rule:nonzero;"/>
                </g>
                <g transform="matrix(-0.980739,-0.195325,-0.195325,0.980739,175.808,349.778)">
                    <path d="M-0.05,-0.482C0.053,-0.497 0.136,-0.402 0.137,-0.268C0.137,-0.134 0.053,-0.012 -0.05,0.004C-0.153,0.02 -0.236,-0.077 -0.236,-0.212C-0.235,-0.346 -0.154,-0.466 -0.05,-0.482" style="fill:white;fill-rule:nonzero;"/>
                </g>
                <g transform="matrix(-0.98066,-0.19572,-0.19572,0.98066,175.565,350.999)">
                    <path d="M-0.05,-0.482C0.053,-0.497 0.136,-0.401 0.137,-0.266C0.137,-0.132 0.053,-0.013 -0.05,0.003C-0.154,0.02 -0.236,-0.075 -0.235,-0.21C-0.235,-0.344 -0.153,-0.467 -0.05,-0.482" style="fill:white;fill-rule:nonzero;"/>
                </g>
                <g transform="matrix(-0.98066,-0.19572,-0.19572,0.98066,177.384,351.654)">
                    <path d="M-0.048,-0.481C0.054,-0.496 0.137,-0.4 0.138,-0.265C0.138,-0.131 0.054,-0.012 -0.048,0.005C-0.15,0.02 -0.235,-0.074 -0.234,-0.209C-0.234,-0.343 -0.15,-0.466 -0.048,-0.481" style="fill:white;fill-rule:nonzero;"/>
                </g>
                <g transform="matrix(-0.98066,-0.19572,-0.19572,0.98066,179.688,349.866)">
                    <path d="M-0.046,-0.48C0.055,-0.496 0.139,-0.399 0.139,-0.267C0.139,-0.133 0.054,-0.011 -0.046,0.005C-0.149,0.02 -0.232,-0.076 -0.233,-0.211C-0.232,-0.343 -0.149,-0.466 -0.046,-0.48" style="fill:white;fill-rule:nonzero;"/>
                </g>
                <g transform="matrix(-0.980739,-0.195325,-0.195325,0.980739,179.446,351.09)">
                    <path d="M-0.044,-0.482C0.057,-0.497 0.141,-0.403 0.141,-0.268C0.14,-0.134 0.057,-0.013 -0.044,0.004C-0.147,0.019 -0.231,-0.077 -0.232,-0.212C-0.232,-0.346 -0.148,-0.466 -0.044,-0.482" style="fill:white;fill-rule:nonzero;"/>
                </g>
                <g transform="matrix(-0.98066,-0.19572,-0.19572,0.98066,179.201,352.309)">
                    <path d="M-0.046,-0.482C0.055,-0.497 0.138,-0.4 0.139,-0.265C0.138,-0.131 0.054,-0.012 -0.046,0.004C-0.151,0.02 -0.234,-0.074 -0.233,-0.21C-0.233,-0.343 -0.15,-0.467 -0.046,-0.482" style="fill:white;fill-rule:nonzero;"/>
                </g>
            </g>
        </g>
        <g transform="matrix(0.94072,0.339185,0.339185,-0.94072,182.807,338.753)">
            <path d="M-0.47,-0.176L7.977,-0.176L1.009,-2.689L-7.438,-2.689L-0.47,-0.176Z" style="fill:rgb(214,192,152);fill-rule:nonzero;"/>
        </g>
        <g transform="matrix(1,0,0,1,102.759,194.108)">
            <path d="M0,-38.245L-25.093,-33.821L-24.55,-14.698L1.086,0L26.18,-4.425L25.631,-23.547L0,-38.245M0.929,-5.452L-17.396,-15.96L-17.787,-29.63L0.152,-32.793L18.477,-22.285L18.868,-8.615L0.929,-5.452Z" style="fill:white;fill-rule:nonzero;"/>
        </g>
        <g transform="matrix(1,0,0,1,103.129,180.952)">
            <path d="M0,-11.939L-7.835,-10.558L-7.662,-4.586L0.338,0L8.172,-1.381L8.002,-7.348L0,-11.939Z" style="fill:white;fill-rule:nonzero;"/>
        </g>
        <g transform="matrix(15.3062,6.2821,6.2821,-15.3062,48.8285,56.1701)">
            <path d="M0.294,-0.38L0.811,-0.38L0.751,0.38L0.245,0.385L0.294,-0.38Z" style="fill:url(#_Linear15);fill-rule:nonzero;"/>
        </g>
        <g transform="matrix(12.408,3.37708,3.37708,-12.408,59.0831,60.6053)">
            <path d="M0.115,-0.49L0.837,-0.49L0.887,0.483L0.16,0.489L0.115,-0.49Z" style="fill:url(#_Linear16);fill-rule:nonzero;"/>
        </g>
        <g transform="matrix(16.094,4.52777,4.52777,-16.094,55.3104,52.4521)">
            <path d="M0.469,-0.031L1.028,-0.031L0.505,0.026L-0.028,0.031L0.469,-0.031Z" style="fill:url(#_Linear17);fill-rule:nonzero;"/>
        </g>
        <g transform="matrix(2.85762,18.4721,18.4721,-2.85762,258.233,48.7352)">
            <path d="M0.22,-0.262L0.996,-0.262L1.031,0.268L0.255,0.261L0.22,-0.262Z" style="fill:url(#_Linear18);fill-rule:nonzero;"/>
        </g>
        <g transform="matrix(2.07068,12.6441,12.6441,-2.07068,269.15,52.441)">
            <path d="M-0.048,-0.417L1.084,-0.417L1.031,0.42L-0.084,0.417L-0.048,-0.417Z" style="fill:url(#_Linear19);fill-rule:nonzero;"/>
        </g>
        <g transform="matrix(-19.809,4.04986,4.04986,19.809,274.043,50.0036)">
            <path d="M0.442,-0.027L1.005,-0.027L0.524,0.029L-0.005,0.027L0.442,-0.027Z" style="fill:url(#_Linear20);fill-rule:nonzero;"/>
        </g>
        <g transform="matrix(3.089,2.2333,2.2333,-3.089,217.696,70.8723)">
            <path d="M0.222,-0.468L0.812,-0.468L0.784,0.46L0.185,0.466L0.222,-0.468Z" style="fill:url(#_Linear21);fill-rule:nonzero;"/>
        </g>
        <g transform="matrix(3.66055,2.22236,2.22236,-3.66055,219.469,72.2567)">
            <path d="M0.165,-0.412L0.795,-0.412L0.839,0.405L0.207,0.414L0.165,-0.412Z" style="fill:url(#_Linear22);fill-rule:nonzero;"/>
        </g>
        <g transform="matrix(3.5015,2.19035,2.19035,-3.5015,219.625,70.1471)">
            <path d="M0.448,-0.021L1.103,-0.021L0.453,0.073L-0.103,0.021L0.448,-0.021Z" style="fill:url(#_Linear23);fill-rule:nonzero;"/>
        </g>
        <g transform="matrix(13.6867,4.96142,4.96142,-13.6867,211.408,244.306)">
            <path d="M0.305,-0.357L0.777,-0.357L0.739,0.353L0.256,0.352L0.305,-0.357Z" style="fill:url(#_Linear24);fill-rule:nonzero;"/>
        </g>
        <g transform="matrix(15.6211,3.63344,3.63344,-15.6211,218.235,247.283)">
            <path d="M0.206,-0.321L0.696,-0.321L0.719,0.327L0.248,0.323L0.206,-0.321Z" style="fill:url(#_Linear25);fill-rule:nonzero;"/>
        </g>
        <g transform="matrix(13.66,3.06682,3.06682,-13.66,216.824,241.245)">
            <path d="M0.479,-0.031L1.019,-0.031L0.535,0.027L-0.019,0.031L0.479,-0.031Z" style="fill:url(#_Linear26);fill-rule:nonzero;"/>
        </g>
        <g transform="matrix(0.939742,4.90409,4.90409,-0.939742,197.003,271.635)">
            <path d="M-0.253,-0.326L0.745,-0.326L0.777,0.347L-0.252,0.323L-0.253,-0.326Z" style="fill:url(#_Linear27);fill-rule:nonzero;"/>
        </g>
        <g transform="matrix(0.764314,3.54351,3.54351,-0.764314,199.783,270.521)">
            <path d="M-0.198,-0.361L1.219,-0.361L1.142,0.373L-0.221,0.349L-0.198,-0.361Z" style="fill:url(#_Linear28);fill-rule:nonzero;"/>
        </g>
        <g transform="matrix(0.823618,5.19312,5.19312,-0.823618,13.9174,98.9117)">
            <path d="M-0.12,-0.408L1.106,-0.408L1.156,0.402L-0.108,0.39L-0.12,-0.408Z" style="fill:url(#_Linear29);fill-rule:nonzero;"/>
        </g>
        <g transform="matrix(0.749651,4.45105,4.45105,-0.749651,17.7352,98.7193)">
            <path d="M-0.22,-0.386L1.252,-0.386L1.168,0.395L-0.253,0.38L-0.22,-0.386Z" style="fill:url(#_Linear30);fill-rule:nonzero;"/>
        </g>
        <g transform="matrix(5.84944,2.86941,2.86941,-5.84944,153.072,129.525)">
            <path d="M0.185,-0.493L0.899,-0.493L0.815,0.493L0.123,0.504L0.185,-0.493Z" style="fill:url(#_Linear31);fill-rule:nonzero;"/>
        </g>
        <g transform="matrix(13.022,4.824,4.824,-13.022,157.401,131.686)">
            <path d="M0.05,-0.235L0.377,-0.235L0.395,0.233L0.057,0.229L0.05,-0.235Z" style="fill:url(#_Linear32);fill-rule:nonzero;"/>
        </g>
        <g transform="matrix(0.949226,0.314594,0.314594,-0.949226,156.02,125.693)">
            <path d="M-0.356,-1.419L4.237,-1.419L8.789,-2.206L4.104,-2.099L-0.356,-1.419Z" style="fill:rgb(214,192,152);fill-rule:nonzero;"/>
        </g>
    </g>
    <defs>
        <linearGradient id="_Linear1" x1="0" y1="0" x2="1" y2="0" gradientUnits="userSpaceOnUse" gradientTransform="matrix(-0.221967,0.975054,0.975054,0.221967,0.625688,-0.499261)"><stop offset="0" style="stop-color:rgb(188,165,121);stop-opacity:1"/><stop offset="0.3" style="stop-color:rgb(188,165,121);stop-opacity:1"/><stop offset="0.8" style="stop-color:rgb(187,163,119);stop-opacity:1"/><stop offset="1" style="stop-color:rgb(187,163,119);stop-opacity:1"/></linearGradient>
        <linearGradient id="_Linear4" x1="0" y1="0" x2="1" y2="0" gradientUnits="userSpaceOnUse" gradientTransform="matrix(1,-0,0,-1,0,1.64131e-05)"><stop offset="0" style="stop-color:rgb(187,163,119);stop-opacity:1"/><stop offset="0.2" style="stop-color:rgb(227,213,186);stop-opacity:1"/><stop offset="1" style="stop-color:rgb(187,163,119);stop-opacity:1"/></linearGradient>
        <linearGradient id="_Linear5" x1="0" y1="0" x2="1" y2="0" gradientUnits="userSpaceOnUse" gradientTransform="matrix(0.612115,0.790769,0.790769,-0.612115,0.193941,-0.39538)"><stop offset="0" style="stop-color:rgb(188,165,121);stop-opacity:1"/><stop offset="0.3" style="stop-color:rgb(188,165,121);stop-opacity:1"/><stop offset="0.8" style="stop-color:rgb(187,163,119);stop-opacity:1"/><stop offset="1" style="stop-color:rgb(187,163,119);stop-opacity:1"/></linearGradient>
        <linearGradient id="_Linear6" x1="0" y1="0" x2="1" y2="0" gradientUnits="userSpaceOnUse" gradientTransform="matrix(0.0213428,-0.999772,-0.999772,-0.0213428,-0.0744715,-0.0760783)"><stop offset="0" style="stop-color:rgb(30,30,30);stop-opacity:1"/><stop offset="1" style="stop-color:rgb(100,100,100);stop-opacity:1"/></linearGradient>
        <linearGradient id="_Linear7" x1="0" y1="0" x2="1" y2="0" gradientUnits="userSpaceOnUse" gradientTransform="matrix(0.861274,0.50814,0.50814,-0.861274,0.0809493,-0.29651)"><stop offset="0" style="stop-color:rgb(30,30,30);stop-opacity:1"/><stop offset="0.75" style="stop-color:rgb(30,30,30);stop-opacity:1"/><stop offset="0.91" style="stop-color:rgb(100,100,100);stop-opacity:1"/><stop offset="1" style="stop-color:rgb(30,30,30);stop-opacity:1"/></linearGradient>
        <linearGradient id="_Linear8" x1="0" y1="0" x2="1" y2="0" gradientUnits="userSpaceOnUse" gradientTransform="matrix(0.86191,0.507062,0.507062,-0.86191,0.0333001,-0.122277)"><stop offset="0" style="stop-color:rgb(30,30,30);stop-opacity:1"/><stop offset="1" style="stop-color:rgb(100,100,100);stop-opacity:1"/></linearGradient>
        <linearGradient id="_Linear9" x1="0" y1="0" x2="1" y2="0" gradientUnits="userSpaceOnUse" gradientTransform="matrix(0.363972,0.93141,0.93141,-0.363972,0.318032,-0.465732)"><stop offset="0" style="stop-color:rgb(188,165,121);stop-opacity:1"/><stop offset="0.3" style="stop-color:rgb(188,165,121);stop-opacity:1"/><stop offset="0.8" style="stop-color:rgb(187,163,119);stop-opacity:1"/><stop offset="1" style="stop-color:rgb(187,163,119);stop-opacity:1"/></linearGradient>
        <linearGradient id="_Linear10" x1="0" y1="0" x2="1" y2="0" gradientUnits="userSpaceOnUse" gradientTransform="matrix(-0.635993,0.771694,0.771694,0.635993,0.454428,-0.214353)"><stop offset="0" style="stop-color:rgb(227,213,186);stop-opacity:1"/><stop offset="1" style="stop-color:rgb(187,163,119);stop-opacity:1"/></linearGradient>
        <linearGradient id="_Linear12" x1="0" y1="0" x2="1" y2="0" gradientUnits="userSpaceOnUse" gradientTransform="matrix(1,-0,0,-1,0,4.54909e-06)"><stop offset="0" style="stop-color:rgb(227,213,186);stop-opacity:1"/><stop offset="1" style="stop-color:rgb(187,163,119);stop-opacity:1"/></linearGradient>
        <linearGradient id="_Linear14" x1="0" y1="0" x2="1" y2="0" gradientUnits="userSpaceOnUse" gradientTransform="matrix(1,-0,0,-1,0,1.63586e-05)"><stop offset="0" style="stop-color:rgb(188,165,121);stop-opacity:1"/><stop offset="0.3" style="stop-color:rgb(188,165,121);stop-opacity:1"/><stop offset="0.8" style="stop-color:rgb(187,163,119);stop-opacity:1"/><stop offset="1" style="stop-color:rgb(187,163,119);stop-opacity:1"/></linearGradient>
        <linearGradient id="_Linear15" x1="0" y1="0" x2="1" y2="0" gradientUnits="userSpaceOnUse" gradientTransform="matrix(-0.999767,0.0215993,0.0215993,0.999767,1.05602,-0.011406)"><stop offset="0" style="stop-color:white;stop-opacity:1"/><stop offset="1" style="stop-color:rgb(204,205,205);stop-opacity:1"/></linearGradient>
        <linearGradient id="_Linear16" x1="0" y1="0" x2="1" y2="0" gradientUnits="userSpaceOnUse" gradientTransform="matrix(0.9649,0.262616,0.262616,-0.9649,0.0175526,-0.131329)"><stop offset="0" style="stop-color:rgb(224,224,224);stop-opacity:1"/><stop offset="1" style="stop-color:white;stop-opacity:1"/></linearGradient>
        <linearGradient id="_Linear17" x1="0" y1="0" x2="1" y2="0" gradientUnits="userSpaceOnUse" gradientTransform="matrix(0.96263,0.27082,0.27082,-0.96263,0.0186856,-0.135415)"><stop offset="0" style="stop-color:rgb(224,224,224);stop-opacity:1"/><stop offset="1" style="stop-color:white;stop-opacity:1"/></linearGradient>
        <linearGradient id="_Linear18" x1="0" y1="0" x2="1" y2="0" gradientUnits="userSpaceOnUse" gradientTransform="matrix(0.379097,-0.925357,-0.925357,-0.379097,0.389075,0.579854)"><stop offset="0" style="stop-color:white;stop-opacity:1"/><stop offset="1" style="stop-color:rgb(204,205,205);stop-opacity:1"/></linearGradient>
        <linearGradient id="_Linear19" x1="0" y1="0" x2="1" y2="0" gradientUnits="userSpaceOnUse" gradientTransform="matrix(0.161614,0.986854,0.986854,-0.161614,0.419186,-0.493419)"><stop offset="0" style="stop-color:rgb(224,224,224);stop-opacity:1"/><stop offset="1" style="stop-color:white;stop-opacity:1"/></linearGradient>
        <linearGradient id="_Linear20" x1="0" y1="0" x2="1" y2="0" gradientUnits="userSpaceOnUse" gradientTransform="matrix(-0.979734,0.200302,0.200302,0.979734,0.989855,-0.10015)"><stop offset="0" style="stop-color:rgb(224,224,224);stop-opacity:1"/><stop offset="1" style="stop-color:white;stop-opacity:1"/></linearGradient>
        <linearGradient id="_Linear21" x1="0" y1="0" x2="1" y2="0" gradientUnits="userSpaceOnUse" gradientTransform="matrix(0.810386,0.585896,0.585896,-0.810386,0.094819,-0.292985)"><stop offset="0" style="stop-color:white;stop-opacity:1"/><stop offset="1" style="stop-color:rgb(204,205,205);stop-opacity:1"/></linearGradient>
        <linearGradient id="_Linear22" x1="0" y1="0" x2="1" y2="0" gradientUnits="userSpaceOnUse" gradientTransform="matrix(0.854799,0.518959,0.518959,-0.854799,0.07256,-0.259335)"><stop offset="0" style="stop-color:rgb(224,224,224);stop-opacity:1"/><stop offset="1" style="stop-color:white;stop-opacity:1"/></linearGradient>
        <linearGradient id="_Linear23" x1="0" y1="0" x2="1" y2="0" gradientUnits="userSpaceOnUse" gradientTransform="matrix(0.847791,0.530331,0.530331,-0.847791,0.0760905,-0.265116)"><stop offset="0" style="stop-color:rgb(224,224,224);stop-opacity:1"/><stop offset="1" style="stop-color:white;stop-opacity:1"/></linearGradient>
        <linearGradient id="_Linear24" x1="0" y1="0" x2="1" y2="0" gradientUnits="userSpaceOnUse" gradientTransform="matrix(-0.872816,-0.488049,-0.488049,0.872816,0.975933,0.254324)"><stop offset="0" style="stop-color:white;stop-opacity:1"/><stop offset="1" style="stop-color:rgb(204,205,205);stop-opacity:1"/></linearGradient>
        <linearGradient id="_Linear25" x1="0" y1="0" x2="1" y2="0" gradientUnits="userSpaceOnUse" gradientTransform="matrix(0.995139,0.0984791,0.0984791,-0.995139,0.0022465,-0.0455129)"><stop offset="0" style="stop-color:rgb(224,224,224);stop-opacity:1"/><stop offset="1" style="stop-color:white;stop-opacity:1"/></linearGradient>
        <linearGradient id="_Linear26" x1="0" y1="0" x2="1" y2="0" gradientUnits="userSpaceOnUse" gradientTransform="matrix(0.975712,0.219059,0.219059,-0.975712,0.012145,-0.109537)"><stop offset="0" style="stop-color:rgb(224,224,224);stop-opacity:1"/><stop offset="1" style="stop-color:white;stop-opacity:1"/></linearGradient>
        <linearGradient id="_Linear27" x1="0" y1="0" x2="1" y2="0" gradientUnits="userSpaceOnUse" gradientTransform="matrix(0.0867802,-0.996227,-0.996227,-0.0867802,0.239913,0.261721)"><stop offset="0" style="stop-color:rgb(30,30,30);stop-opacity:1"/><stop offset="1" style="stop-color:rgb(100,100,100);stop-opacity:1"/></linearGradient>
        <linearGradient id="_Linear28" x1="0" y1="0" x2="1" y2="0" gradientUnits="userSpaceOnUse" gradientTransform="matrix(0.210845,0.977519,0.977519,-0.210845,0.394823,-0.489064)"><stop offset="0" style="stop-color:rgb(30,30,30);stop-opacity:1"/><stop offset="1" style="stop-color:rgb(100,100,100);stop-opacity:1"/></linearGradient>
        <linearGradient id="_Linear29" x1="0" y1="0" x2="1" y2="0" gradientUnits="userSpaceOnUse" gradientTransform="matrix(0.15664,0.987656,0.987656,-0.15664,0.421673,-0.49382)"><stop offset="0" style="stop-color:rgb(30,30,30);stop-opacity:1"/><stop offset="1" style="stop-color:rgb(100,100,100);stop-opacity:1"/></linearGradient>
        <linearGradient id="_Linear30" x1="0" y1="0" x2="1" y2="0" gradientUnits="userSpaceOnUse" gradientTransform="matrix(0.166082,0.986112,0.986112,-0.166082,0.416801,-0.492869)"><stop offset="0" style="stop-color:rgb(30,30,30);stop-opacity:1"/><stop offset="1" style="stop-color:rgb(100,100,100);stop-opacity:1"/></linearGradient>
        <linearGradient id="_Linear31" x1="0" y1="0" x2="1" y2="0" gradientUnits="userSpaceOnUse" gradientTransform="matrix(0.897797,0.440409,0.440409,-0.897797,0.0511097,-0.220241)"><stop offset="0" style="stop-color:rgb(188,165,121);stop-opacity:1"/><stop offset="0.3" style="stop-color:rgb(188,165,121);stop-opacity:1"/><stop offset="0.8" style="stop-color:rgb(187,163,119);stop-opacity:1"/><stop offset="1" style="stop-color:rgb(187,163,119);stop-opacity:1"/></linearGradient>
        <linearGradient id="_Linear32" x1="0" y1="0" x2="1" y2="0" gradientUnits="userSpaceOnUse" gradientTransform="matrix(-0.976188,0.216928,0.216928,0.976188,0.430466,-0.0472525)"><stop offset="0" style="stop-color:rgb(227,213,186);stop-opacity:1"/><stop offset="1" style="stop-color:rgb(187,163,119);stop-opacity:1"/></linearGradient>
    </defs>
</svg>
