<?xml version="1.0" encoding="UTF-8" standalone="no"?>
<!DOCTYPE svg PUBLIC "-//W3C//DTD SVG 1.1//EN" "http://www.w3.org/Graphics/SVG/1.1/DTD/svg11.dtd">
<svg width="100%" height="100%" viewBox="0 0 522 508" version="1.1" xmlns="http://www.w3.org/2000/svg" xmlns:xlink="http://www.w3.org/1999/xlink" xml:space="preserve" xmlns:serif="http://www.serif.com/" style="fill-rule:evenodd;clip-rule:evenodd;stroke-miterlimit:10;">
    <g transform="matrix(0,13.9857,13.9857,0,206.123,312.028)">
        <path d="M-0.205,-0.5L1.307,-0.5L1.772,0.5L-0.772,0.5L-0.205,-0.5Z" style="fill:url(#_Linear1);fill-rule:nonzero;"/>
    </g>
    <g transform="matrix(26.0457,-60.5678,-60.5678,-26.0457,205.004,342.576)">
        <path d="M0.129,-0.078L0.975,-0.135L0.625,0.135L0.129,-0.078Z" style="fill:url(#_Linear2);fill-rule:nonzero;"/>
    </g>
    <g transform="matrix(1,0,0,1,51.5146,136.598)">
        <path d="M0,101.496L42.688,35.524C42.688,35.524 99.406,1.194 123.884,0" style="fill:none;fill-rule:nonzero;stroke:url(#_Linear3);stroke-width:7px;"/>
    </g>
    <g transform="matrix(1,0,0,-1,0,103.204)">
        <path d="M306.654,0.033C303.817,0.001 300.98,-0.031 298.141,-0.063C294.842,-0.226 291.542,-0.389 288.243,-0.552C284.968,-0.759 281.718,-1.024 278.46,-1.277C271.985,-1.888 265.565,-2.683 259.229,-3.638C256.28,-4.032 253.382,-4.563 250.483,-5.092C247.581,-5.614 244.678,-6.129 241.826,-6.781C238.964,-7.406 236.085,-7.981 233.252,-8.674C230.427,-9.387 227.602,-10.101 224.777,-10.814C213.553,-13.855 202.569,-17.463 191.831,-21.571C191.823,-21.574 191.815,-21.577 191.808,-21.58C170.404,-30.02 149.833,-40.68 130.214,-53.571C120.389,-59.999 110.751,-66.902 101.288,-74.388L94.243,-80.139C91.909,-82.121 89.576,-84.103 87.26,-86.121C84.974,-88.222 82.69,-90.323 80.405,-92.423C78.129,-94.585 75.87,-96.788 73.615,-98.993C64.712,-108.041 56.087,-117.92 47.863,-128.995C45.86,-131.841 43.796,-134.655 41.801,-137.568C39.883,-140.599 37.815,-143.512 35.928,-146.659C34.991,-148.255 34.056,-149.85 33.119,-151.445C32.657,-152.25 32.194,-153.054 31.731,-153.86C31.273,-154.674 30.85,-155.537 30.402,-156.374C28.61,-159.752 26.786,-163.073 25.185,-166.719C24.393,-168.482 23.601,-170.246 22.808,-172.008C22.051,-173.807 21.323,-175.684 20.592,-177.534C19.875,-179.405 19.129,-181.24 18.472,-183.174C17.827,-185.122 17.197,-187.085 16.582,-189.059C15.293,-192.946 14.348,-197.166 13.358,-201.31C12.842,-203.367 12.498,-205.559 12.114,-207.715C11.742,-209.88 11.39,-212.057 11.062,-214.241C9.987,-223.544 9.446,-233.169 10.146,-243.053C10.338,-245.515 10.457,-247.982 10.8,-250.45C11.122,-252.921 11.478,-255.397 11.867,-257.874C12.219,-260.36 12.743,-262.809 13.29,-265.266C13.833,-267.723 14.409,-270.182 15.018,-272.636C15.023,-272.651 15.025,-272.664 15.029,-272.679C20.194,-291.743 28.931,-310.379 40.088,-326.525C51.247,-342.691 64.79,-356.06 79.154,-366.237C86.347,-371.395 93.684,-375.662 101.108,-379.417C101.572,-379.655 102.038,-379.895 102.504,-380.133L103.881,-380.786C104.801,-381.218 105.722,-381.649 106.643,-382.081C108.494,-382.929 110.344,-383.776 112.197,-384.623C115.867,-386.191 119.537,-387.657 123.235,-389.111C126.872,-390.409 130.534,-391.754 134.204,-392.917C137.823,-393.992 141.482,-395.086 145.107,-396.059C148.696,-396.956 152.32,-397.871 155.912,-398.672C159.468,-399.405 163.052,-400.158 166.619,-400.758C170.311,-401.325 174.032,-401.904 177.719,-402.384C181.374,-402.797 185.052,-403.221 188.701,-403.558C192.317,-403.829 195.952,-404.041 199.568,-404.224C203.15,-404.308 206.732,-404.394 210.314,-404.479C223.273,-404.524 235.962,-403.578 248.41,-402.075C274.544,-398.906 299.507,-392.596 323.456,-384.087C323.464,-384.083 323.473,-384.081 323.482,-384.077C335.437,-379.773 347.238,-374.851 358.838,-369.26C370.443,-363.69 381.765,-357.247 392.858,-350.145C394.244,-349.254 395.635,-348.389 397.011,-347.468C398.388,-346.543 399.742,-345.582 401.105,-344.634C402.462,-343.679 403.818,-342.725 405.176,-341.77C406.53,-340.811 407.866,-339.778 409.207,-338.781C414.576,-334.807 419.85,-330.553 425.051,-326.153C435.439,-317.3 445.316,-307.403 454.746,-296.47C464.152,-285.52 473.044,-273.463 481.064,-259.938C483.043,-256.479 484.996,-253.024 486.885,-249.486C487.802,-247.656 488.718,-245.826 489.634,-243.998C490.083,-243.08 490.533,-242.161 490.982,-241.243C491.205,-240.783 491.428,-240.322 491.649,-239.862C491.864,-239.382 492.078,-238.902 492.292,-238.421C493.133,-236.492 493.972,-234.564 494.814,-232.635L496.044,-229.732C496.446,-228.752 496.827,-227.72 497.21,-226.712C498.71,-222.63 500.207,-218.652 501.476,-214.309C502.115,-212.224 502.735,-210.135 503.339,-208.043C503.936,-205.926 504.423,-203.695 504.933,-201.519C505.425,-199.316 505.937,-197.171 506.357,-194.914C506.766,-192.64 507.154,-190.361 507.518,-188.081C508.329,-183.599 508.683,-178.746 509.073,-174.05C509.288,-171.72 509.327,-169.24 509.4,-166.821C509.461,-164.39 509.495,-161.962 509.502,-159.537C509.502,-159.537 509.492,-159.213 509.473,-158.564C509.456,-157.915 509.417,-156.941 509.347,-155.645C509.269,-154.35 509.172,-152.731 509.055,-150.789C508.985,-149.821 508.909,-148.771 508.827,-147.642C508.738,-146.513 508.57,-145.27 508.42,-143.965C508.101,-141.348 507.71,-138.409 507.219,-135.161C506.659,-131.896 505.921,-128.292 505.006,-124.417C504.581,-122.479 504.004,-120.466 503.393,-118.38C502.786,-116.296 502.133,-114.139 501.43,-111.918C500.764,-109.687 499.874,-107.436 498.999,-105.101C498.11,-102.77 497.163,-100.376 496.155,-97.928C491.845,-88.486 486.981,-80.018 481.577,-72.906C480.263,-71.104 478.881,-69.401 477.553,-67.726C476.189,-66.089 474.817,-64.539 473.431,-63.044C472.053,-61.547 470.69,-60.098 469.345,-58.699C467.964,-57.365 466.583,-56.09 465.234,-54.85C463.885,-53.61 462.556,-52.415 461.232,-51.275C459.905,-50.165 458.584,-49.144 457.298,-48.131C454.719,-46.139 452.261,-44.196 449.871,-42.626C447.493,-41.002 445.226,-39.499 443.077,-38.111C440.924,-36.81 438.865,-35.651 436.968,-34.529C436.016,-33.978 435.093,-33.444 434.201,-32.928C433.31,-32.419 432.444,-32.001 431.613,-31.558C429.963,-30.691 428.431,-29.887 427.016,-29.145C424.175,-27.646 421.888,-26.595 420.017,-25.712C418.148,-24.857 416.794,-24.159 415.87,-23.729C415.411,-23.502 415.069,-23.36 414.841,-23.26C414.613,-23.161 414.499,-23.112 414.499,-23.112C412.117,-22.107 409.788,-21.042 407.45,-20.013C406.283,-19.469 405.113,-19.061 403.969,-18.57C402.822,-18.094 401.676,-17.619 400.531,-17.143C399.384,-16.678 398.238,-16.214 397.092,-15.749C395.964,-15.319 394.836,-14.891 393.707,-14.462C391.455,-13.633 389.181,-12.737 386.944,-12.014C377.962,-8.95 369.105,-6.838 360.411,-4.98L360.382,-4.975C358.05,-4.548 355.719,-4.121 353.387,-3.696C352.224,-3.494 351.06,-3.293 349.897,-3.093C348.746,-2.935 347.595,-2.778 346.445,-2.62C344.147,-2.315 341.844,-2.004 339.556,-1.735C337.285,-1.535 335.021,-1.311 332.762,-1.079C329.792,-0.747 326.88,-0.595 323.961,-0.426C322.503,-0.346 321.045,-0.266 319.587,-0.186C318.134,-0.122 316.7,-0.116 315.257,-0.084C313.819,-0.061 312.381,-0.038 310.941,-0.014C309.901,0.021 308.865,0.043 307.837,0.043C307.442,0.043 307.047,0.04 306.654,0.033ZM181.012,-302.9C171.932,-301.559 162.948,-299.508 154.238,-296.601C145.536,-293.679 137.117,-289.87 129.307,-285.041C121.521,-280.206 114.288,-274.383 108.284,-267.43C102.302,-260.472 97.516,-252.48 94.331,-243.867C94.329,-243.861 94.326,-243.854 94.325,-243.848C91.177,-235.005 89.72,-225.592 89.898,-216.213C90.171,-207.235 91.903,-198.337 94.728,-189.824C97.619,-181.109 101.631,-172.785 106.43,-164.961C111.245,-157.143 116.819,-149.803 122.924,-142.949C135.144,-129.226 149.502,-117.511 164.922,-107.572C180.337,-97.59 196.999,-89.62 214.213,-83.267C214.22,-83.266 214.225,-83.263 214.231,-83.261C222.877,-80.175 231.665,-77.498 240.573,-75.278C249.486,-73.087 258.531,-71.446 267.633,-70.271C277.482,-69.02 287.414,-68.396 297.345,-68.5C305.775,-68.638 314.198,-69.264 322.541,-70.48C324.133,-70.727 325.724,-70.973 327.317,-71.22L332.058,-72.161C332.848,-72.318 333.638,-72.476 334.427,-72.635C335.21,-72.826 335.993,-73.017 336.775,-73.208C338.339,-73.596 339.903,-73.983 341.467,-74.37C341.473,-74.372 341.48,-74.374 341.486,-74.375C347.211,-76.011 352.88,-77.86 358.372,-80.17C363.841,-82.519 369.196,-85.156 374.264,-88.289C374.264,-88.289 374.52,-88.421 374.997,-88.739C375.475,-89.056 376.193,-89.532 377.149,-90.167C378.093,-90.818 379.33,-91.552 380.684,-92.618C382.04,-93.677 383.717,-94.794 385.429,-96.326C386.302,-97.07 387.231,-97.86 388.215,-98.696C389.144,-99.593 390.125,-100.538 391.157,-101.534C392.223,-102.498 393.187,-103.661 394.262,-104.814C394.788,-105.402 395.347,-105.986 395.881,-106.613C396.393,-107.26 396.918,-107.919 397.453,-108.593C401.726,-113.974 406.027,-120.878 409.229,-129.496L429.198,-122.243C432.918,-120.893 436.639,-119.542 440.358,-118.19C442.218,-117.515 444.078,-116.84 445.937,-116.164C447.798,-115.489 449.657,-114.813 451.517,-114.138C455.237,-112.787 458.957,-111.437 462.676,-110.086C464.536,-109.41 466.396,-108.735 468.256,-108.059C470.116,-107.384 471.976,-106.708 473.836,-106.033C475.696,-105.357 477.555,-104.682 479.416,-104.006C481.275,-103.33 483.135,-102.655 484.995,-101.98C486.856,-101.304 488.714,-100.629 490.576,-99.953C490.576,-99.953 492.435,-99.278 496.155,-97.928C492.435,-99.278 490.576,-99.953 490.576,-99.953C488.714,-100.629 486.856,-101.304 484.995,-101.98C483.135,-102.655 481.275,-103.33 479.416,-104.006C477.555,-104.682 475.696,-105.357 473.836,-106.033C471.976,-106.708 470.116,-107.384 468.256,-108.059C466.396,-108.735 464.536,-109.41 462.676,-110.086C458.957,-111.437 455.237,-112.787 451.517,-114.138C449.657,-114.813 447.798,-115.489 445.937,-116.164C444.078,-116.84 442.218,-117.515 440.358,-118.19C436.639,-119.542 432.918,-120.893 429.198,-122.243L409.229,-129.496C409.587,-130.613 409.934,-131.696 410.269,-132.743C410.589,-133.794 410.971,-134.791 411.173,-135.8C411.41,-136.798 411.638,-137.762 411.858,-138.689C412.081,-139.616 412.308,-140.505 412.417,-141.379C412.684,-143.117 412.965,-144.708 413.156,-146.16C413.277,-147.622 413.387,-148.937 413.483,-150.107C413.61,-151.274 413.615,-152.301 413.617,-153.18C413.626,-154.06 413.634,-154.794 413.64,-155.381C413.653,-156.553 413.658,-157.14 413.658,-157.14C413.385,-166.117 411.655,-175.017 408.829,-183.529C405.938,-192.243 401.925,-200.568 397.126,-208.391C392.312,-216.21 386.737,-223.549 380.633,-230.404C368.413,-244.127 354.055,-255.842 338.635,-265.781C323.219,-275.763 306.558,-283.733 289.344,-290.085C289.336,-290.087 289.331,-290.089 289.324,-290.092C272.046,-296.267 254.154,-300.845 235.924,-303.083C227.243,-304.171 218.502,-304.789 209.751,-304.864C209.425,-304.865 209.098,-304.866 208.771,-304.866C199.486,-304.866 190.199,-304.247 181.012,-302.9Z" style="fill-rule:nonzero;"/>
    </g>
    <g transform="matrix(118.828,0,0,-118.828,390.307,201.626)">
        <path d="M0,-0.019C0.071,-0.088 0.126,-0.169 0.159,-0.262C0.179,-0.316 0.191,-0.371 0.195,-0.428C0.325,-0.336 0.695,-0.126 1,-0.452C1,-0.447 0.999,-0.443 0.999,-0.439C0.998,-0.428 0.998,-0.418 0.997,-0.407L0.993,-0.375C0.99,-0.353 0.987,-0.332 0.984,-0.31C0.98,-0.289 0.976,-0.267 0.971,-0.246C0.963,-0.203 0.95,-0.161 0.937,-0.119C0.931,-0.098 0.923,-0.077 0.915,-0.057C0.907,-0.036 0.899,-0.016 0.891,0.004C0.881,0.024 0.872,0.044 0.862,0.063C0.857,0.073 0.853,0.083 0.847,0.092C0.842,0.102 0.836,0.111 0.831,0.12C0.82,0.139 0.808,0.157 0.796,0.175C0.784,0.193 0.771,0.21 0.758,0.228C0.745,0.244 0.732,0.262 0.718,0.277C0.704,0.293 0.69,0.308 0.675,0.324C0.668,0.331 0.661,0.339 0.653,0.346L0.631,0.367C0.615,0.38 0.6,0.395 0.584,0.407C0.565,0.422 0.546,0.437 0.527,0.452C0.13,0.376 0.024,0.077 0,-0.019Z" style="fill:url(#_Linear4);fill-rule:nonzero;"/>
    </g>
    <g transform="matrix(164.306,0,0,-164.306,185.567,446.468)">
        <path d="M0.632,0.324C0.44,0.254 0.249,0.226 0.076,0.235C0.029,0.153 -0.088,-0.102 0.118,-0.372C0.208,-0.374 0.296,-0.369 0.382,-0.358C0.542,-0.339 0.694,-0.3 0.839,-0.248C0.893,-0.229 0.947,-0.207 1,-0.184C0.929,0.014 0.805,0.277 0.757,0.375C0.717,0.357 0.675,0.339 0.632,0.324Z" style="fill:url(#_Linear5);fill-rule:nonzero;"/>
    </g>
    <g transform="matrix(91.0388,0,0,-91.0388,9.84161,295.037)">
        <path d="M0.311,0.534C0.302,0.522 0.294,0.509 0.287,0.496L0.256,0.444L0.24,0.417C0.235,0.408 0.231,0.399 0.226,0.389C0.206,0.352 0.186,0.316 0.169,0.276C0.096,0.119 0.036,-0.059 0.012,-0.26C0.009,-0.285 0.007,-0.31 0.005,-0.335C0.004,-0.348 0.003,-0.361 0.002,-0.374L0.001,-0.412C0,-0.438 0,-0.464 0,-0.491C0,-0.506 0.001,-0.522 0.002,-0.538C0.132,-0.419 0.455,-0.197 0.889,-0.42C0.858,-0.223 0.9,-0.016 1,0.185C0.825,0.487 0.553,0.538 0.387,0.538C0.358,0.538 0.332,0.536 0.311,0.534Z" style="fill:url(#_Linear6);fill-rule:nonzero;"/>
    </g>
    <g transform="matrix(100.433,0,0,-100.433,176.874,148.189)">
        <path d="M0.908,0.424C0.878,0.42 0.849,0.416 0.82,0.412C0.791,0.408 0.762,0.402 0.733,0.397C0.704,0.392 0.675,0.387 0.647,0.38C0.618,0.374 0.59,0.368 0.561,0.362L0.477,0.34C0.365,0.31 0.256,0.274 0.149,0.233C0.099,0.213 0.049,0.192 0,0.17C0.054,0.092 0.176,-0.109 0.255,-0.427C0.293,-0.411 0.332,-0.396 0.372,-0.381C0.584,-0.304 0.797,-0.258 1,-0.241C0.881,0.06 0.909,0.309 0.935,0.427L0.908,0.424Z" style="fill:url(#_Linear7);fill-rule:nonzero;"/>
    </g>
    <g transform="matrix(16.2672,41.5932,41.5932,-16.2672,353.187,28.9644)">
        <path d="M0.508,-0.54C0.909,-0.28 1.136,0.084 1.136,0.084L0.508,0.534C0.195,0.072 -0.141,-0.097 -0.141,-0.097L0.508,-0.54Z" style="fill:url(#_Linear8);fill-rule:nonzero;"/>
    </g>
    <g transform="matrix(-0.975903,-0.218206,-0.218206,0.975903,352.617,54.6434)">
        <path d="M-0.086,-0.737C0.121,-0.737 0.289,-0.569 0.289,-0.363C0.29,-0.156 0.121,0.009 -0.086,0.01C-0.292,0.008 -0.457,-0.155 -0.457,-0.363C-0.457,-0.569 -0.293,-0.738 -0.086,-0.737" style="fill:white;fill-rule:nonzero;"/>
    </g>
    <g transform="matrix(-0.975839,-0.218491,-0.218491,0.975839,352.055,56.8891)">
        <path d="M-0.085,-0.737C0.121,-0.737 0.289,-0.57 0.29,-0.362C0.289,-0.16 0.121,0.009 -0.085,0.009C-0.291,0.009 -0.457,-0.159 -0.456,-0.362C-0.456,-0.569 -0.291,-0.737 -0.085,-0.737" style="fill:white;fill-rule:nonzero;"/>
    </g>
    <g transform="matrix(-0.975903,-0.218206,-0.218206,0.975903,351.637,58.7602)">
        <path d="M-0.085,-0.738C0.121,-0.738 0.29,-0.569 0.289,-0.367C0.289,-0.16 0.121,0.009 -0.085,0.009C-0.291,0.009 -0.457,-0.16 -0.457,-0.366C-0.456,-0.569 -0.291,-0.738 -0.085,-0.738" style="fill:white;fill-rule:nonzero;"/>
    </g>
    <g transform="matrix(-0.976187,-0.21693,-0.21693,0.976187,351.222,60.6303)">
        <path d="M-0.083,-0.737C0.123,-0.737 0.291,-0.572 0.291,-0.366C0.291,-0.159 0.124,0.01 -0.083,0.01C-0.289,0.009 -0.454,-0.158 -0.455,-0.365C-0.455,-0.572 -0.29,-0.737 -0.083,-0.737" style="fill:white;fill-rule:nonzero;"/>
    </g>
    <g transform="matrix(-0.975903,-0.218206,-0.218206,0.975903,350.802,62.4971)">
        <path d="M-0.085,-0.737C0.122,-0.737 0.29,-0.569 0.29,-0.363C0.29,-0.156 0.121,0.01 -0.085,0.01C-0.291,0.009 -0.456,-0.155 -0.456,-0.362C-0.456,-0.568 -0.292,-0.738 -0.085,-0.737" style="fill:white;fill-rule:nonzero;"/>
    </g>
    <g transform="matrix(-0.975903,-0.218206,-0.218206,0.975903,350.384,64.3677)">
        <path d="M-0.085,-0.737C0.122,-0.737 0.29,-0.569 0.29,-0.361C0.29,-0.16 0.122,0.009 -0.085,0.01C-0.291,0.009 -0.456,-0.158 -0.455,-0.362C-0.456,-0.568 -0.291,-0.737 -0.085,-0.737" style="fill:white;fill-rule:nonzero;"/>
    </g>
    <g transform="matrix(-0.975839,-0.218491,-0.218491,0.975839,367.066,60.8134)">
        <path d="M-0.085,-0.737C0.121,-0.737 0.289,-0.57 0.289,-0.363C0.289,-0.155 0.121,0.009 -0.085,0.009C-0.292,0.008 -0.456,-0.156 -0.456,-0.362C-0.457,-0.57 -0.291,-0.737 -0.085,-0.737" style="fill:white;fill-rule:nonzero;"/>
    </g>
    <g transform="matrix(-0.975903,-0.218206,-0.218206,0.975903,366.649,62.6836)">
        <path d="M-0.085,-0.737C0.122,-0.737 0.29,-0.569 0.291,-0.362C0.29,-0.159 0.122,0.01 -0.085,0.01C-0.291,0.009 -0.456,-0.158 -0.455,-0.362C-0.456,-0.569 -0.291,-0.737 -0.085,-0.737" style="fill:white;fill-rule:nonzero;"/>
    </g>
    <g transform="matrix(-0.975903,-0.218206,-0.218206,0.975903,366.23,64.5541)">
        <path d="M-0.086,-0.737C0.121,-0.737 0.29,-0.569 0.289,-0.366C0.289,-0.16 0.122,0.009 -0.086,0.01C-0.292,0.008 -0.457,-0.159 -0.457,-0.365C-0.456,-0.568 -0.292,-0.737 -0.086,-0.737" style="fill:white;fill-rule:nonzero;"/>
    </g>
    <g transform="matrix(-0.975903,-0.218206,-0.218206,0.975903,365.813,66.4248)">
        <path d="M-0.085,-0.737C0.122,-0.737 0.291,-0.573 0.29,-0.366C0.29,-0.16 0.123,0.009 -0.085,0.01C-0.29,0.009 -0.456,-0.158 -0.455,-0.366C-0.456,-0.572 -0.291,-0.737 -0.085,-0.737" style="fill:white;fill-rule:nonzero;"/>
    </g>
    <g transform="matrix(-0.976187,-0.21693,-0.21693,0.976187,365.396,68.2922)">
        <path d="M-0.085,-0.737C0.121,-0.738 0.289,-0.569 0.29,-0.363C0.29,-0.156 0.122,0.008 -0.085,0.009C-0.291,0.009 -0.456,-0.156 -0.456,-0.362C-0.456,-0.569 -0.292,-0.737 -0.085,-0.737" style="fill:white;fill-rule:nonzero;"/>
    </g>
    <g transform="matrix(-0.975839,-0.218491,-0.218491,0.975839,364.977,70.1626)">
        <path d="M-0.084,-0.737C0.122,-0.737 0.29,-0.569 0.29,-0.363C0.29,-0.159 0.122,0.009 -0.084,0.009C-0.291,0.008 -0.456,-0.159 -0.456,-0.363C-0.456,-0.569 -0.291,-0.738 -0.084,-0.737" style="fill:white;fill-rule:nonzero;"/>
    </g>
    <g transform="matrix(-0.975903,-0.218206,-0.218206,0.975903,363.937,61.8496)">
        <path d="M-0.085,-0.737C0.122,-0.737 0.29,-0.57 0.29,-0.363C0.29,-0.16 0.122,0.009 -0.085,0.01C-0.291,0.009 -0.456,-0.158 -0.455,-0.362C-0.456,-0.569 -0.291,-0.737 -0.085,-0.737" style="fill:white;fill-rule:nonzero;"/>
    </g>
    <g transform="matrix(-0.975903,-0.218206,-0.218206,0.975903,363.518,63.7201)">
        <path d="M-0.086,-0.737C0.121,-0.737 0.289,-0.569 0.289,-0.366C0.289,-0.16 0.122,0.009 -0.086,0.01C-0.292,0.008 -0.457,-0.159 -0.456,-0.366C-0.456,-0.569 -0.292,-0.737 -0.086,-0.737" style="fill:white;fill-rule:nonzero;"/>
    </g>
    <g transform="matrix(-0.975839,-0.218491,-0.218491,0.975839,363.101,65.5908)">
        <path d="M-0.084,-0.737C0.122,-0.737 0.291,-0.572 0.29,-0.365C0.29,-0.159 0.122,0.009 -0.084,0.009C-0.291,0.008 -0.456,-0.159 -0.455,-0.366C-0.455,-0.572 -0.29,-0.737 -0.084,-0.737" style="fill:white;fill-rule:nonzero;"/>
    </g>
    <g transform="matrix(-0.976124,-0.217214,-0.217214,0.976124,362.684,67.4582)">
        <path d="M-0.085,-0.737C0.121,-0.738 0.289,-0.569 0.29,-0.363C0.29,-0.156 0.122,0.008 -0.085,0.008C-0.291,0.009 -0.456,-0.156 -0.456,-0.362C-0.456,-0.569 -0.292,-0.737 -0.085,-0.737" style="fill:white;fill-rule:nonzero;"/>
    </g>
    <g transform="matrix(-0.976187,-0.21693,-0.21693,0.976187,362.266,69.3283)">
        <path d="M-0.085,-0.737C0.121,-0.738 0.289,-0.569 0.289,-0.362C0.29,-0.159 0.122,0.009 -0.085,0.009C-0.291,0.009 -0.456,-0.158 -0.456,-0.362C-0.457,-0.568 -0.292,-0.737 -0.085,-0.737" style="fill:white;fill-rule:nonzero;"/>
    </g>
    <g transform="matrix(-0.975903,-0.218206,-0.218206,0.975903,354.538,60.2528)">
        <path d="M-0.086,-0.737C0.121,-0.737 0.29,-0.569 0.289,-0.366C0.289,-0.16 0.122,0.009 -0.086,0.01C-0.291,0.009 -0.457,-0.159 -0.456,-0.366C-0.456,-0.568 -0.292,-0.737 -0.086,-0.737" style="fill:white;fill-rule:nonzero;"/>
    </g>
    <g transform="matrix(-0.976124,-0.217214,-0.217214,0.976124,354.122,62.1239)">
        <path d="M-0.083,-0.737C0.123,-0.737 0.291,-0.573 0.291,-0.366C0.292,-0.16 0.124,0.009 -0.083,0.009C-0.289,0.009 -0.454,-0.158 -0.454,-0.366C-0.455,-0.572 -0.29,-0.737 -0.083,-0.737" style="fill:white;fill-rule:nonzero;"/>
    </g>
    <g transform="matrix(-0.975839,-0.218491,-0.218491,0.975839,353.702,63.9906)">
        <path d="M-0.085,-0.737C0.121,-0.737 0.289,-0.569 0.289,-0.363C0.289,-0.155 0.121,0.009 -0.085,0.009C-0.292,0.008 -0.456,-0.156 -0.457,-0.363C-0.457,-0.57 -0.292,-0.738 -0.085,-0.737" style="fill:white;fill-rule:nonzero;"/>
    </g>
    <g transform="matrix(-0.975903,-0.218206,-0.218206,0.975903,353.285,65.8618)">
        <path d="M-0.084,-0.738C0.122,-0.738 0.29,-0.57 0.291,-0.362C0.29,-0.16 0.122,0.009 -0.084,0.009C-0.291,0.009 -0.456,-0.159 -0.455,-0.363C-0.456,-0.569 -0.29,-0.738 -0.084,-0.738" style="fill:white;fill-rule:nonzero;"/>
    </g>
    <g transform="matrix(-0.975839,-0.218491,-0.218491,0.975839,372.539,66.3153)">
        <path d="M-0.085,-0.737C0.121,-0.737 0.29,-0.568 0.289,-0.366C0.289,-0.16 0.121,0.009 -0.085,0.009C-0.292,0.008 -0.457,-0.16 -0.456,-0.367C-0.456,-0.569 -0.291,-0.737 -0.085,-0.737" style="fill:white;fill-rule:nonzero;"/>
    </g>
    <g transform="matrix(-0.975903,-0.218206,-0.218206,0.975903,372.122,68.1855)">
        <path d="M-0.085,-0.737C0.122,-0.737 0.29,-0.572 0.29,-0.366C0.29,-0.159 0.122,0.01 -0.085,0.01C-0.29,0.009 -0.456,-0.158 -0.456,-0.365C-0.456,-0.572 -0.291,-0.737 -0.085,-0.737" style="fill:white;fill-rule:nonzero;"/>
    </g>
    <g transform="matrix(-0.976187,-0.21693,-0.21693,0.976187,371.704,70.0529)">
        <path d="M-0.085,-0.737C0.121,-0.738 0.289,-0.569 0.29,-0.363C0.29,-0.156 0.122,0.009 -0.085,0.009C-0.291,0.009 -0.456,-0.155 -0.456,-0.362C-0.457,-0.568 -0.292,-0.737 -0.085,-0.737" style="fill:white;fill-rule:nonzero;"/>
    </g>
    <g transform="matrix(-0.975903,-0.218206,-0.218206,0.975903,371.286,71.9233)">
        <path d="M-0.085,-0.737C0.122,-0.737 0.29,-0.569 0.289,-0.362C0.29,-0.16 0.122,0.009 -0.085,0.01C-0.291,0.009 -0.456,-0.158 -0.456,-0.362C-0.456,-0.568 -0.292,-0.738 -0.085,-0.737" style="fill:white;fill-rule:nonzero;"/>
    </g>
    <g transform="matrix(-0.975903,-0.218206,-0.218206,0.975903,357.155,63.4341)">
        <path d="M-0.085,-0.737C0.122,-0.737 0.29,-0.572 0.29,-0.366C0.29,-0.159 0.122,0.01 -0.085,0.01C-0.291,0.009 -0.456,-0.158 -0.456,-0.365C-0.456,-0.572 -0.291,-0.737 -0.085,-0.737" style="fill:white;fill-rule:nonzero;"/>
    </g>
    <g transform="matrix(-0.975903,-0.218206,-0.218206,0.975903,356.736,65.3011)">
        <path d="M-0.087,-0.738C0.12,-0.737 0.289,-0.569 0.289,-0.363C0.289,-0.156 0.121,0.009 -0.087,0.009C-0.292,0.009 -0.458,-0.155 -0.457,-0.362C-0.457,-0.568 -0.293,-0.738 -0.087,-0.738" style="fill:white;fill-rule:nonzero;"/>
    </g>
    <g transform="matrix(-0.976187,-0.21693,-0.21693,0.976187,356.321,67.1722)">
        <path d="M-0.084,-0.737C0.122,-0.738 0.29,-0.569 0.291,-0.363C0.291,-0.16 0.123,0.008 -0.084,0.01C-0.29,0.009 -0.455,-0.158 -0.455,-0.362C-0.456,-0.568 -0.291,-0.737 -0.084,-0.737" style="fill:white;fill-rule:nonzero;"/>
    </g>
    <g transform="matrix(-0.975903,-0.218206,-0.218206,0.975903,359.606,66.5223)">
        <path d="M-0.087,-0.738C0.12,-0.737 0.288,-0.569 0.289,-0.363C0.289,-0.156 0.121,0.009 -0.087,0.009C-0.293,0.008 -0.458,-0.155 -0.457,-0.362C-0.457,-0.568 -0.293,-0.738 -0.087,-0.738" style="fill:white;fill-rule:nonzero;"/>
    </g>
    <g transform="matrix(-0.975903,-0.218206,-0.218206,0.975903,359.189,68.393)">
        <path d="M-0.086,-0.737C0.121,-0.737 0.29,-0.569 0.29,-0.363C0.289,-0.16 0.122,0.009 -0.086,0.01C-0.291,0.009 -0.457,-0.159 -0.456,-0.362C-0.456,-0.569 -0.292,-0.737 -0.086,-0.737" style="fill:white;fill-rule:nonzero;"/>
    </g>
    <g transform="matrix(-0.975903,-0.218206,-0.218206,0.975903,368.411,69.0986)">
        <path d="M-0.084,-0.738C0.122,-0.738 0.29,-0.57 0.29,-0.364C0.29,-0.157 0.122,0.009 -0.084,0.009C-0.291,0.009 -0.455,-0.156 -0.456,-0.363C-0.456,-0.569 -0.291,-0.738 -0.084,-0.738" style="fill:white;fill-rule:nonzero;"/>
    </g>
    <g transform="matrix(-0.975903,-0.218206,-0.218206,0.975903,367.993,70.9683)">
        <path d="M-0.085,-0.737C0.122,-0.737 0.29,-0.569 0.289,-0.362C0.29,-0.159 0.121,0.01 -0.085,0.01C-0.291,0.009 -0.456,-0.158 -0.455,-0.362C-0.456,-0.568 -0.292,-0.738 -0.085,-0.737" style="fill:white;fill-rule:nonzero;"/>
    </g>
    <g transform="matrix(-0.975264,-0.221042,-0.221042,0.975264,347.741,60.8144)">
        <path d="M-0.08,-0.737C0.127,-0.736 0.291,-0.568 0.292,-0.362C0.291,-0.156 0.126,0.01 -0.08,0.01C-0.286,0.009 -0.454,-0.155 -0.455,-0.363C-0.454,-0.569 -0.286,-0.737 -0.08,-0.737" style="fill:white;fill-rule:nonzero;"/>
    </g>
    <g transform="matrix(-0.975264,-0.221042,-0.221042,0.975264,347.32,62.6833)">
        <path d="M-0.078,-0.736C0.129,-0.736 0.293,-0.568 0.294,-0.36C0.293,-0.158 0.129,0.01 -0.078,0.011C-0.285,0.01 -0.453,-0.158 -0.453,-0.36C-0.453,-0.568 -0.285,-0.736 -0.078,-0.736" style="fill:white;fill-rule:nonzero;"/>
    </g>
    <g transform="matrix(-0.979852,-0.199724,-0.199724,0.979852,345.293,57.3339)">
        <path d="M-0.07,-0.737C0.137,-0.738 0.301,-0.573 0.302,-0.366C0.301,-0.159 0.139,0.009 -0.07,0.009C-0.276,0.009 -0.444,-0.158 -0.444,-0.365C-0.445,-0.572 -0.277,-0.736 -0.07,-0.737" style="fill:white;fill-rule:nonzero;"/>
    </g>
    <g transform="matrix(-0.979852,-0.199724,-0.199724,0.979852,345.78,55.6956)">
        <path d="M-0.071,-0.737C0.136,-0.738 0.3,-0.573 0.301,-0.366C0.3,-0.159 0.138,0.008 -0.071,0.009C-0.277,0.009 -0.445,-0.158 -0.445,-0.365C-0.445,-0.572 -0.277,-0.736 -0.071,-0.737" style="fill:white;fill-rule:nonzero;"/>
    </g>
    <g transform="matrix(-0.979589,-0.20101,-0.20101,0.979589,344.905,59.2073)">
        <path d="M-0.073,-0.737C0.134,-0.738 0.299,-0.569 0.298,-0.363C0.299,-0.156 0.134,0.008 -0.073,0.009C-0.279,0.008 -0.448,-0.156 -0.447,-0.363C-0.448,-0.569 -0.279,-0.737 -0.073,-0.737" style="fill:white;fill-rule:nonzero;"/>
    </g>
    <g transform="matrix(-0.979589,-0.20101,-0.20101,0.979589,344.52,61.0848)">
        <path d="M-0.072,-0.737C0.134,-0.738 0.299,-0.569 0.299,-0.362C0.299,-0.159 0.135,0.009 -0.072,0.009C-0.279,0.008 -0.447,-0.159 -0.447,-0.362C-0.447,-0.569 -0.278,-0.737 -0.072,-0.737" style="fill:white;fill-rule:nonzero;"/>
    </g>
    <g transform="matrix(-0.976751,-0.214376,-0.214376,0.976751,343.607,50.0358)">
        <path d="M-0.077,-0.737C0.126,-0.738 0.294,-0.57 0.294,-0.363C0.294,-0.156 0.126,0.008 -0.077,0.009C-0.284,0.009 -0.451,-0.156 -0.451,-0.363C-0.452,-0.569 -0.284,-0.738 -0.077,-0.737" style="fill:white;fill-rule:nonzero;"/>
    </g>
    <g transform="matrix(-0.976751,-0.214376,-0.214376,0.976751,343.195,51.9084)">
        <path d="M-0.077,-0.738C0.126,-0.738 0.294,-0.571 0.294,-0.364C0.295,-0.16 0.126,0.007 -0.077,0.008C-0.284,0.008 -0.452,-0.159 -0.452,-0.363C-0.452,-0.57 -0.284,-0.739 -0.077,-0.738" style="fill:white;fill-rule:nonzero;"/>
    </g>
    <g transform="matrix(-0.976751,-0.214376,-0.214376,0.976751,342.783,53.7794)">
        <path d="M-0.077,-0.737C0.126,-0.738 0.294,-0.57 0.294,-0.366C0.295,-0.159 0.126,0.008 -0.077,0.009C-0.284,0.009 -0.452,-0.159 -0.451,-0.366C-0.452,-0.569 -0.284,-0.738 -0.077,-0.737" style="fill:white;fill-rule:nonzero;"/>
    </g>
    <g transform="matrix(-0.976751,-0.214376,-0.214376,0.976751,342.373,55.6522)">
        <path d="M-0.075,-0.738C0.128,-0.738 0.295,-0.573 0.296,-0.367C0.296,-0.16 0.128,0.009 -0.075,0.008C-0.282,0.008 -0.45,-0.159 -0.45,-0.367C-0.45,-0.573 -0.282,-0.738 -0.075,-0.738" style="fill:white;fill-rule:nonzero;"/>
    </g>
    <g transform="matrix(-0.976751,-0.214376,-0.214376,0.976751,341.96,57.5197)">
        <path d="M-0.077,-0.737C0.126,-0.738 0.294,-0.57 0.294,-0.363C0.294,-0.156 0.126,0.008 -0.077,0.009C-0.284,0.009 -0.451,-0.156 -0.452,-0.362C-0.452,-0.569 -0.284,-0.738 -0.077,-0.737" style="fill:white;fill-rule:nonzero;"/>
    </g>
    <g transform="matrix(-0.976751,-0.214376,-0.214376,0.976751,341.549,59.3924)">
        <path d="M-0.076,-0.738C0.127,-0.738 0.295,-0.57 0.295,-0.363C0.295,-0.16 0.127,0.009 -0.076,0.008C-0.283,0.008 -0.451,-0.159 -0.451,-0.363C-0.451,-0.57 -0.283,-0.739 -0.076,-0.738" style="fill:white;fill-rule:nonzero;"/>
    </g>
    <g transform="matrix(1,0,0,1,356.283,44.6456)">
        <path d="M0,11.727L2.729,13.137L4.283,6.631C4.283,6.631 6.596,6.035 6.614,2.674C6.632,-0.687 1.717,-1.41 0.903,2.475C0.452,5.005 1.428,5.674 1.428,5.674L0,11.727Z" style="fill-rule:nonzero;"/>
    </g>
    <g transform="matrix(1,0,0,1,358.181,54.2985)">
        <path d="M0,-6.943C-0.886,-4.088 0.917,-3.04 0.917,-3.04L-0.434,2.472L0.917,3.125L2.386,-3.022C2.386,-3.022 4.698,-3.618 4.717,-6.979C4.717,-7.014 4.713,-7.046 4.712,-7.08C3.451,-10.068 0.648,-8.721 0,-6.943" style="fill:white;fill-rule:nonzero;"/>
    </g>
    <g transform="matrix(-8.24351,32.4891,32.4891,8.24351,387.698,35.8728)">
        <path d="M0.19,-0.076L1.219,-0.076L1.074,0.068L0.056,0.076L0.19,-0.076Z" style="fill:url(#_Linear9);fill-rule:nonzero;"/>
    </g>
    <g transform="matrix(-7.21251,8.99222,8.99222,7.21251,378.033,19.3482)">
        <path d="M2.052,-1.82C2.052,-1.82 2.134,-0.364 1.189,1.578L0.65,1.82C0.65,1.82 0.819,0.945 1.097,0.005C1.375,-0.936 1.582,-1.388 1.582,-1.388L2.052,-1.82Z" style="fill:url(#_Linear10);fill-rule:nonzero;"/>
    </g>
    <g transform="matrix(1,0,0,1,354.072,5.3279)">
        <path d="M0,22.075C0,22.075 2.205,-9.986 22.282,-2.312C34.896,3.47 29.01,18.396 25.12,32.061" style="fill:none;fill-rule:nonzero;stroke:rgb(255,0,0);stroke-width:0.04px;"/>
    </g>
    <g transform="matrix(1,0,0,-1,0,-469.026)">
        <path d="M372.298,-469.026C372.298,-469.026 372.096,-469.039 371.689,-469.065C371.283,-469.103 370.676,-469.104 369.863,-469.272C368.266,-469.536 365.737,-470.251 363.137,-472.213C360.535,-474.159 358.132,-477.287 356.339,-481.226C355.444,-483.2 354.651,-485.375 354.018,-487.746C353.696,-488.931 353.408,-490.164 353.158,-491.449C352.91,-492.759 352.697,-494.018 352.54,-495.549C352.707,-495.564 352.79,-495.571 352.79,-495.571C352.873,-495.578 352.956,-495.585 353.04,-495.593L353.289,-495.615C353.373,-495.622 353.456,-495.63 353.539,-495.637C353.622,-495.644 353.706,-495.651 353.789,-495.658L354.038,-495.68C354.205,-495.695 354.371,-495.71 354.538,-495.724C354.716,-495.739 354.893,-495.755 355.072,-495.771L355.338,-495.794L355.604,-495.818L355.871,-495.841C355.96,-495.848 356.049,-495.856 356.138,-495.863L356.404,-495.887L356.671,-495.91C356.76,-495.918 356.85,-495.927 356.938,-495.935C357.027,-495.942 357.116,-495.95 357.206,-495.957L357.472,-495.981L357.738,-496.004L358.005,-496.027L358.271,-496.051C358.36,-496.059 358.449,-496.067 358.538,-496.074L358.805,-496.098C358.915,-495.014 359.116,-493.758 359.331,-492.647C359.551,-491.512 359.806,-490.425 360.088,-489.39C360.641,-487.315 361.323,-485.466 362.055,-483.849C363.532,-480.611 365.32,-478.427 366.937,-477.224C368.562,-476.014 369.969,-475.634 370.936,-475.469C371.411,-475.357 371.797,-475.371 372.044,-475.344C372.294,-475.324 372.418,-475.313 372.418,-475.313L373.551,-475.35C373.558,-475.35 373.562,-475.351 373.568,-475.351C375.998,-475.545 378.335,-476.524 380.062,-478.122L380.074,-478.132C381.051,-479.119 381.844,-480.177 382.334,-481.405C382.777,-482.658 382.981,-484.064 382.983,-485.575C382.983,-485.575 382.958,-485.964 382.906,-486.744C382.901,-487.127 382.814,-487.633 382.729,-488.236C382.664,-488.834 382.501,-489.554 382.33,-490.374C381.956,-492.021 381.388,-494.101 380.529,-496.647C379.687,-499.194 378.588,-502.188 377.423,-505.745C377.593,-505.8 377.678,-505.827 377.678,-505.827C377.762,-505.855 377.848,-505.882 377.932,-505.909C378.018,-505.937 378.103,-505.965 378.186,-505.993C378.272,-506.02 378.356,-506.047 378.441,-506.075C378.526,-506.103 378.611,-506.13 378.697,-506.158C378.781,-506.185 378.866,-506.213 378.951,-506.241C379.036,-506.268 379.12,-506.295 379.205,-506.322C379.29,-506.35 379.375,-506.378 379.46,-506.405C379.545,-506.433 379.63,-506.46 379.715,-506.488C379.8,-506.516 379.885,-506.543 379.97,-506.571C380.055,-506.598 380.138,-506.626 380.224,-506.653C380.309,-506.681 380.393,-506.708 380.479,-506.736C380.563,-506.763 380.649,-506.79 380.733,-506.818C380.819,-506.846 380.903,-506.873 380.988,-506.901C381.157,-506.956 381.327,-507.011 381.497,-507.066C381.656,-507.118 381.815,-507.169 381.973,-507.221C382.054,-507.247 382.133,-507.272 382.213,-507.298C382.292,-507.324 382.371,-507.349 382.451,-507.375C382.531,-507.401 382.611,-507.427 382.689,-507.453C382.768,-507.479 382.848,-507.504 382.927,-507.53C383.008,-507.555 383.087,-507.582 383.166,-507.608C383.166,-507.608 383.246,-507.634 383.405,-507.685C384.513,-504.297 385.618,-501.286 386.497,-498.628C387.391,-495.98 388.036,-493.65 388.47,-491.736C388.673,-490.768 388.858,-489.926 388.948,-489.16C389.056,-488.406 389.156,-487.785 389.173,-487.253C389.238,-486.209 389.271,-485.687 389.271,-485.687C389.28,-483.562 389.001,-481.325 388.204,-479.15C387.356,-476.974 385.948,-475.072 384.335,-473.509C384.329,-473.503 384.323,-473.498 384.317,-473.492C381.494,-470.888 377.806,-469.381 374.083,-469.084C374.074,-469.083 374.066,-469.082 374.059,-469.081C373.472,-469.063 372.884,-469.044 372.298,-469.026Z" style="fill-rule:nonzero;"/>
    </g>
    <g transform="matrix(8.03793,2.10359,2.10359,-8.03793,377.438,36.9292)">
        <path d="M-0.01,0.008C-0.011,-0.077 0.148,-0.148 0.367,-0.151C0.587,-0.155 0.749,-0.096 0.751,-0.011C0.752,0.074 0.592,0.152 0.372,0.156C0.289,0.157 0.214,0.148 0.153,0.132C0.053,0.106 -0.009,0.061 -0.01,0.008Z" style="fill:url(#_Linear11);fill-rule:nonzero;"/>
    </g>
    <g transform="matrix(-7.66888,-1.04704,-1.04704,7.66888,358.339,27.2163)">
        <path d="M0.758,-0.018C0.761,0.073 0.591,0.148 0.356,0.158C0.12,0.167 -0.053,0.129 -0.059,0.001C-0.065,-0.136 0.107,-0.162 0.342,-0.172C0.4,-0.174 0.455,-0.172 0.504,-0.165C0.654,-0.144 0.755,-0.086 0.758,-0.018Z" style="fill:url(#_Linear12);fill-rule:nonzero;"/>
    </g>
    <g transform="matrix(313.484,-241.488,-241.488,-313.484,82.2392,350.764)">
        <path d="M0.794,0.103L0.453,0.149C0.427,0.152 0.401,0.142 0.384,0.121L0.242,-0.064C0.232,-0.077 0.24,-0.095 0.256,-0.098L0.58,-0.147C0.611,-0.152 0.641,-0.139 0.66,-0.115L0.806,0.074C0.812,0.083 0.81,0.094 0.803,0.1C0.8,0.102 0.797,0.103 0.794,0.103Z" style="fill:url(#_Linear13);fill-rule:nonzero;"/>
    </g>
    <g transform="matrix(0.388591,-0.92141,-0.92141,-0.388591,225.551,231.943)">
        <path d="M-5.945,-3.857C-11.849,-3.497 -16.848,0.32 -17.044,2.447C-17.518,7.582 -11.85,8.885 -5.945,8.527C-0.042,8.166 5.199,4.527 4.974,0.81C4.747,-2.907 -0.042,-4.216 -5.945,-3.857" style="fill:white;fill-rule:nonzero;"/>
    </g>
    <g transform="matrix(0.388552,-0.921427,-0.921427,-0.388552,254.728,215.669)">
        <path d="M-5.945,-3.857C-11.848,-3.497 -16.849,0.32 -17.044,2.447C-17.518,7.582 -11.849,8.885 -5.945,8.525C-0.041,8.166 5.2,4.526 4.974,0.809C4.747,-2.908 -0.041,-4.216 -5.945,-3.857" style="fill:white;fill-rule:nonzero;"/>
    </g>
    <g transform="matrix(0.388523,-0.921439,-0.921439,-0.388523,284.484,199.009)">
        <path d="M-5.945,-3.857C-11.849,-3.497 -16.849,0.32 -17.044,2.447C-17.517,7.583 -11.849,8.886 -5.945,8.526C-0.042,8.166 5.2,4.526 4.974,0.809C4.747,-2.908 -0.042,-4.216 -5.945,-3.857" style="fill:white;fill-rule:nonzero;"/>
    </g>
    <g transform="matrix(35159.1,0,0,-35159.1,-33806.2,305.634)">
        <path d="M0.973,0.005L0.976,0.002L0.976,-0.002L0.971,-0.005L0.964,-0.005C0.964,-0.005 0.963,-0.005 0.963,-0.004L0.962,-0.001L0.962,-0.002C0.962,-0.002 0.962,-0.004 0.963,-0.005L0.965,-0.005L0.971,-0.005L0.976,-0.002L0.976,0.002C0.976,0.003 0.976,0.003 0.975,0.004L0.973,0.005Z" style="fill:url(#_Linear14);fill-rule:nonzero;"/>
    </g>
    <g transform="matrix(-1,0,0,1,311.248,319.424)">
        <path d="M0,-19.107C0,-19.107 -1.35,-13.077 -9.09,-9.567C-9.09,-9.567 -1.62,-5.732 0,0C1.62,-5.732 9.09,-9.567 9.09,-9.567C1.351,-13.077 0,-19.107 0,-19.107" style="fill:rgb(168,147,107);fill-rule:nonzero;"/>
    </g>
    <g transform="matrix(1,0,0,1,311.248,304.909)">
        <path d="M0,10.081C-1.517,7.953 -3.518,6.246 -5.162,5.061C-2.713,3.438 -1.078,1.603 0,0C1.078,1.603 2.713,3.438 5.162,5.061C3.518,6.246 1.517,7.953 0,10.081" style="fill:rgb(205,179,130);fill-rule:nonzero;"/>
    </g>
    <g transform="matrix(-1,0,0,1,351.794,252.432)">
        <path d="M0.001,-14.534C0.001,-14.534 -1.026,-9.947 -6.914,-7.277C-6.914,-7.277 -1.231,-4.36 0.001,0C1.232,-4.36 6.915,-7.277 6.915,-7.277C1.027,-9.947 0.001,-14.534 0.001,-14.534" style="fill:rgb(168,147,107);fill-rule:nonzero;"/>
    </g>
    <g transform="matrix(1,0,0,1,351.793,241.391)">
        <path d="M0,7.668C-1.153,6.049 -2.675,4.751 -3.926,3.849C-2.063,2.615 -0.819,1.219 0,0C0.82,1.219 2.064,2.615 3.927,3.849C2.676,4.751 1.154,6.049 0,7.668" style="fill:rgb(205,179,130);fill-rule:nonzero;"/>
    </g>
    <g transform="matrix(-1,0,0,1,229.01,49.552)">
        <path d="M0.001,-16.09C0.001,-16.09 -1.136,-11.012 -7.654,-8.057C-7.654,-8.057 -1.363,-4.827 0.001,0C1.365,-4.827 7.655,-8.057 7.655,-8.057C1.138,-11.012 0.001,-16.09 0.001,-16.09" style="fill:rgb(168,147,107);fill-rule:nonzero;"/>
    </g>
    <g transform="matrix(1,0,0,1,229.009,37.3284)">
        <path d="M0,8.489C-1.276,6.697 -2.962,5.26 -4.347,4.262C-2.284,2.895 -0.907,1.35 0,0C0.908,1.35 2.285,2.895 4.348,4.262C2.962,5.26 1.277,6.697 0,8.489" style="fill:rgb(205,179,130);fill-rule:nonzero;"/>
    </g>
    <g transform="matrix(-28.875,3.875,3.875,28.875,151.19,80.8196)">
        <path d="M-0.075,-0.699C-0.068,-0.699 -0.062,-0.699 -0.055,-0.698C-0.013,-0.695 0.028,-0.684 0.069,-0.666C0.097,-0.653 0.124,-0.637 0.15,-0.617C0.188,-0.588 0.222,-0.553 0.252,-0.514C0.275,-0.483 0.296,-0.451 0.314,-0.416C0.356,-0.333 0.385,-0.237 0.398,-0.138C0.406,-0.079 0.408,-0.018 0.405,0.042C0.402,0.101 0.394,0.161 0.38,0.218C0.371,0.255 0.36,0.291 0.346,0.326C0.337,0.349 0.328,0.372 0.317,0.393C0.221,0.589 0.063,0.698 -0.097,0.696L-0.211,0.694C-0.05,0.696 0.107,0.587 0.203,0.392C0.214,0.37 0.224,0.348 0.233,0.324C0.246,0.289 0.257,0.253 0.266,0.217C0.28,0.159 0.289,0.1 0.292,0.04C0.295,-0.02 0.292,-0.08 0.284,-0.139C0.271,-0.239 0.242,-0.334 0.2,-0.417C0.182,-0.452 0.162,-0.485 0.139,-0.515C0.109,-0.555 0.074,-0.59 0.036,-0.619C0.01,-0.639 -0.017,-0.655 -0.045,-0.668C-0.085,-0.686 -0.127,-0.697 -0.169,-0.7C-0.175,-0.7 -0.182,-0.701 -0.189,-0.701L-0.075,-0.699Z" style="fill:url(#_Linear15);fill-rule:nonzero;"/>
    </g>
    <g transform="matrix(-0.96173,0.273997,0.273997,0.96173,152.443,100.054)">
        <path d="M0.351,-2.506C-0.626,-1.282 -1.733,-0.282 -2.932,0.474L0.351,0.049C1.549,-0.706 2.657,-1.708 3.633,-2.932L0.351,-2.506" style="fill-rule:nonzero;"/>
    </g>
    <g transform="matrix(1,0,0,1,146.134,96.4963)">
        <path d="M0,-4.694C0.227,-4.311 0.46,-3.942 0.699,-3.584C1.481,-2.417 2.334,-1.384 3.236,-0.49L-0.038,0C-0.94,-0.894 -1.792,-1.927 -2.574,-3.093C-2.814,-3.451 -3.048,-3.821 -3.273,-4.204L0,-4.694" style="fill-rule:nonzero;"/>
    </g>
    <g transform="matrix(-0.968316,-0.249728,-0.249728,0.968316,140.692,89.164)">
        <path d="M-0.778,-6.144C-1.614,-4.4 -2.634,-2.73 -3.826,-1.193L-0.778,0.099C0.413,-1.438 1.433,-3.109 2.269,-4.852L-0.778,-6.144" style="fill-rule:nonzero;"/>
    </g>
    <g transform="matrix(-0.876267,-0.481825,-0.481825,0.876267,137.845,79.5107)">
        <path d="M-1.835,-6.598C-2.522,-4.885 -3.409,-3.206 -4.467,-1.613L-1.835,0.394C-0.776,-1.199 0.11,-2.879 0.798,-4.591L-1.835,-6.598" style="fill-rule:nonzero;"/>
    </g>
    <g transform="matrix(-0.722539,-0.69133,-0.69133,0.722539,138.759,69.6254)">
        <path d="M-2.558,-6.375C-3.004,-4.755 -3.693,-3.144 -4.585,-1.591L-2.558,1.027C-1.667,-0.527 -0.978,-2.138 -0.532,-3.758L-2.558,-6.375" style="fill-rule:nonzero;"/>
    </g>
    <g transform="matrix(1,0,0,1,149.945,64.9809)">
        <path d="M0,-3.642C-0.766,-3.167 -1.503,-2.584 -2.202,-1.891C-2.642,-1.455 -3.055,-0.987 -3.44,-0.49L-6.715,0C-6.328,-0.497 -5.916,-0.965 -5.477,-1.4C-4.776,-2.095 -4.039,-2.678 -3.274,-3.152L0,-3.642" style="fill-rule:nonzero;"/>
    </g>
    <g transform="matrix(-61.875,10.625,10.625,61.875,177.076,78.7364)">
        <path d="M0.418,-0.325C0.532,-0.245 0.58,-0.051 0.525,0.109C0.522,0.12 0.518,0.131 0.513,0.141C0.452,0.277 0.326,0.329 0.22,0.254C0.106,0.174 0.059,-0.02 0.113,-0.18C0.117,-0.191 0.121,-0.201 0.126,-0.211C0.163,-0.294 0.223,-0.345 0.289,-0.356C0.331,-0.364 0.376,-0.354 0.418,-0.325Z" style="fill:url(#_Linear16);fill-rule:nonzero;"/>
    </g>
    <g transform="matrix(1,0,0,1,150.963,91.5144)">
        <path d="M0,-22.82C-4.231,-19.148 -5.154,-11.067 -2.063,-4.764C1.028,1.536 6.963,3.67 11.193,-0.002C15.422,-3.672 16.346,-11.757 13.255,-18.058C10.163,-24.361 4.229,-26.49 0,-22.82M0.277,-7.942L1.604,-19.55L10.124,-16.487L4.322,-14.008L0.277,-7.942M9.588,-3.274L0.7,-6.465L4.917,-12.796L10.971,-15.379L9.588,-3.274" style="fill-rule:nonzero;"/>
    </g>
    <g transform="matrix(-0.554366,0.832273,0.832273,0.554366,160.195,83.3472)">
        <path d="M-1.46,-6.157L6.147,-6.157L3.876,3.009L-6.966,-2.551L-1.46,-6.157Z" style="fill:white;fill-rule:nonzero;"/>
    </g>
    <g transform="matrix(-0.113493,0.993539,0.993539,0.113493,162.339,74.8524)">
        <path d="M-1.761,-10.037L9.923,-10.037L3.437,-6.707L0.315,-1.223L-1.761,-10.037Z" style="fill:white;fill-rule:nonzero;"/>
    </g>
    <g transform="matrix(-12.7201,25.5892,25.5892,12.7201,273.902,466.966)">
        <path d="M0.487,-0.545C0.605,-0.513 0.925,-0.201 0.925,-0.201L0.487,0.569C0.458,0.391 0.079,0.151 0.079,0.151L0.487,-0.545Z" style="fill:url(#_Linear17);fill-rule:nonzero;"/>
    </g>
    <g transform="matrix(1,0,0,1,188.276,118.011)">
        <path d="M0,76.675L117.876,8.636C118.838,8.081 119.848,7.787 120.848,7.7L107,-1.772C104.422,-3.535 101.062,-3.663 98.356,-2.102L-16.371,64.119C-19.041,65.661 -21.417,67.573 -23.475,69.755L-5.014,80.338C-3.491,78.96 -1.819,77.725 0,76.675" style="fill:rgb(80,80,80);fill-rule:nonzero;"/>
    </g>
    <g transform="matrix(-51.1223,95.5476,95.5476,51.1223,198.883,198.524)">
        <path d="M0.273,-0.3L1.024,0.102C1.043,0.112 1.055,0.13 1.057,0.151L1.077,0.352L1.077,0.352C1.075,0.327 1.062,0.303 1.037,0.29L0.286,-0.112C0.218,-0.148 0.138,-0.153 0.067,-0.128L0.061,-0.324C0.131,-0.343 0.207,-0.335 0.273,-0.3Z" style="fill:url(#_Linear18);fill-rule:nonzero;"/>
    </g>
    <g transform="matrix(0,13.9857,13.9857,0,206.123,312.028)">
        <path d="M-0.205,-0.5L1.307,-0.5L1.772,0.5L-0.772,0.5L-0.205,-0.5Z" style="fill:url(#_Linear19);fill-rule:nonzero;"/>
    </g>
    <g transform="matrix(26.0457,-60.5678,-60.5678,-26.0457,205.004,342.576)">
        <path d="M0.129,-0.078L0.975,-0.135L0.625,0.135L0.129,-0.078Z" style="fill:url(#_Linear20);fill-rule:nonzero;"/>
    </g>
    <g transform="matrix(1,0,0,1,51.5146,136.598)">
        <path d="M0,101.496L42.688,35.524C42.688,35.524 99.406,1.194 123.884,0" style="fill:none;fill-rule:nonzero;stroke:url(#_Linear21);stroke-width:7px;"/>
    </g>
    <g transform="matrix(1,0,0,-1,0,103.204)">
        <path d="M306.654,0.033C303.817,0.001 300.98,-0.031 298.141,-0.063C294.842,-0.226 291.542,-0.389 288.243,-0.552C284.968,-0.759 281.718,-1.024 278.46,-1.277C271.985,-1.888 265.565,-2.683 259.229,-3.638C256.28,-4.032 253.382,-4.563 250.483,-5.092C247.581,-5.614 244.678,-6.129 241.826,-6.781C238.964,-7.406 236.085,-7.981 233.252,-8.674C230.427,-9.387 227.602,-10.101 224.777,-10.814C213.553,-13.855 202.569,-17.463 191.831,-21.571C191.823,-21.574 191.815,-21.577 191.808,-21.58C170.404,-30.02 149.833,-40.68 130.214,-53.571C120.389,-59.999 110.751,-66.902 101.288,-74.388L94.243,-80.139C91.909,-82.121 89.576,-84.103 87.26,-86.121C84.974,-88.222 82.69,-90.323 80.405,-92.423C78.129,-94.585 75.87,-96.788 73.615,-98.993C64.712,-108.041 56.087,-117.92 47.863,-128.995C45.86,-131.841 43.796,-134.655 41.801,-137.568C39.883,-140.599 37.815,-143.512 35.928,-146.659C34.991,-148.255 34.056,-149.85 33.119,-151.445C32.657,-152.25 32.194,-153.054 31.731,-153.86C31.273,-154.674 30.85,-155.537 30.402,-156.374C28.61,-159.752 26.786,-163.073 25.185,-166.719C24.393,-168.482 23.601,-170.246 22.808,-172.008C22.051,-173.807 21.323,-175.684 20.592,-177.534C19.875,-179.405 19.129,-181.24 18.472,-183.174C17.827,-185.122 17.197,-187.085 16.582,-189.059C15.293,-192.946 14.348,-197.166 13.358,-201.31C12.842,-203.367 12.498,-205.559 12.114,-207.715C11.742,-209.88 11.39,-212.057 11.062,-214.241C9.987,-223.544 9.446,-233.169 10.146,-243.053C10.338,-245.515 10.457,-247.982 10.8,-250.45C11.122,-252.921 11.478,-255.397 11.867,-257.874C12.219,-260.36 12.743,-262.809 13.29,-265.266C13.833,-267.723 14.409,-270.182 15.018,-272.636C15.023,-272.651 15.025,-272.664 15.029,-272.679C20.194,-291.743 28.931,-310.379 40.088,-326.525C51.247,-342.691 64.79,-356.06 79.154,-366.237C86.347,-371.395 93.684,-375.662 101.108,-379.417C101.572,-379.655 102.038,-379.895 102.504,-380.133L103.881,-380.786C104.801,-381.218 105.722,-381.649 106.643,-382.081C108.494,-382.929 110.344,-383.776 112.197,-384.623C115.867,-386.191 119.537,-387.657 123.235,-389.111C126.872,-390.409 130.534,-391.754 134.204,-392.917C137.823,-393.992 141.482,-395.086 145.107,-396.059C148.696,-396.956 152.32,-397.871 155.912,-398.672C159.468,-399.405 163.052,-400.158 166.619,-400.758C170.311,-401.325 174.032,-401.904 177.719,-402.384C181.374,-402.797 185.052,-403.221 188.701,-403.558C192.317,-403.829 195.952,-404.041 199.568,-404.224C203.15,-404.308 206.732,-404.394 210.314,-404.479C223.273,-404.524 235.962,-403.578 248.41,-402.075C274.544,-398.906 299.507,-392.596 323.456,-384.087C323.464,-384.083 323.473,-384.081 323.482,-384.077C335.437,-379.773 347.238,-374.851 358.838,-369.26C370.443,-363.69 381.765,-357.247 392.858,-350.145C394.244,-349.254 395.635,-348.389 397.011,-347.468C398.388,-346.543 399.742,-345.582 401.105,-344.634C402.462,-343.679 403.818,-342.725 405.176,-341.77C406.53,-340.811 407.866,-339.778 409.207,-338.781C414.576,-334.807 419.85,-330.553 425.051,-326.153C435.439,-317.3 445.316,-307.403 454.746,-296.47C464.152,-285.52 473.044,-273.463 481.064,-259.938C483.043,-256.479 484.996,-253.024 486.885,-249.486C487.802,-247.656 488.718,-245.826 489.634,-243.998C490.083,-243.08 490.533,-242.161 490.982,-241.243C491.205,-240.783 491.428,-240.322 491.649,-239.862C491.864,-239.382 492.078,-238.902 492.292,-238.421C493.133,-236.492 493.972,-234.564 494.814,-232.635L496.044,-229.732C496.446,-228.752 496.827,-227.72 497.21,-226.712C498.71,-222.63 500.207,-218.652 501.476,-214.309C502.115,-212.224 502.735,-210.135 503.339,-208.043C503.936,-205.926 504.423,-203.695 504.933,-201.519C505.425,-199.316 505.937,-197.171 506.357,-194.914C506.766,-192.64 507.154,-190.361 507.518,-188.081C508.329,-183.599 508.683,-178.746 509.073,-174.05C509.288,-171.72 509.327,-169.24 509.4,-166.821C509.461,-164.39 509.495,-161.962 509.502,-159.537C509.502,-159.537 509.492,-159.213 509.473,-158.564C509.456,-157.915 509.417,-156.941 509.347,-155.645C509.269,-154.35 509.172,-152.731 509.055,-150.789C508.985,-149.821 508.909,-148.771 508.827,-147.642C508.738,-146.513 508.57,-145.27 508.42,-143.965C508.101,-141.348 507.71,-138.409 507.219,-135.161C506.659,-131.896 505.921,-128.292 505.006,-124.417C504.581,-122.479 504.004,-120.466 503.393,-118.38C502.786,-116.296 502.133,-114.139 501.43,-111.918C500.764,-109.687 499.874,-107.436 498.999,-105.101C498.11,-102.77 497.163,-100.376 496.155,-97.928C491.845,-88.486 486.981,-80.018 481.577,-72.906C480.263,-71.104 478.881,-69.401 477.553,-67.726C476.189,-66.089 474.817,-64.539 473.431,-63.044C472.053,-61.547 470.69,-60.098 469.345,-58.699C467.964,-57.365 466.583,-56.09 465.234,-54.85C463.885,-53.61 462.556,-52.415 461.232,-51.275C459.905,-50.165 458.584,-49.144 457.298,-48.131C454.719,-46.139 452.261,-44.196 449.871,-42.626C447.493,-41.002 445.226,-39.499 443.077,-38.111C440.924,-36.81 438.865,-35.651 436.968,-34.529C436.016,-33.978 435.093,-33.444 434.201,-32.928C433.31,-32.419 432.444,-32.001 431.613,-31.558C429.963,-30.691 428.431,-29.887 427.016,-29.145C424.175,-27.646 421.888,-26.595 420.017,-25.712C418.148,-24.857 416.794,-24.159 415.87,-23.729C415.411,-23.502 415.069,-23.36 414.841,-23.26C414.613,-23.161 414.499,-23.112 414.499,-23.112C412.117,-22.107 409.788,-21.042 407.45,-20.013C406.283,-19.469 405.113,-19.061 403.969,-18.57C402.822,-18.094 401.676,-17.619 400.531,-17.143C399.384,-16.678 398.238,-16.214 397.092,-15.749C395.964,-15.319 394.836,-14.891 393.707,-14.462C391.455,-13.633 389.181,-12.737 386.944,-12.014C377.962,-8.95 369.105,-6.838 360.411,-4.98L360.382,-4.975C358.05,-4.548 355.719,-4.121 353.387,-3.696C352.224,-3.494 351.06,-3.293 349.897,-3.093C348.746,-2.935 347.595,-2.778 346.445,-2.62C344.147,-2.315 341.844,-2.004 339.556,-1.735C337.285,-1.535 335.021,-1.311 332.762,-1.079C329.792,-0.747 326.88,-0.595 323.961,-0.426C322.503,-0.346 321.045,-0.266 319.587,-0.186C318.134,-0.122 316.7,-0.116 315.257,-0.084C313.819,-0.061 312.381,-0.038 310.941,-0.014C309.901,0.021 308.865,0.043 307.837,0.043C307.442,0.043 307.047,0.04 306.654,0.033ZM181.012,-302.9C171.932,-301.559 162.948,-299.508 154.238,-296.601C145.536,-293.679 137.117,-289.87 129.307,-285.041C121.521,-280.206 114.288,-274.383 108.284,-267.43C102.302,-260.472 97.516,-252.48 94.331,-243.867C94.329,-243.861 94.326,-243.854 94.325,-243.848C91.177,-235.005 89.72,-225.592 89.898,-216.213C90.171,-207.235 91.903,-198.337 94.728,-189.824C97.619,-181.109 101.631,-172.785 106.43,-164.961C111.245,-157.143 116.819,-149.803 122.924,-142.949C135.144,-129.226 149.502,-117.511 164.922,-107.572C180.337,-97.59 196.999,-89.62 214.213,-83.267C214.22,-83.266 214.225,-83.263 214.231,-83.261C222.877,-80.175 231.665,-77.498 240.573,-75.278C249.486,-73.087 258.531,-71.446 267.633,-70.271C277.482,-69.02 287.414,-68.396 297.345,-68.5C305.775,-68.638 314.198,-69.264 322.541,-70.48C324.133,-70.727 325.724,-70.973 327.317,-71.22L332.058,-72.161C332.848,-72.318 333.638,-72.476 334.427,-72.635C335.21,-72.826 335.993,-73.017 336.775,-73.208C338.339,-73.596 339.903,-73.983 341.467,-74.37C341.473,-74.372 341.48,-74.374 341.486,-74.375C347.211,-76.011 352.88,-77.86 358.372,-80.17C363.841,-82.519 369.196,-85.156 374.264,-88.289C374.264,-88.289 374.52,-88.421 374.997,-88.739C375.475,-89.056 376.193,-89.532 377.149,-90.167C378.093,-90.818 379.33,-91.552 380.684,-92.618C382.04,-93.677 383.717,-94.794 385.429,-96.326C386.302,-97.07 387.231,-97.86 388.215,-98.696C389.144,-99.593 390.125,-100.538 391.157,-101.534C392.223,-102.498 393.187,-103.661 394.262,-104.814C394.788,-105.402 395.347,-105.986 395.881,-106.613C396.393,-107.26 396.918,-107.919 397.453,-108.593C401.726,-113.974 406.027,-120.878 409.229,-129.496L429.198,-122.243C432.918,-120.893 436.639,-119.542 440.358,-118.19C442.218,-117.515 444.078,-116.84 445.937,-116.164C447.798,-115.489 449.657,-114.813 451.517,-114.138C455.237,-112.787 458.957,-111.437 462.676,-110.086C464.536,-109.41 466.396,-108.735 468.256,-108.059C470.116,-107.384 471.976,-106.708 473.836,-106.033C475.696,-105.357 477.555,-104.682 479.416,-104.006C481.275,-103.33 483.135,-102.655 484.995,-101.98C486.856,-101.304 488.714,-100.629 490.576,-99.953C490.576,-99.953 492.435,-99.278 496.155,-97.928C492.435,-99.278 490.576,-99.953 490.576,-99.953C488.714,-100.629 486.856,-101.304 484.995,-101.98C483.135,-102.655 481.275,-103.33 479.416,-104.006C477.555,-104.682 475.696,-105.357 473.836,-106.033C471.976,-106.708 470.116,-107.384 468.256,-108.059C466.396,-108.735 464.536,-109.41 462.676,-110.086C458.957,-111.437 455.237,-112.787 451.517,-114.138C449.657,-114.813 447.798,-115.489 445.937,-116.164C444.078,-116.84 442.218,-117.515 440.358,-118.19C436.639,-119.542 432.918,-120.893 429.198,-122.243L409.229,-129.496C409.587,-130.613 409.934,-131.696 410.269,-132.743C410.589,-133.794 410.971,-134.791 411.173,-135.8C411.41,-136.798 411.638,-137.762 411.858,-138.689C412.081,-139.616 412.308,-140.505 412.417,-141.379C412.684,-143.117 412.965,-144.708 413.156,-146.16C413.277,-147.622 413.387,-148.937 413.483,-150.107C413.61,-151.274 413.615,-152.301 413.617,-153.18C413.626,-154.06 413.634,-154.794 413.64,-155.381C413.653,-156.553 413.658,-157.14 413.658,-157.14C413.385,-166.117 411.655,-175.017 408.829,-183.529C405.938,-192.243 401.925,-200.568 397.126,-208.391C392.312,-216.21 386.737,-223.549 380.633,-230.404C368.413,-244.127 354.055,-255.842 338.635,-265.781C323.219,-275.763 306.558,-283.733 289.344,-290.085C289.336,-290.087 289.331,-290.089 289.324,-290.092C272.046,-296.267 254.154,-300.845 235.924,-303.083C227.243,-304.171 218.502,-304.789 209.751,-304.864C209.425,-304.865 209.098,-304.866 208.771,-304.866C199.486,-304.866 190.199,-304.247 181.012,-302.9Z" style="fill-rule:nonzero;"/>
    </g>
    <g transform="matrix(118.828,0,0,-118.828,390.307,201.626)">
        <path d="M0,-0.019C0.071,-0.088 0.126,-0.169 0.159,-0.262C0.179,-0.316 0.191,-0.371 0.195,-0.428C0.325,-0.336 0.695,-0.126 1,-0.452C1,-0.447 0.999,-0.443 0.999,-0.439C0.998,-0.428 0.998,-0.418 0.997,-0.407L0.993,-0.375C0.99,-0.353 0.987,-0.332 0.984,-0.31C0.98,-0.289 0.976,-0.267 0.971,-0.246C0.963,-0.203 0.95,-0.161 0.937,-0.119C0.931,-0.098 0.923,-0.077 0.915,-0.057C0.907,-0.036 0.899,-0.016 0.891,0.004C0.881,0.024 0.872,0.044 0.862,0.063C0.857,0.073 0.853,0.083 0.847,0.092C0.842,0.102 0.836,0.111 0.831,0.12C0.82,0.139 0.808,0.157 0.796,0.175C0.784,0.193 0.771,0.21 0.758,0.228C0.745,0.244 0.732,0.262 0.718,0.277C0.704,0.293 0.69,0.308 0.675,0.324C0.668,0.331 0.661,0.339 0.653,0.346L0.631,0.367C0.615,0.38 0.6,0.395 0.584,0.407C0.565,0.422 0.546,0.437 0.527,0.452C0.13,0.376 0.024,0.077 0,-0.019Z" style="fill:url(#_Linear22);fill-rule:nonzero;"/>
    </g>
    <g transform="matrix(164.306,0,0,-164.306,185.567,446.468)">
        <path d="M0.632,0.324C0.44,0.254 0.249,0.226 0.076,0.235C0.029,0.153 -0.088,-0.102 0.118,-0.372C0.208,-0.374 0.296,-0.369 0.382,-0.358C0.542,-0.339 0.694,-0.3 0.839,-0.248C0.893,-0.229 0.947,-0.207 1,-0.184C0.929,0.014 0.805,0.277 0.757,0.375C0.717,0.357 0.675,0.339 0.632,0.324Z" style="fill:url(#_Linear23);fill-rule:nonzero;"/>
    </g>
    <g transform="matrix(91.0388,0,0,-91.0388,9.84161,295.037)">
        <path d="M0.311,0.534C0.302,0.522 0.294,0.509 0.287,0.496L0.256,0.444L0.24,0.417C0.235,0.408 0.231,0.399 0.226,0.389C0.206,0.352 0.186,0.316 0.169,0.276C0.096,0.119 0.036,-0.059 0.012,-0.26C0.009,-0.285 0.007,-0.31 0.005,-0.335C0.004,-0.348 0.003,-0.361 0.002,-0.374L0.001,-0.412C0,-0.438 0,-0.464 0,-0.491C0,-0.506 0.001,-0.522 0.002,-0.538C0.132,-0.419 0.455,-0.197 0.889,-0.42C0.858,-0.223 0.9,-0.016 1,0.185C0.825,0.487 0.553,0.538 0.387,0.538C0.358,0.538 0.332,0.536 0.311,0.534Z" style="fill:url(#_Linear24);fill-rule:nonzero;"/>
    </g>
    <g transform="matrix(100.433,0,0,-100.433,176.874,148.189)">
        <path d="M0.908,0.424C0.878,0.42 0.849,0.416 0.82,0.412C0.791,0.408 0.762,0.402 0.733,0.397C0.704,0.392 0.675,0.387 0.647,0.38C0.618,0.374 0.59,0.368 0.561,0.362L0.477,0.34C0.365,0.31 0.256,0.274 0.149,0.233C0.099,0.213 0.049,0.192 0,0.17C0.054,0.092 0.176,-0.109 0.255,-0.427C0.293,-0.411 0.332,-0.396 0.372,-0.381C0.584,-0.304 0.797,-0.258 1,-0.241C0.881,0.06 0.909,0.309 0.935,0.427L0.908,0.424Z" style="fill:url(#_Linear25);fill-rule:nonzero;"/>
    </g>
    <g transform="matrix(16.2672,41.5932,41.5932,-16.2672,353.187,28.9644)">
        <path d="M0.508,-0.54C0.909,-0.28 1.136,0.084 1.136,0.084L0.508,0.534C0.195,0.072 -0.141,-0.097 -0.141,-0.097L0.508,-0.54Z" style="fill:url(#_Linear26);fill-rule:nonzero;"/>
    </g>
    <g transform="matrix(-0.975903,-0.218206,-0.218206,0.975903,352.617,54.6434)">
        <path d="M-0.086,-0.737C0.121,-0.737 0.289,-0.569 0.289,-0.363C0.29,-0.156 0.121,0.009 -0.086,0.01C-0.292,0.008 -0.457,-0.155 -0.457,-0.363C-0.457,-0.569 -0.293,-0.738 -0.086,-0.737" style="fill:white;fill-rule:nonzero;"/>
    </g>
    <g transform="matrix(-0.975839,-0.218491,-0.218491,0.975839,352.055,56.8891)">
        <path d="M-0.085,-0.737C0.121,-0.737 0.289,-0.57 0.29,-0.362C0.289,-0.16 0.121,0.009 -0.085,0.009C-0.291,0.009 -0.457,-0.159 -0.456,-0.362C-0.456,-0.569 -0.291,-0.737 -0.085,-0.737" style="fill:white;fill-rule:nonzero;"/>
    </g>
    <g transform="matrix(-0.975903,-0.218206,-0.218206,0.975903,351.637,58.7602)">
        <path d="M-0.085,-0.738C0.121,-0.738 0.29,-0.569 0.289,-0.367C0.289,-0.16 0.121,0.009 -0.085,0.009C-0.291,0.009 -0.457,-0.16 -0.457,-0.366C-0.456,-0.569 -0.291,-0.738 -0.085,-0.738" style="fill:white;fill-rule:nonzero;"/>
    </g>
    <g transform="matrix(-0.976187,-0.21693,-0.21693,0.976187,351.222,60.6303)">
        <path d="M-0.083,-0.737C0.123,-0.737 0.291,-0.572 0.291,-0.366C0.291,-0.159 0.124,0.01 -0.083,0.01C-0.289,0.009 -0.454,-0.158 -0.455,-0.365C-0.455,-0.572 -0.29,-0.737 -0.083,-0.737" style="fill:white;fill-rule:nonzero;"/>
    </g>
    <g transform="matrix(-0.975903,-0.218206,-0.218206,0.975903,350.802,62.4971)">
        <path d="M-0.085,-0.737C0.122,-0.737 0.29,-0.569 0.29,-0.363C0.29,-0.156 0.121,0.01 -0.085,0.01C-0.291,0.009 -0.456,-0.155 -0.456,-0.362C-0.456,-0.568 -0.292,-0.738 -0.085,-0.737" style="fill:white;fill-rule:nonzero;"/>
    </g>
    <g transform="matrix(-0.975903,-0.218206,-0.218206,0.975903,350.384,64.3677)">
        <path d="M-0.085,-0.737C0.122,-0.737 0.29,-0.569 0.29,-0.361C0.29,-0.16 0.122,0.009 -0.085,0.01C-0.291,0.009 -0.456,-0.158 -0.455,-0.362C-0.456,-0.568 -0.291,-0.737 -0.085,-0.737" style="fill:white;fill-rule:nonzero;"/>
    </g>
    <g transform="matrix(-0.975839,-0.218491,-0.218491,0.975839,367.066,60.8134)">
        <path d="M-0.085,-0.737C0.121,-0.737 0.289,-0.57 0.289,-0.363C0.289,-0.155 0.121,0.009 -0.085,0.009C-0.292,0.008 -0.456,-0.156 -0.456,-0.362C-0.457,-0.57 -0.291,-0.737 -0.085,-0.737" style="fill:white;fill-rule:nonzero;"/>
    </g>
    <g transform="matrix(-0.975903,-0.218206,-0.218206,0.975903,366.649,62.6836)">
        <path d="M-0.085,-0.737C0.122,-0.737 0.29,-0.569 0.291,-0.362C0.29,-0.159 0.122,0.01 -0.085,0.01C-0.291,0.009 -0.456,-0.158 -0.455,-0.362C-0.456,-0.569 -0.291,-0.737 -0.085,-0.737" style="fill:white;fill-rule:nonzero;"/>
    </g>
    <g transform="matrix(-0.975903,-0.218206,-0.218206,0.975903,366.23,64.5541)">
        <path d="M-0.086,-0.737C0.121,-0.737 0.29,-0.569 0.289,-0.366C0.289,-0.16 0.122,0.009 -0.086,0.01C-0.292,0.008 -0.457,-0.159 -0.457,-0.365C-0.456,-0.568 -0.292,-0.737 -0.086,-0.737" style="fill:white;fill-rule:nonzero;"/>
    </g>
    <g transform="matrix(-0.975903,-0.218206,-0.218206,0.975903,365.813,66.4248)">
        <path d="M-0.085,-0.737C0.122,-0.737 0.291,-0.573 0.29,-0.366C0.29,-0.16 0.123,0.009 -0.085,0.01C-0.29,0.009 -0.456,-0.158 -0.455,-0.366C-0.456,-0.572 -0.291,-0.737 -0.085,-0.737" style="fill:white;fill-rule:nonzero;"/>
    </g>
    <g transform="matrix(-0.976187,-0.21693,-0.21693,0.976187,365.396,68.2922)">
        <path d="M-0.085,-0.737C0.121,-0.738 0.289,-0.569 0.29,-0.363C0.29,-0.156 0.122,0.008 -0.085,0.009C-0.291,0.009 -0.456,-0.156 -0.456,-0.362C-0.456,-0.569 -0.292,-0.737 -0.085,-0.737" style="fill:white;fill-rule:nonzero;"/>
    </g>
    <g transform="matrix(-0.975839,-0.218491,-0.218491,0.975839,364.977,70.1626)">
        <path d="M-0.084,-0.737C0.122,-0.737 0.29,-0.569 0.29,-0.363C0.29,-0.159 0.122,0.009 -0.084,0.009C-0.291,0.008 -0.456,-0.159 -0.456,-0.363C-0.456,-0.569 -0.291,-0.738 -0.084,-0.737" style="fill:white;fill-rule:nonzero;"/>
    </g>
    <g transform="matrix(-0.975903,-0.218206,-0.218206,0.975903,363.937,61.8496)">
        <path d="M-0.085,-0.737C0.122,-0.737 0.29,-0.57 0.29,-0.363C0.29,-0.16 0.122,0.009 -0.085,0.01C-0.291,0.009 -0.456,-0.158 -0.455,-0.362C-0.456,-0.569 -0.291,-0.737 -0.085,-0.737" style="fill:white;fill-rule:nonzero;"/>
    </g>
    <g transform="matrix(-0.975903,-0.218206,-0.218206,0.975903,363.518,63.7201)">
        <path d="M-0.086,-0.737C0.121,-0.737 0.289,-0.569 0.289,-0.366C0.289,-0.16 0.122,0.009 -0.086,0.01C-0.292,0.008 -0.457,-0.159 -0.456,-0.366C-0.456,-0.569 -0.292,-0.737 -0.086,-0.737" style="fill:white;fill-rule:nonzero;"/>
    </g>
    <g transform="matrix(-0.975839,-0.218491,-0.218491,0.975839,363.101,65.5908)">
        <path d="M-0.084,-0.737C0.122,-0.737 0.291,-0.572 0.29,-0.365C0.29,-0.159 0.122,0.009 -0.084,0.009C-0.291,0.008 -0.456,-0.159 -0.455,-0.366C-0.455,-0.572 -0.29,-0.737 -0.084,-0.737" style="fill:white;fill-rule:nonzero;"/>
    </g>
    <g transform="matrix(-0.976124,-0.217214,-0.217214,0.976124,362.684,67.4582)">
        <path d="M-0.085,-0.737C0.121,-0.738 0.289,-0.569 0.29,-0.363C0.29,-0.156 0.122,0.008 -0.085,0.008C-0.291,0.009 -0.456,-0.156 -0.456,-0.362C-0.456,-0.569 -0.292,-0.737 -0.085,-0.737" style="fill:white;fill-rule:nonzero;"/>
    </g>
    <g transform="matrix(-0.976187,-0.21693,-0.21693,0.976187,362.266,69.3283)">
        <path d="M-0.085,-0.737C0.121,-0.738 0.289,-0.569 0.289,-0.362C0.29,-0.159 0.122,0.009 -0.085,0.009C-0.291,0.009 -0.456,-0.158 -0.456,-0.362C-0.457,-0.568 -0.292,-0.737 -0.085,-0.737" style="fill:white;fill-rule:nonzero;"/>
    </g>
    <g transform="matrix(-0.975903,-0.218206,-0.218206,0.975903,354.538,60.2528)">
        <path d="M-0.086,-0.737C0.121,-0.737 0.29,-0.569 0.289,-0.366C0.289,-0.16 0.122,0.009 -0.086,0.01C-0.291,0.009 -0.457,-0.159 -0.456,-0.366C-0.456,-0.568 -0.292,-0.737 -0.086,-0.737" style="fill:white;fill-rule:nonzero;"/>
    </g>
    <g transform="matrix(-0.976124,-0.217214,-0.217214,0.976124,354.122,62.1239)">
        <path d="M-0.083,-0.737C0.123,-0.737 0.291,-0.573 0.291,-0.366C0.292,-0.16 0.124,0.009 -0.083,0.009C-0.289,0.009 -0.454,-0.158 -0.454,-0.366C-0.455,-0.572 -0.29,-0.737 -0.083,-0.737" style="fill:white;fill-rule:nonzero;"/>
    </g>
    <g transform="matrix(-0.975839,-0.218491,-0.218491,0.975839,353.702,63.9906)">
        <path d="M-0.085,-0.737C0.121,-0.737 0.289,-0.569 0.289,-0.363C0.289,-0.155 0.121,0.009 -0.085,0.009C-0.292,0.008 -0.456,-0.156 -0.457,-0.363C-0.457,-0.57 -0.292,-0.738 -0.085,-0.737" style="fill:white;fill-rule:nonzero;"/>
    </g>
    <g transform="matrix(-0.975903,-0.218206,-0.218206,0.975903,353.285,65.8618)">
        <path d="M-0.084,-0.738C0.122,-0.738 0.29,-0.57 0.291,-0.362C0.29,-0.16 0.122,0.009 -0.084,0.009C-0.291,0.009 -0.456,-0.159 -0.455,-0.363C-0.456,-0.569 -0.29,-0.738 -0.084,-0.738" style="fill:white;fill-rule:nonzero;"/>
    </g>
    <g transform="matrix(-0.975839,-0.218491,-0.218491,0.975839,372.539,66.3153)">
        <path d="M-0.085,-0.737C0.121,-0.737 0.29,-0.568 0.289,-0.366C0.289,-0.16 0.121,0.009 -0.085,0.009C-0.292,0.008 -0.457,-0.16 -0.456,-0.367C-0.456,-0.569 -0.291,-0.737 -0.085,-0.737" style="fill:white;fill-rule:nonzero;"/>
    </g>
    <g transform="matrix(-0.975903,-0.218206,-0.218206,0.975903,372.122,68.1855)">
        <path d="M-0.085,-0.737C0.122,-0.737 0.29,-0.572 0.29,-0.366C0.29,-0.159 0.122,0.01 -0.085,0.01C-0.29,0.009 -0.456,-0.158 -0.456,-0.365C-0.456,-0.572 -0.291,-0.737 -0.085,-0.737" style="fill:white;fill-rule:nonzero;"/>
    </g>
    <g transform="matrix(-0.976187,-0.21693,-0.21693,0.976187,371.704,70.0529)">
        <path d="M-0.085,-0.737C0.121,-0.738 0.289,-0.569 0.29,-0.363C0.29,-0.156 0.122,0.009 -0.085,0.009C-0.291,0.009 -0.456,-0.155 -0.456,-0.362C-0.457,-0.568 -0.292,-0.737 -0.085,-0.737" style="fill:white;fill-rule:nonzero;"/>
    </g>
    <g transform="matrix(-0.975903,-0.218206,-0.218206,0.975903,371.286,71.9233)">
        <path d="M-0.085,-0.737C0.122,-0.737 0.29,-0.569 0.289,-0.362C0.29,-0.16 0.122,0.009 -0.085,0.01C-0.291,0.009 -0.456,-0.158 -0.456,-0.362C-0.456,-0.568 -0.292,-0.738 -0.085,-0.737" style="fill:white;fill-rule:nonzero;"/>
    </g>
    <g transform="matrix(-0.975903,-0.218206,-0.218206,0.975903,357.155,63.4341)">
        <path d="M-0.085,-0.737C0.122,-0.737 0.29,-0.572 0.29,-0.366C0.29,-0.159 0.122,0.01 -0.085,0.01C-0.291,0.009 -0.456,-0.158 -0.456,-0.365C-0.456,-0.572 -0.291,-0.737 -0.085,-0.737" style="fill:white;fill-rule:nonzero;"/>
    </g>
    <g transform="matrix(-0.975903,-0.218206,-0.218206,0.975903,356.736,65.3011)">
        <path d="M-0.087,-0.738C0.12,-0.737 0.289,-0.569 0.289,-0.363C0.289,-0.156 0.121,0.009 -0.087,0.009C-0.292,0.009 -0.458,-0.155 -0.457,-0.362C-0.457,-0.568 -0.293,-0.738 -0.087,-0.738" style="fill:white;fill-rule:nonzero;"/>
    </g>
    <g transform="matrix(-0.976187,-0.21693,-0.21693,0.976187,356.321,67.1722)">
        <path d="M-0.084,-0.737C0.122,-0.738 0.29,-0.569 0.291,-0.363C0.291,-0.16 0.123,0.008 -0.084,0.01C-0.29,0.009 -0.455,-0.158 -0.455,-0.362C-0.456,-0.568 -0.291,-0.737 -0.084,-0.737" style="fill:white;fill-rule:nonzero;"/>
    </g>
    <g transform="matrix(-0.975903,-0.218206,-0.218206,0.975903,359.606,66.5223)">
        <path d="M-0.087,-0.738C0.12,-0.737 0.288,-0.569 0.289,-0.363C0.289,-0.156 0.121,0.009 -0.087,0.009C-0.293,0.008 -0.458,-0.155 -0.457,-0.362C-0.457,-0.568 -0.293,-0.738 -0.087,-0.738" style="fill:white;fill-rule:nonzero;"/>
    </g>
    <g transform="matrix(-0.975903,-0.218206,-0.218206,0.975903,359.189,68.393)">
        <path d="M-0.086,-0.737C0.121,-0.737 0.29,-0.569 0.29,-0.363C0.289,-0.16 0.122,0.009 -0.086,0.01C-0.291,0.009 -0.457,-0.159 -0.456,-0.362C-0.456,-0.569 -0.292,-0.737 -0.086,-0.737" style="fill:white;fill-rule:nonzero;"/>
    </g>
    <g transform="matrix(-0.975903,-0.218206,-0.218206,0.975903,368.411,69.0986)">
        <path d="M-0.084,-0.738C0.122,-0.738 0.29,-0.57 0.29,-0.364C0.29,-0.157 0.122,0.009 -0.084,0.009C-0.291,0.009 -0.455,-0.156 -0.456,-0.363C-0.456,-0.569 -0.291,-0.738 -0.084,-0.738" style="fill:white;fill-rule:nonzero;"/>
    </g>
    <g transform="matrix(-0.975903,-0.218206,-0.218206,0.975903,367.993,70.9683)">
        <path d="M-0.085,-0.737C0.122,-0.737 0.29,-0.569 0.289,-0.362C0.29,-0.159 0.121,0.01 -0.085,0.01C-0.291,0.009 -0.456,-0.158 -0.455,-0.362C-0.456,-0.568 -0.292,-0.738 -0.085,-0.737" style="fill:white;fill-rule:nonzero;"/>
    </g>
    <g transform="matrix(-0.975264,-0.221042,-0.221042,0.975264,347.741,60.8144)">
        <path d="M-0.08,-0.737C0.127,-0.736 0.291,-0.568 0.292,-0.362C0.291,-0.156 0.126,0.01 -0.08,0.01C-0.286,0.009 -0.454,-0.155 -0.455,-0.363C-0.454,-0.569 -0.286,-0.737 -0.08,-0.737" style="fill:white;fill-rule:nonzero;"/>
    </g>
    <g transform="matrix(-0.975264,-0.221042,-0.221042,0.975264,347.32,62.6833)">
        <path d="M-0.078,-0.736C0.129,-0.736 0.293,-0.568 0.294,-0.36C0.293,-0.158 0.129,0.01 -0.078,0.011C-0.285,0.01 -0.453,-0.158 -0.453,-0.36C-0.453,-0.568 -0.285,-0.736 -0.078,-0.736" style="fill:white;fill-rule:nonzero;"/>
    </g>
    <g transform="matrix(-0.979852,-0.199724,-0.199724,0.979852,345.293,57.3339)">
        <path d="M-0.07,-0.737C0.137,-0.738 0.301,-0.573 0.302,-0.366C0.301,-0.159 0.139,0.009 -0.07,0.009C-0.276,0.009 -0.444,-0.158 -0.444,-0.365C-0.445,-0.572 -0.277,-0.736 -0.07,-0.737" style="fill:white;fill-rule:nonzero;"/>
    </g>
    <g transform="matrix(-0.979852,-0.199724,-0.199724,0.979852,345.78,55.6956)">
        <path d="M-0.071,-0.737C0.136,-0.738 0.3,-0.573 0.301,-0.366C0.3,-0.159 0.138,0.008 -0.071,0.009C-0.277,0.009 -0.445,-0.158 -0.445,-0.365C-0.445,-0.572 -0.277,-0.736 -0.071,-0.737" style="fill:white;fill-rule:nonzero;"/>
    </g>
    <g transform="matrix(-0.979589,-0.20101,-0.20101,0.979589,344.905,59.2073)">
        <path d="M-0.073,-0.737C0.134,-0.738 0.299,-0.569 0.298,-0.363C0.299,-0.156 0.134,0.008 -0.073,0.009C-0.279,0.008 -0.448,-0.156 -0.447,-0.363C-0.448,-0.569 -0.279,-0.737 -0.073,-0.737" style="fill:white;fill-rule:nonzero;"/>
    </g>
    <g transform="matrix(-0.979589,-0.20101,-0.20101,0.979589,344.52,61.0848)">
        <path d="M-0.072,-0.737C0.134,-0.738 0.299,-0.569 0.299,-0.362C0.299,-0.159 0.135,0.009 -0.072,0.009C-0.279,0.008 -0.447,-0.159 -0.447,-0.362C-0.447,-0.569 -0.278,-0.737 -0.072,-0.737" style="fill:white;fill-rule:nonzero;"/>
    </g>
    <g transform="matrix(-0.976751,-0.214376,-0.214376,0.976751,343.607,50.0358)">
        <path d="M-0.077,-0.737C0.126,-0.738 0.294,-0.57 0.294,-0.363C0.294,-0.156 0.126,0.008 -0.077,0.009C-0.284,0.009 -0.451,-0.156 -0.451,-0.363C-0.452,-0.569 -0.284,-0.738 -0.077,-0.737" style="fill:white;fill-rule:nonzero;"/>
    </g>
    <g transform="matrix(-0.976751,-0.214376,-0.214376,0.976751,343.195,51.9084)">
        <path d="M-0.077,-0.738C0.126,-0.738 0.294,-0.571 0.294,-0.364C0.295,-0.16 0.126,0.007 -0.077,0.008C-0.284,0.008 -0.452,-0.159 -0.452,-0.363C-0.452,-0.57 -0.284,-0.739 -0.077,-0.738" style="fill:white;fill-rule:nonzero;"/>
    </g>
    <g transform="matrix(-0.976751,-0.214376,-0.214376,0.976751,342.783,53.7794)">
        <path d="M-0.077,-0.737C0.126,-0.738 0.294,-0.57 0.294,-0.366C0.295,-0.159 0.126,0.008 -0.077,0.009C-0.284,0.009 -0.452,-0.159 -0.451,-0.366C-0.452,-0.569 -0.284,-0.738 -0.077,-0.737" style="fill:white;fill-rule:nonzero;"/>
    </g>
    <g transform="matrix(-0.976751,-0.214376,-0.214376,0.976751,342.373,55.6522)">
        <path d="M-0.075,-0.738C0.128,-0.738 0.295,-0.573 0.296,-0.367C0.296,-0.16 0.128,0.009 -0.075,0.008C-0.282,0.008 -0.45,-0.159 -0.45,-0.367C-0.45,-0.573 -0.282,-0.738 -0.075,-0.738" style="fill:white;fill-rule:nonzero;"/>
    </g>
    <g transform="matrix(-0.976751,-0.214376,-0.214376,0.976751,341.96,57.5197)">
        <path d="M-0.077,-0.737C0.126,-0.738 0.294,-0.57 0.294,-0.363C0.294,-0.156 0.126,0.008 -0.077,0.009C-0.284,0.009 -0.451,-0.156 -0.452,-0.362C-0.452,-0.569 -0.284,-0.738 -0.077,-0.737" style="fill:white;fill-rule:nonzero;"/>
    </g>
    <g transform="matrix(-0.976751,-0.214376,-0.214376,0.976751,341.549,59.3924)">
        <path d="M-0.076,-0.738C0.127,-0.738 0.295,-0.57 0.295,-0.363C0.295,-0.16 0.127,0.009 -0.076,0.008C-0.283,0.008 -0.451,-0.159 -0.451,-0.363C-0.451,-0.57 -0.283,-0.739 -0.076,-0.738" style="fill:white;fill-rule:nonzero;"/>
    </g>
    <g transform="matrix(1,0,0,1,356.283,44.6456)">
        <path d="M0,11.727L2.729,13.137L4.283,6.631C4.283,6.631 6.596,6.035 6.614,2.674C6.632,-0.687 1.717,-1.41 0.903,2.475C0.452,5.005 1.428,5.674 1.428,5.674L0,11.727Z" style="fill-rule:nonzero;"/>
    </g>
    <g transform="matrix(1,0,0,1,358.181,54.2985)">
        <path d="M0,-6.943C-0.886,-4.088 0.917,-3.04 0.917,-3.04L-0.434,2.472L0.917,3.125L2.386,-3.022C2.386,-3.022 4.698,-3.618 4.717,-6.979C4.717,-7.014 4.713,-7.046 4.712,-7.08C3.451,-10.068 0.648,-8.721 0,-6.943" style="fill:white;fill-rule:nonzero;"/>
    </g>
    <g transform="matrix(-8.24351,32.4891,32.4891,8.24351,387.698,35.8728)">
        <path d="M0.19,-0.076L1.219,-0.076L1.074,0.068L0.056,0.076L0.19,-0.076Z" style="fill:url(#_Linear27);fill-rule:nonzero;"/>
    </g>
    <g transform="matrix(-7.21251,8.99222,8.99222,7.21251,378.033,19.3482)">
        <path d="M2.052,-1.82C2.052,-1.82 2.134,-0.364 1.189,1.578L0.65,1.82C0.65,1.82 0.819,0.945 1.097,0.005C1.375,-0.936 1.582,-1.388 1.582,-1.388L2.052,-1.82Z" style="fill:url(#_Linear28);fill-rule:nonzero;"/>
    </g>
    <g transform="matrix(1,0,0,1,354.072,5.3279)">
        <path d="M0,22.075C0,22.075 2.205,-9.986 22.282,-2.312C34.896,3.47 29.01,18.396 25.12,32.061" style="fill:none;fill-rule:nonzero;stroke:rgb(255,0,0);stroke-width:0.04px;"/>
    </g>
    <g transform="matrix(1,0,0,-1,0,-469.026)">
        <path d="M372.298,-469.026C372.298,-469.026 372.096,-469.039 371.689,-469.065C371.283,-469.103 370.676,-469.104 369.863,-469.272C368.266,-469.536 365.737,-470.251 363.137,-472.213C360.535,-474.159 358.132,-477.287 356.339,-481.226C355.444,-483.2 354.651,-485.375 354.018,-487.746C353.696,-488.931 353.408,-490.164 353.158,-491.449C352.91,-492.759 352.697,-494.018 352.54,-495.549C352.707,-495.564 352.79,-495.571 352.79,-495.571C352.873,-495.578 352.956,-495.585 353.04,-495.593L353.289,-495.615C353.373,-495.622 353.456,-495.63 353.539,-495.637C353.622,-495.644 353.706,-495.651 353.789,-495.658L354.038,-495.68C354.205,-495.695 354.371,-495.71 354.538,-495.724C354.716,-495.739 354.893,-495.755 355.072,-495.771L355.338,-495.794L355.604,-495.818L355.871,-495.841C355.96,-495.848 356.049,-495.856 356.138,-495.863L356.404,-495.887L356.671,-495.91C356.76,-495.918 356.85,-495.927 356.938,-495.935C357.027,-495.942 357.116,-495.95 357.206,-495.957L357.472,-495.981L357.738,-496.004L358.005,-496.027L358.271,-496.051C358.36,-496.059 358.449,-496.067 358.538,-496.074L358.805,-496.098C358.915,-495.014 359.116,-493.758 359.331,-492.647C359.551,-491.512 359.806,-490.425 360.088,-489.39C360.641,-487.315 361.323,-485.466 362.055,-483.849C363.532,-480.611 365.32,-478.427 366.937,-477.224C368.562,-476.014 369.969,-475.634 370.936,-475.469C371.411,-475.357 371.797,-475.371 372.044,-475.344C372.294,-475.324 372.418,-475.313 372.418,-475.313L373.551,-475.35C373.558,-475.35 373.562,-475.351 373.568,-475.351C375.998,-475.545 378.335,-476.524 380.062,-478.122L380.074,-478.132C381.051,-479.119 381.844,-480.177 382.334,-481.405C382.777,-482.658 382.981,-484.064 382.983,-485.575C382.983,-485.575 382.958,-485.964 382.906,-486.744C382.901,-487.127 382.814,-487.633 382.729,-488.236C382.664,-488.834 382.501,-489.554 382.33,-490.374C381.956,-492.021 381.388,-494.101 380.529,-496.647C379.687,-499.194 378.588,-502.188 377.423,-505.745C377.593,-505.8 377.678,-505.827 377.678,-505.827C377.762,-505.855 377.848,-505.882 377.932,-505.909C378.018,-505.937 378.103,-505.965 378.186,-505.993C378.272,-506.02 378.356,-506.047 378.441,-506.075C378.526,-506.103 378.611,-506.13 378.697,-506.158C378.781,-506.185 378.866,-506.213 378.951,-506.241C379.036,-506.268 379.12,-506.295 379.205,-506.322C379.29,-506.35 379.375,-506.378 379.46,-506.405C379.545,-506.433 379.63,-506.46 379.715,-506.488C379.8,-506.516 379.885,-506.543 379.97,-506.571C380.055,-506.598 380.138,-506.626 380.224,-506.653C380.309,-506.681 380.393,-506.708 380.479,-506.736C380.563,-506.763 380.649,-506.79 380.733,-506.818C380.819,-506.846 380.903,-506.873 380.988,-506.901C381.157,-506.956 381.327,-507.011 381.497,-507.066C381.656,-507.118 381.815,-507.169 381.973,-507.221C382.054,-507.247 382.133,-507.272 382.213,-507.298C382.292,-507.324 382.371,-507.349 382.451,-507.375C382.531,-507.401 382.611,-507.427 382.689,-507.453C382.768,-507.479 382.848,-507.504 382.927,-507.53C383.008,-507.555 383.087,-507.582 383.166,-507.608C383.166,-507.608 383.246,-507.634 383.405,-507.685C384.513,-504.297 385.618,-501.286 386.497,-498.628C387.391,-495.98 388.036,-493.65 388.47,-491.736C388.673,-490.768 388.858,-489.926 388.948,-489.16C389.056,-488.406 389.156,-487.785 389.173,-487.253C389.238,-486.209 389.271,-485.687 389.271,-485.687C389.28,-483.562 389.001,-481.325 388.204,-479.15C387.356,-476.974 385.948,-475.072 384.335,-473.509C384.329,-473.503 384.323,-473.498 384.317,-473.492C381.494,-470.888 377.806,-469.381 374.083,-469.084C374.074,-469.083 374.066,-469.082 374.059,-469.081C373.472,-469.063 372.884,-469.044 372.298,-469.026Z" style="fill-rule:nonzero;"/>
    </g>
    <g transform="matrix(8.03793,2.10359,2.10359,-8.03793,377.438,36.9292)">
        <path d="M-0.01,0.008C-0.011,-0.077 0.148,-0.148 0.367,-0.151C0.587,-0.155 0.749,-0.096 0.751,-0.011C0.752,0.074 0.592,0.152 0.372,0.156C0.289,0.157 0.214,0.148 0.153,0.132C0.053,0.106 -0.009,0.061 -0.01,0.008Z" style="fill:url(#_Linear29);fill-rule:nonzero;"/>
    </g>
    <g transform="matrix(-7.66888,-1.04704,-1.04704,7.66888,358.339,27.2163)">
        <path d="M0.758,-0.018C0.761,0.073 0.591,0.148 0.356,0.158C0.12,0.167 -0.053,0.129 -0.059,0.001C-0.065,-0.136 0.107,-0.162 0.342,-0.172C0.4,-0.174 0.455,-0.172 0.504,-0.165C0.654,-0.144 0.755,-0.086 0.758,-0.018Z" style="fill:url(#_Linear30);fill-rule:nonzero;"/>
    </g>
    <g transform="matrix(313.484,-241.488,-241.488,-313.484,82.2392,350.764)">
        <path d="M0.794,0.103L0.453,0.149C0.427,0.152 0.401,0.142 0.384,0.121L0.242,-0.064C0.232,-0.077 0.24,-0.095 0.256,-0.098L0.58,-0.147C0.611,-0.152 0.641,-0.139 0.66,-0.115L0.806,0.074C0.812,0.083 0.81,0.094 0.803,0.1C0.8,0.102 0.797,0.103 0.794,0.103Z" style="fill:url(#_Linear31);fill-rule:nonzero;"/>
    </g>
    <g transform="matrix(0.388591,-0.92141,-0.92141,-0.388591,225.551,231.943)">
        <path d="M-5.945,-3.857C-11.849,-3.497 -16.848,0.32 -17.044,2.447C-17.518,7.582 -11.85,8.885 -5.945,8.527C-0.042,8.166 5.199,4.527 4.974,0.81C4.747,-2.907 -0.042,-4.216 -5.945,-3.857" style="fill:white;fill-rule:nonzero;"/>
    </g>
    <g transform="matrix(0.388552,-0.921427,-0.921427,-0.388552,254.728,215.669)">
        <path d="M-5.945,-3.857C-11.848,-3.497 -16.849,0.32 -17.044,2.447C-17.518,7.582 -11.849,8.885 -5.945,8.525C-0.041,8.166 5.2,4.526 4.974,0.809C4.747,-2.908 -0.041,-4.216 -5.945,-3.857" style="fill:white;fill-rule:nonzero;"/>
    </g>
    <g transform="matrix(0.388523,-0.921439,-0.921439,-0.388523,284.484,199.009)">
        <path d="M-5.945,-3.857C-11.849,-3.497 -16.849,0.32 -17.044,2.447C-17.517,7.583 -11.849,8.886 -5.945,8.526C-0.042,8.166 5.2,4.526 4.974,0.809C4.747,-2.908 -0.042,-4.216 -5.945,-3.857" style="fill:white;fill-rule:nonzero;"/>
    </g>
    <g transform="matrix(35159.1,0,0,-35159.1,-33806.2,305.634)">
        <path d="M0.973,0.005L0.976,0.002L0.976,-0.002L0.971,-0.005L0.964,-0.005C0.964,-0.005 0.963,-0.005 0.963,-0.004L0.962,-0.001L0.962,-0.002C0.962,-0.002 0.962,-0.004 0.963,-0.005L0.965,-0.005L0.971,-0.005L0.976,-0.002L0.976,0.002C0.976,0.003 0.976,0.003 0.975,0.004L0.973,0.005Z" style="fill:url(#_Linear32);fill-rule:nonzero;"/>
    </g>
    <g transform="matrix(-1,0,0,1,311.248,319.424)">
        <path d="M0,-19.107C0,-19.107 -1.35,-13.077 -9.09,-9.567C-9.09,-9.567 -1.62,-5.732 0,0C1.62,-5.732 9.09,-9.567 9.09,-9.567C1.351,-13.077 0,-19.107 0,-19.107" style="fill:rgb(168,147,107);fill-rule:nonzero;"/>
    </g>
    <g transform="matrix(1,0,0,1,311.248,304.909)">
        <path d="M0,10.081C-1.517,7.953 -3.518,6.246 -5.162,5.061C-2.713,3.438 -1.078,1.603 0,0C1.078,1.603 2.713,3.438 5.162,5.061C3.518,6.246 1.517,7.953 0,10.081" style="fill:rgb(205,179,130);fill-rule:nonzero;"/>
    </g>
    <g transform="matrix(-1,0,0,1,351.794,252.432)">
        <path d="M0.001,-14.534C0.001,-14.534 -1.026,-9.947 -6.914,-7.277C-6.914,-7.277 -1.231,-4.36 0.001,0C1.232,-4.36 6.915,-7.277 6.915,-7.277C1.027,-9.947 0.001,-14.534 0.001,-14.534" style="fill:rgb(168,147,107);fill-rule:nonzero;"/>
    </g>
    <g transform="matrix(1,0,0,1,351.793,241.391)">
        <path d="M0,7.668C-1.153,6.049 -2.675,4.751 -3.926,3.849C-2.063,2.615 -0.819,1.219 0,0C0.82,1.219 2.064,2.615 3.927,3.849C2.676,4.751 1.154,6.049 0,7.668" style="fill:rgb(205,179,130);fill-rule:nonzero;"/>
    </g>
    <g transform="matrix(-1,0,0,1,229.01,49.552)">
        <path d="M0.001,-16.09C0.001,-16.09 -1.136,-11.012 -7.654,-8.057C-7.654,-8.057 -1.363,-4.827 0.001,0C1.365,-4.827 7.655,-8.057 7.655,-8.057C1.138,-11.012 0.001,-16.09 0.001,-16.09" style="fill:rgb(168,147,107);fill-rule:nonzero;"/>
    </g>
    <g transform="matrix(1,0,0,1,229.009,37.3284)">
        <path d="M0,8.489C-1.276,6.697 -2.962,5.26 -4.347,4.262C-2.284,2.895 -0.907,1.35 0,0C0.908,1.35 2.285,2.895 4.348,4.262C2.962,5.26 1.277,6.697 0,8.489" style="fill:rgb(205,179,130);fill-rule:nonzero;"/>
    </g>
    <g transform="matrix(-28.875,3.875,3.875,28.875,151.19,80.8196)">
        <path d="M-0.075,-0.699C-0.068,-0.699 -0.062,-0.699 -0.055,-0.698C-0.013,-0.695 0.028,-0.684 0.069,-0.666C0.097,-0.653 0.124,-0.637 0.15,-0.617C0.188,-0.588 0.222,-0.553 0.252,-0.514C0.275,-0.483 0.296,-0.451 0.314,-0.416C0.356,-0.333 0.385,-0.237 0.398,-0.138C0.406,-0.079 0.408,-0.018 0.405,0.042C0.402,0.101 0.394,0.161 0.38,0.218C0.371,0.255 0.36,0.291 0.346,0.326C0.337,0.349 0.328,0.372 0.317,0.393C0.221,0.589 0.063,0.698 -0.097,0.696L-0.211,0.694C-0.05,0.696 0.107,0.587 0.203,0.392C0.214,0.37 0.224,0.348 0.233,0.324C0.246,0.289 0.257,0.253 0.266,0.217C0.28,0.159 0.289,0.1 0.292,0.04C0.295,-0.02 0.292,-0.08 0.284,-0.139C0.271,-0.239 0.242,-0.334 0.2,-0.417C0.182,-0.452 0.162,-0.485 0.139,-0.515C0.109,-0.555 0.074,-0.59 0.036,-0.619C0.01,-0.639 -0.017,-0.655 -0.045,-0.668C-0.085,-0.686 -0.127,-0.697 -0.169,-0.7C-0.175,-0.7 -0.182,-0.701 -0.189,-0.701L-0.075,-0.699Z" style="fill:url(#_Linear33);fill-rule:nonzero;"/>
    </g>
    <g transform="matrix(-0.96173,0.273997,0.273997,0.96173,152.443,100.054)">
        <path d="M0.351,-2.506C-0.626,-1.282 -1.733,-0.282 -2.932,0.474L0.351,0.049C1.549,-0.706 2.657,-1.708 3.633,-2.932L0.351,-2.506" style="fill-rule:nonzero;"/>
    </g>
    <g transform="matrix(1,0,0,1,146.134,96.4963)">
        <path d="M0,-4.694C0.227,-4.311 0.46,-3.942 0.699,-3.584C1.481,-2.417 2.334,-1.384 3.236,-0.49L-0.038,0C-0.94,-0.894 -1.792,-1.927 -2.574,-3.093C-2.814,-3.451 -3.048,-3.821 -3.273,-4.204L0,-4.694" style="fill-rule:nonzero;"/>
    </g>
    <g transform="matrix(-0.968316,-0.249728,-0.249728,0.968316,140.692,89.164)">
        <path d="M-0.778,-6.144C-1.614,-4.4 -2.634,-2.73 -3.826,-1.193L-0.778,0.099C0.413,-1.438 1.433,-3.109 2.269,-4.852L-0.778,-6.144" style="fill-rule:nonzero;"/>
    </g>
    <g transform="matrix(-0.876267,-0.481825,-0.481825,0.876267,137.845,79.5107)">
        <path d="M-1.835,-6.598C-2.522,-4.885 -3.409,-3.206 -4.467,-1.613L-1.835,0.394C-0.776,-1.199 0.11,-2.879 0.798,-4.591L-1.835,-6.598" style="fill-rule:nonzero;"/>
    </g>
    <g transform="matrix(-0.722539,-0.69133,-0.69133,0.722539,138.759,69.6254)">
        <path d="M-2.558,-6.375C-3.004,-4.755 -3.693,-3.144 -4.585,-1.591L-2.558,1.027C-1.667,-0.527 -0.978,-2.138 -0.532,-3.758L-2.558,-6.375" style="fill-rule:nonzero;"/>
    </g>
    <g transform="matrix(1,0,0,1,149.945,64.9809)">
        <path d="M0,-3.642C-0.766,-3.167 -1.503,-2.584 -2.202,-1.891C-2.642,-1.455 -3.055,-0.987 -3.44,-0.49L-6.715,0C-6.328,-0.497 -5.916,-0.965 -5.477,-1.4C-4.776,-2.095 -4.039,-2.678 -3.274,-3.152L0,-3.642" style="fill-rule:nonzero;"/>
    </g>
    <g transform="matrix(-61.875,10.625,10.625,61.875,177.076,78.7364)">
        <path d="M0.418,-0.325C0.532,-0.245 0.58,-0.051 0.525,0.109C0.522,0.12 0.518,0.131 0.513,0.141C0.452,0.277 0.326,0.329 0.22,0.254C0.106,0.174 0.059,-0.02 0.113,-0.18C0.117,-0.191 0.121,-0.201 0.126,-0.211C0.163,-0.294 0.223,-0.345 0.289,-0.356C0.331,-0.364 0.376,-0.354 0.418,-0.325Z" style="fill:url(#_Linear34);fill-rule:nonzero;"/>
    </g>
    <g transform="matrix(1,0,0,1,150.963,91.5144)">
        <path d="M0,-22.82C-4.231,-19.148 -5.154,-11.067 -2.063,-4.764C1.028,1.536 6.963,3.67 11.193,-0.002C15.422,-3.672 16.346,-11.757 13.255,-18.058C10.163,-24.361 4.229,-26.49 0,-22.82M0.277,-7.942L1.604,-19.55L10.124,-16.487L4.322,-14.008L0.277,-7.942M9.588,-3.274L0.7,-6.465L4.917,-12.796L10.971,-15.379L9.588,-3.274" style="fill-rule:nonzero;"/>
    </g>
    <g transform="matrix(-0.554366,0.832273,0.832273,0.554366,160.195,83.3472)">
        <path d="M-1.46,-6.157L6.147,-6.157L3.876,3.009L-6.966,-2.551L-1.46,-6.157Z" style="fill:white;fill-rule:nonzero;"/>
    </g>
    <g transform="matrix(-0.113493,0.993539,0.993539,0.113493,162.339,74.8524)">
        <path d="M-1.761,-10.037L9.923,-10.037L3.437,-6.707L0.315,-1.223L-1.761,-10.037Z" style="fill:white;fill-rule:nonzero;"/>
    </g>
    <g transform="matrix(-12.7201,25.5892,25.5892,12.7201,273.902,466.966)">
        <path d="M0.487,-0.545C0.605,-0.513 0.925,-0.201 0.925,-0.201L0.487,0.569C0.458,0.391 0.079,0.151 0.079,0.151L0.487,-0.545Z" style="fill:url(#_Linear35);fill-rule:nonzero;"/>
    </g>
    <g transform="matrix(1,0,0,1,188.276,118.011)">
        <path d="M0,76.675L117.876,8.636C118.838,8.081 119.848,7.787 120.848,7.7L107,-1.772C104.422,-3.535 101.062,-3.663 98.356,-2.102L-16.371,64.119C-19.041,65.661 -21.417,67.573 -23.475,69.755L-5.014,80.338C-3.491,78.96 -1.819,77.725 0,76.675" style="fill:rgb(80,80,80);fill-rule:nonzero;"/>
    </g>
    <g transform="matrix(-51.1223,95.5476,95.5476,51.1223,198.883,198.524)">
        <path d="M0.273,-0.3L1.024,0.102C1.043,0.112 1.055,0.13 1.057,0.151L1.077,0.352L1.077,0.352C1.075,0.327 1.062,0.303 1.037,0.29L0.286,-0.112C0.218,-0.148 0.138,-0.153 0.067,-0.128L0.061,-0.324C0.131,-0.343 0.207,-0.335 0.273,-0.3Z" style="fill:url(#_Linear36);fill-rule:nonzero;"/>
    </g>
    <defs>
        <linearGradient id="_Linear1" x1="0" y1="0" x2="1" y2="0" gradientUnits="userSpaceOnUse" gradientTransform="matrix(0,1,1,0,0.499985,-0.499985)"><stop offset="0" style="stop-color:rgb(30,30,30);stop-opacity:1"/><stop offset="1" style="stop-color:rgb(30,30,30);stop-opacity:1"/></linearGradient>
        <linearGradient id="_Linear2" x1="0" y1="0" x2="1" y2="0" gradientUnits="userSpaceOnUse" gradientTransform="matrix(1,0,0,-1,0,8.9202e-06)"><stop offset="0" style="stop-color:rgb(100,100,100);stop-opacity:1"/><stop offset="1" style="stop-color:rgb(30,30,30);stop-opacity:1"/></linearGradient>
        <linearGradient id="_Linear3" x1="0" y1="0" x2="1" y2="0" gradientUnits="userSpaceOnUse" gradientTransform="matrix(126.993,-0,0,126.993,-2.9386,49.9512)"><stop offset="0" style="stop-color:white;stop-opacity:1"/><stop offset="1" style="stop-color:rgb(210,210,210);stop-opacity:1"/></linearGradient>
        <linearGradient id="_Linear4" x1="0" y1="0" x2="1" y2="0" gradientUnits="userSpaceOnUse" gradientTransform="matrix(1,0,0,-1,0,8.668e-07)"><stop offset="0" style="stop-color:white;stop-opacity:1"/><stop offset="1" style="stop-color:rgb(224,224,224);stop-opacity:1"/></linearGradient>
        <linearGradient id="_Linear5" x1="0" y1="0" x2="1" y2="0" gradientUnits="userSpaceOnUse" gradientTransform="matrix(1,0,0,-1,0,0.0015524)"><stop offset="0" style="stop-color:white;stop-opacity:1"/><stop offset="1" style="stop-color:rgb(224,224,224);stop-opacity:1"/></linearGradient>
        <linearGradient id="_Linear6" x1="0" y1="0" x2="1" y2="0" gradientUnits="userSpaceOnUse" gradientTransform="matrix(1,0,0,-1,0,-1.25902e-05)"><stop offset="0" style="stop-color:white;stop-opacity:1"/><stop offset="1" style="stop-color:rgb(224,224,224);stop-opacity:1"/></linearGradient>
        <linearGradient id="_Linear7" x1="0" y1="0" x2="1" y2="0" gradientUnits="userSpaceOnUse" gradientTransform="matrix(1,0,0,-1,0,7.33622e-06)"><stop offset="0" style="stop-color:white;stop-opacity:1"/><stop offset="1" style="stop-color:rgb(224,224,224);stop-opacity:1"/></linearGradient>
        <linearGradient id="_Linear8" x1="0" y1="0" x2="1" y2="0" gradientUnits="userSpaceOnUse" gradientTransform="matrix(0.364236,0.931307,0.931307,-0.364236,0.317882,-0.465653)"><stop offset="0" style="stop-color:rgb(100,100,100);stop-opacity:1"/><stop offset="1" style="stop-color:rgb(30,30,30);stop-opacity:1"/></linearGradient>
        <linearGradient id="_Linear9" x1="0" y1="0" x2="1" y2="0" gradientUnits="userSpaceOnUse" gradientTransform="matrix(0.122094,-0.992518,-0.992518,-0.122094,0.559606,0.632664)"><stop offset="0" style="stop-color:rgb(100,100,100);stop-opacity:1"/><stop offset="1" style="stop-color:rgb(30,30,30);stop-opacity:1"/></linearGradient>
        <linearGradient id="_Linear10" x1="0" y1="0" x2="1" y2="0" gradientUnits="userSpaceOnUse" gradientTransform="matrix(1,-5.55112e-17,-5.55112e-17,-1,0,-5.23925e-05)"><stop offset="0" style="stop-color:rgb(180,180,180);stop-opacity:1"/><stop offset="1" style="stop-color:rgb(90,90,90);stop-opacity:1"/></linearGradient>
        <linearGradient id="_Linear11" x1="0" y1="0" x2="1" y2="0" gradientUnits="userSpaceOnUse" gradientTransform="matrix(1,0,0,-1,0,0.00222905)"><stop offset="0" style="stop-color:rgb(128,128,128);stop-opacity:1"/><stop offset="0.51" style="stop-color:white;stop-opacity:1"/><stop offset="1" style="stop-color:rgb(128,128,128);stop-opacity:1"/></linearGradient>
        <linearGradient id="_Linear12" x1="0" y1="0" x2="1" y2="0" gradientUnits="userSpaceOnUse" gradientTransform="matrix(1,2.77556e-17,2.77556e-17,-1,0,-0.00678457)"><stop offset="0" style="stop-color:rgb(128,128,128);stop-opacity:1"/><stop offset="0.17" style="stop-color:rgb(128,128,128);stop-opacity:1"/><stop offset="0.51" style="stop-color:white;stop-opacity:1"/><stop offset="0.73" style="stop-color:rgb(128,128,128);stop-opacity:1"/><stop offset="1" style="stop-color:rgb(128,128,128);stop-opacity:1"/></linearGradient>
        <linearGradient id="_Linear13" x1="0" y1="0" x2="1" y2="0" gradientUnits="userSpaceOnUse" gradientTransform="matrix(1,0,0,-1,0,0.000802989)"><stop offset="0" style="stop-color:rgb(30,30,30);stop-opacity:1"/><stop offset="0.17" style="stop-color:rgb(30,30,30);stop-opacity:1"/><stop offset="0.3" style="stop-color:rgb(100,100,100);stop-opacity:1"/><stop offset="0.46" style="stop-color:rgb(47,47,47);stop-opacity:1"/><stop offset="0.59" style="stop-color:rgb(30,30,30);stop-opacity:1"/><stop offset="0.84" style="stop-color:rgb(100,100,100);stop-opacity:1"/><stop offset="1" style="stop-color:rgb(30,30,30);stop-opacity:1"/></linearGradient>
        <linearGradient id="_Linear14" x1="0" y1="0" x2="1" y2="0" gradientUnits="userSpaceOnUse" gradientTransform="matrix(1,0,0,-1,0,-4.63038e-09)"><stop offset="0" style="stop-color:white;stop-opacity:1"/><stop offset="1" style="stop-color:rgb(210,210,210);stop-opacity:1"/></linearGradient>
        <linearGradient id="_Linear15" x1="0" y1="0" x2="1" y2="0" gradientUnits="userSpaceOnUse" gradientTransform="matrix(1,2.77556e-17,2.77556e-17,-1,0,-0.00240748)"><stop offset="0" style="stop-color:rgb(100,100,100);stop-opacity:1"/><stop offset="1" style="stop-color:rgb(30,30,30);stop-opacity:1"/></linearGradient>
        <linearGradient id="_Linear16" x1="0" y1="0" x2="1" y2="0" gradientUnits="userSpaceOnUse" gradientTransform="matrix(1,0,0,-1,0,-0.035206)"><stop offset="0" style="stop-color:rgb(100,100,100);stop-opacity:1"/><stop offset="1" style="stop-color:rgb(30,30,30);stop-opacity:1"/></linearGradient>
        <linearGradient id="_Linear17" x1="0" y1="0" x2="1" y2="0" gradientUnits="userSpaceOnUse" gradientTransform="matrix(-0.445126,0.895468,0.895468,0.445126,0.707645,-0.43849)"><stop offset="0" style="stop-color:white;stop-opacity:1"/><stop offset="1" style="stop-color:rgb(224,224,224);stop-opacity:1"/></linearGradient>
        <linearGradient id="_Linear18" x1="0" y1="0" x2="1" y2="0" gradientUnits="userSpaceOnUse" gradientTransform="matrix(1,0,0,-1,0,0.00891051)"><stop offset="0" style="stop-color:rgb(30,30,30);stop-opacity:1"/><stop offset="0.12" style="stop-color:rgb(100,100,100);stop-opacity:1"/><stop offset="1" style="stop-color:rgb(30,30,30);stop-opacity:1"/></linearGradient>
        <linearGradient id="_Linear19" x1="0" y1="0" x2="1" y2="0" gradientUnits="userSpaceOnUse" gradientTransform="matrix(0,1,1,0,0.499985,-0.499985)"><stop offset="0" style="stop-color:rgb(30,30,30);stop-opacity:1"/><stop offset="1" style="stop-color:rgb(30,30,30);stop-opacity:1"/></linearGradient>
        <linearGradient id="_Linear20" x1="0" y1="0" x2="1" y2="0" gradientUnits="userSpaceOnUse" gradientTransform="matrix(1,0,0,-1,0,8.9202e-06)"><stop offset="0" style="stop-color:rgb(100,100,100);stop-opacity:1"/><stop offset="1" style="stop-color:rgb(30,30,30);stop-opacity:1"/></linearGradient>
        <linearGradient id="_Linear21" x1="0" y1="0" x2="1" y2="0" gradientUnits="userSpaceOnUse" gradientTransform="matrix(126.993,-0,0,126.993,-2.9386,49.9512)"><stop offset="0" style="stop-color:white;stop-opacity:1"/><stop offset="1" style="stop-color:rgb(210,210,210);stop-opacity:1"/></linearGradient>
        <linearGradient id="_Linear22" x1="0" y1="0" x2="1" y2="0" gradientUnits="userSpaceOnUse" gradientTransform="matrix(1,0,0,-1,0,8.668e-07)"><stop offset="0" style="stop-color:white;stop-opacity:1"/><stop offset="1" style="stop-color:rgb(224,224,224);stop-opacity:1"/></linearGradient>
        <linearGradient id="_Linear23" x1="0" y1="0" x2="1" y2="0" gradientUnits="userSpaceOnUse" gradientTransform="matrix(1,0,0,-1,0,0.0015524)"><stop offset="0" style="stop-color:white;stop-opacity:1"/><stop offset="1" style="stop-color:rgb(224,224,224);stop-opacity:1"/></linearGradient>
        <linearGradient id="_Linear24" x1="0" y1="0" x2="1" y2="0" gradientUnits="userSpaceOnUse" gradientTransform="matrix(1,0,0,-1,0,-1.25902e-05)"><stop offset="0" style="stop-color:white;stop-opacity:1"/><stop offset="1" style="stop-color:rgb(224,224,224);stop-opacity:1"/></linearGradient>
        <linearGradient id="_Linear25" x1="0" y1="0" x2="1" y2="0" gradientUnits="userSpaceOnUse" gradientTransform="matrix(1,0,0,-1,0,7.33622e-06)"><stop offset="0" style="stop-color:white;stop-opacity:1"/><stop offset="1" style="stop-color:rgb(224,224,224);stop-opacity:1"/></linearGradient>
        <linearGradient id="_Linear26" x1="0" y1="0" x2="1" y2="0" gradientUnits="userSpaceOnUse" gradientTransform="matrix(0.364236,0.931307,0.931307,-0.364236,0.317882,-0.465653)"><stop offset="0" style="stop-color:rgb(100,100,100);stop-opacity:1"/><stop offset="1" style="stop-color:rgb(30,30,30);stop-opacity:1"/></linearGradient>
        <linearGradient id="_Linear27" x1="0" y1="0" x2="1" y2="0" gradientUnits="userSpaceOnUse" gradientTransform="matrix(0.122094,-0.992518,-0.992518,-0.122094,0.559606,0.632664)"><stop offset="0" style="stop-color:rgb(100,100,100);stop-opacity:1"/><stop offset="1" style="stop-color:rgb(30,30,30);stop-opacity:1"/></linearGradient>
        <linearGradient id="_Linear28" x1="0" y1="0" x2="1" y2="0" gradientUnits="userSpaceOnUse" gradientTransform="matrix(1,-5.55112e-17,-5.55112e-17,-1,0,-5.23925e-05)"><stop offset="0" style="stop-color:rgb(180,180,180);stop-opacity:1"/><stop offset="1" style="stop-color:rgb(90,90,90);stop-opacity:1"/></linearGradient>
        <linearGradient id="_Linear29" x1="0" y1="0" x2="1" y2="0" gradientUnits="userSpaceOnUse" gradientTransform="matrix(1,0,0,-1,0,0.00222905)"><stop offset="0" style="stop-color:rgb(128,128,128);stop-opacity:1"/><stop offset="0.51" style="stop-color:white;stop-opacity:1"/><stop offset="1" style="stop-color:rgb(128,128,128);stop-opacity:1"/></linearGradient>
        <linearGradient id="_Linear30" x1="0" y1="0" x2="1" y2="0" gradientUnits="userSpaceOnUse" gradientTransform="matrix(1,2.77556e-17,2.77556e-17,-1,0,-0.00678457)"><stop offset="0" style="stop-color:rgb(128,128,128);stop-opacity:1"/><stop offset="0.17" style="stop-color:rgb(128,128,128);stop-opacity:1"/><stop offset="0.51" style="stop-color:white;stop-opacity:1"/><stop offset="0.73" style="stop-color:rgb(128,128,128);stop-opacity:1"/><stop offset="1" style="stop-color:rgb(128,128,128);stop-opacity:1"/></linearGradient>
        <linearGradient id="_Linear31" x1="0" y1="0" x2="1" y2="0" gradientUnits="userSpaceOnUse" gradientTransform="matrix(1,0,0,-1,0,0.000802989)"><stop offset="0" style="stop-color:rgb(30,30,30);stop-opacity:1"/><stop offset="0.17" style="stop-color:rgb(30,30,30);stop-opacity:1"/><stop offset="0.3" style="stop-color:rgb(100,100,100);stop-opacity:1"/><stop offset="0.46" style="stop-color:rgb(47,47,47);stop-opacity:1"/><stop offset="0.59" style="stop-color:rgb(30,30,30);stop-opacity:1"/><stop offset="0.84" style="stop-color:rgb(100,100,100);stop-opacity:1"/><stop offset="1" style="stop-color:rgb(30,30,30);stop-opacity:1"/></linearGradient>
        <linearGradient id="_Linear32" x1="0" y1="0" x2="1" y2="0" gradientUnits="userSpaceOnUse" gradientTransform="matrix(1,0,0,-1,0,-4.63038e-09)"><stop offset="0" style="stop-color:white;stop-opacity:1"/><stop offset="1" style="stop-color:rgb(210,210,210);stop-opacity:1"/></linearGradient>
        <linearGradient id="_Linear33" x1="0" y1="0" x2="1" y2="0" gradientUnits="userSpaceOnUse" gradientTransform="matrix(1,2.77556e-17,2.77556e-17,-1,0,-0.00240748)"><stop offset="0" style="stop-color:rgb(100,100,100);stop-opacity:1"/><stop offset="1" style="stop-color:rgb(30,30,30);stop-opacity:1"/></linearGradient>
        <linearGradient id="_Linear34" x1="0" y1="0" x2="1" y2="0" gradientUnits="userSpaceOnUse" gradientTransform="matrix(1,0,0,-1,0,-0.035206)"><stop offset="0" style="stop-color:rgb(100,100,100);stop-opacity:1"/><stop offset="1" style="stop-color:rgb(30,30,30);stop-opacity:1"/></linearGradient>
        <linearGradient id="_Linear35" x1="0" y1="0" x2="1" y2="0" gradientUnits="userSpaceOnUse" gradientTransform="matrix(-0.445126,0.895468,0.895468,0.445126,0.707645,-0.43849)"><stop offset="0" style="stop-color:white;stop-opacity:1"/><stop offset="1" style="stop-color:rgb(224,224,224);stop-opacity:1"/></linearGradient>
        <linearGradient id="_Linear36" x1="0" y1="0" x2="1" y2="0" gradientUnits="userSpaceOnUse" gradientTransform="matrix(1,0,0,-1,0,0.00891051)"><stop offset="0" style="stop-color:rgb(30,30,30);stop-opacity:1"/><stop offset="0.12" style="stop-color:rgb(100,100,100);stop-opacity:1"/><stop offset="1" style="stop-color:rgb(30,30,30);stop-opacity:1"/></linearGradient>
    </defs>
</svg>
