<?xml version="1.0" encoding="UTF-8" standalone="no"?>
<!DOCTYPE svg PUBLIC "-//W3C//DTD SVG 1.1//EN" "http://www.w3.org/Graphics/SVG/1.1/DTD/svg11.dtd">
<svg width="100%" height="100%" viewBox="0 0 815 189" version="1.1" xmlns="http://www.w3.org/2000/svg" xmlns:xlink="http://www.w3.org/1999/xlink" xml:space="preserve" xmlns:serif="http://www.serif.com/" style="fill-rule:evenodd;clip-rule:evenodd;stroke-linejoin:round;stroke-miterlimit:2;">
    <g id="Layer-2" serif:id="Layer 2">
        <g transform="matrix(1,0,0,1,9.8806,47.3241)">
            <path d="M0,140.498C-11.206,146.455 -21.489,105.324 20.581,65.613C52.155,35.81 99.924,21.625 141.563,17.859C347.058,-0.723 466.494,201.04 675.89,79.316C714.345,56.962 749.982,12.789 748.973,11.711C723.493,24.64 692.681,38.438 676.615,14.34C672.16,6.543 678.972,-1.971 688.511,-7.599C699.219,-13.915 708.308,-13.338 719.528,-16.105C767.49,-27.213 780.536,-60.542 799.99,-41.631C809.196,-30.792 802.797,-20.133 801.384,6.082C799.862,33.913 809.126,65.738 790.841,73.022C780.617,76.954 762.244,71.265 757.522,56.809C754.319,48.089 756.991,26.055 756.686,25.411C755.901,23.761 746.488,42.92 729.731,57.77C571.366,198.129 417.888,108.549 298.169,64C122.256,-1.46 13.818,77.722 0,140.498" style="fill:rgb(205,179,130);fill-rule:nonzero;"/>
        </g>
        <g transform="matrix(1,0,0,1,260.789,120.033)">
            <path d="M0,5.864C-3.613,9.505 -2.123,5.203 -20.585,2.2C-57.723,-3.842 -64.583,-4.682 -96.719,0.931C-121.725,5.301 -165.607,15.576 -185.955,30.667C-190.82,34.276 -197.178,29.232 -193.131,23.909C-176.382,1.877 -112.124,-28.412 -37.894,-11.961C-28.673,-9.918 -8.471,-3.725 -1.58,2.745C-0.762,3.512 -0.485,4.856 0,5.864" style="fill:rgb(205,179,130);fill-rule:nonzero;"/>
        </g>
    </g>
</svg>
