<svg viewBox="0 0 19 15" xmlns="http://www.w3.org/2000/svg">
	<g transform="matrix(0.0350386,0,0,0.0295907,0,-0.558827)">
        <path d="M509.687,237.877L329.29,21.751C327.71,20.183 299.368,14.841 289.672,24.636C284.739,29.618 281.996,32.414 280.67,40.148C279.548,46.696 282.489,59.859 282.933,60.303L421.393,226.32L15.135,226.971C9.239,226.972 0,239.437 0,245.333L0,266.666C0,272.562 4.771,285.509 10.667,285.509L422.532,283.437L289.664,451.966C282.036,460.81 286.642,483.86 299.037,491.859C310.772,499.432 330.358,496.264 336.69,488.949L510.093,273.642C515.254,268.853 515.027,241.383 509.687,237.877Z" style="fill:#5D5D5D;fill-rule:nonzero;"/>
    </g>
    <g transform="matrix(0.0350386,0,0,0.0295907,0.0209389,-0.585571)">
        <path d="M509.687,237.877L329.29,21.751C327.71,20.183 299.368,14.841 289.672,24.636C284.739,29.618 281.996,32.414 280.67,40.148C279.548,46.696 282.489,59.859 282.933,60.303L421.393,226.32L15.135,226.971C9.239,226.972 0,239.437 0,245.333L0,266.666C0,272.562 4.771,285.509 10.667,285.509L422.532,283.437L289.664,451.966C282.036,460.81 286.642,483.86 299.037,491.859C310.772,499.432 330.358,496.264 336.69,488.949L510.093,273.642C515.254,268.853 515.027,241.383 509.687,237.877Z" style="fill:#5D5D5D;fill-rule:nonzero;"/>
    </g>
</svg>