<?xml version="1.0" encoding="UTF-8" standalone="no"?>
<!DOCTYPE svg PUBLIC "-//W3C//DTD SVG 1.1//EN" "http://www.w3.org/Graphics/SVG/1.1/DTD/svg11.dtd">
<svg width="100%" height="100%" viewBox="0 0 427 448" version="1.1" xmlns="http://www.w3.org/2000/svg" xmlns:xlink="http://www.w3.org/1999/xlink" xml:space="preserve" xmlns:serif="http://www.serif.com/" style="fill-rule:evenodd;clip-rule:evenodd;stroke-linejoin:round;stroke-miterlimit:2;">
    <g transform="matrix(1,0,0,1,-42.332,-64)">
        <path d="M255.668,512C211.551,512 175.668,476.117 175.668,432C175.668,423.168 182.836,416 191.668,416C200.5,416 207.668,423.168 207.668,432C207.668,458.477 229.191,480 255.668,480C282.141,480 303.668,458.477 303.668,432C303.668,423.168 310.836,416 319.668,416C328.5,416 335.668,423.168 335.668,432C335.668,476.117 299.785,512 255.668,512Z" style="fill-rule:nonzero;"/>
    </g>
    <g transform="matrix(1,0,0,1,-42.332,-64)">
        <path d="M431.668,448L79.668,448C59.078,448 42.332,431.254 42.332,410.668C42.332,399.742 47.09,389.398 55.391,382.293C87.836,354.879 106.332,315.031 106.332,272.813L106.332,213.332C106.332,130.988 173.32,64 255.668,64C338.012,64 405,130.988 405,213.332L405,272.813C405,315.031 423.496,354.879 455.73,382.145C464.242,389.398 469,399.742 469,410.668C469,431.254 452.254,448 431.668,448ZM255.668,96C190.961,96 138.332,148.629 138.332,213.332L138.332,272.813C138.332,324.457 115.699,373.227 76.254,406.57C75.508,407.211 74.332,408.535 74.332,410.668C74.332,413.566 76.766,416 79.668,416L431.668,416C434.566,416 437,413.566 437,410.668C437,408.535 435.828,407.211 435.121,406.613C395.633,373.227 373,324.457 373,272.813L373,213.332C373,148.629 320.371,96 255.668,96Z" style="fill-rule:nonzero;"/>
    </g>
</svg>
