<?xml version="1.0" encoding="UTF-8" standalone="no"?>
<!DOCTYPE svg PUBLIC "-//W3C//DTD SVG 1.1//EN" "http://www.w3.org/Graphics/SVG/1.1/DTD/svg11.dtd">
<svg width="100%" height="100%" viewBox="0 0 397 347" version="1.1" xmlns="http://www.w3.org/2000/svg" xmlns:xlink="http://www.w3.org/1999/xlink" xml:space="preserve" xmlns:serif="http://www.serif.com/" style="fill-rule:evenodd;clip-rule:evenodd;stroke-linejoin:round;stroke-miterlimit:2;">
    <g transform="matrix(2.389,0,0,2.69247,112.35,40.5848)">
        <path d="M0,100.468L-25.597,56.194C-27.785,52.408 -27.787,47.743 -25.601,43.956L-0.208,-0.024C1.978,-3.811 6.019,-6.142 10.391,-6.14L61.532,-6.11C65.897,-6.107 69.929,-3.779 72.114,0L97.711,44.275C99.899,48.06 99.901,52.726 97.714,56.512L72.323,100.491C70.137,104.278 66.096,106.61 61.724,106.607L10.582,106.577C6.217,106.574 2.185,104.246 0,100.468" style="fill:white;fill-rule:nonzero;"/>
    </g>
    <g id="Layer-2" serif:id="Layer 2">
        <g transform="matrix(1,0,0,1,336.937,166.519)">
            <path d="M0,13.788L-63.363,123.537C-65.777,127.719 -70.24,130.294 -75.068,130.291L-202.077,130.215C-206.896,130.212 -211.349,127.641 -213.762,123.469L-277.33,13.515C-279.747,9.335 -279.749,4.183 -277.334,0.001L-213.971,-109.748C-211.557,-113.929 -207.094,-116.504 -202.266,-116.502L-75.258,-116.426C-70.438,-116.423 -65.985,-113.852 -63.573,-109.68L-0.004,0.274C2.413,4.454 2.414,9.606 0,13.788M57.831,0.412L-34.805,-159.817C-37.162,-163.894 -41.513,-166.406 -46.222,-166.409L-231.302,-166.519C-236.02,-166.522 -240.38,-164.005 -242.739,-159.92L-335.168,0.173C-337.527,4.258 -337.526,9.293 -335.165,13.377L-242.53,173.606C-240.173,177.684 -235.822,180.195 -231.112,180.198L-46.032,180.308C-41.314,180.31 -36.954,177.795 -34.595,173.709L57.834,13.616C60.193,9.53 60.192,4.496 57.831,0.412" style="fill:rgb(93,93,93);fill-rule:nonzero;"/>
        </g>
        <g transform="matrix(1,0,0,1,162.213,123.179)">
            <path d="M0,100.468L-25.597,56.194C-27.785,52.408 -27.787,47.743 -25.601,43.956L-0.208,-0.024C1.978,-3.811 6.019,-6.142 10.391,-6.14L61.532,-6.11C65.897,-6.107 69.929,-3.779 72.114,0L97.711,44.275C99.899,48.06 99.901,52.726 97.714,56.512L72.323,100.491C70.137,104.278 66.096,106.61 61.724,106.607L10.582,106.577C6.217,106.574 2.185,104.246 0,100.468" style="fill:rgb(93,93,93);fill-rule:nonzero;"/>
        </g>
    </g>
</svg>
