<?xml version="1.0" encoding="UTF-8" standalone="no"?>
<!DOCTYPE svg PUBLIC "-//W3C//DTD SVG 1.1//EN" "http://www.w3.org/Graphics/SVG/1.1/DTD/svg11.dtd">
<svg width="100%" height="100%" viewBox="0 0 513 446" version="1.1" xmlns="http://www.w3.org/2000/svg" xmlns:xlink="http://www.w3.org/1999/xlink" xml:space="preserve" xmlns:serif="http://www.serif.com/" style="fill-rule:evenodd;clip-rule:evenodd;stroke-linejoin:round;stroke-miterlimit:2;">
    <g transform="matrix(1,0,0,1,0.0005,-33.159)">
        <g>
            <path d="M510.432,249.597L388.297,38.537C386.201,34.906 382.33,33.159 378.138,33.159L133.861,33.159C129.669,33.159 125.798,34.906 123.702,38.537L1.567,249.841C-0.523,253.472 -0.523,257.817 1.567,261.448L123.702,472.983C125.798,476.615 129.669,478.841 133.861,478.841L378.137,478.841C382.329,478.841 386.2,476.553 388.296,472.922L510.431,261.353C512.523,257.722 512.523,253.228 510.432,249.597ZM371.369,455.384L140.63,455.384L25.27,256.003L140.63,56.616L371.368,56.616L486.728,256.003L371.369,455.384Z" style="fill:rgb(207,182,135);fill-rule:nonzero;"/>
            <path d="M510.432,249.597L388.297,38.537C386.201,34.906 382.33,33.159 378.138,33.159L133.861,33.159C129.669,33.159 125.798,34.906 123.702,38.537L1.567,249.841C-0.523,253.472 -0.523,257.817 1.567,261.448L123.702,472.983C125.798,476.615 129.669,478.841 133.861,478.841L378.137,478.841C382.329,478.841 386.2,476.553 388.296,472.922L510.431,261.353C512.523,257.722 512.523,253.228 510.432,249.597ZM371.369,455.384L140.63,455.384L25.27,256.003L140.63,56.616L371.368,56.616L486.728,256.003L371.369,455.384Z" style="fill:rgb(207,182,135);fill-rule:nonzero;"/>
            <g transform="matrix(0.936909,0,0,0.94278,17.0012,14.365)">
                <path d="M510.432,249.597L388.297,38.537C386.201,34.906 382.33,33.159 378.138,33.159L133.861,33.159C129.669,33.159 125.798,34.906 123.702,38.537L1.567,249.841C-0.523,253.472 -0.523,257.817 1.567,261.448L123.702,472.983C125.798,476.615 129.669,478.841 133.861,478.841L378.137,478.841C382.329,478.841 386.2,476.553 388.296,472.922L510.431,261.353C512.523,257.722 512.523,253.228 510.432,249.597ZM371.369,455.384L140.63,455.384L25.27,256.003L140.63,56.616L371.368,56.616L486.728,256.003L371.369,455.384Z" style="fill:rgb(207,182,135);fill-rule:nonzero;"/>
            </g>
        </g>
        <g transform="matrix(0.609199,0,0,0.609199,117.221,127.568)">
            <path d="M151.767,369.106C146.315,369.106 140.862,367.02 136.709,362.866L6.248,232.402C-2.083,224.075 -2.083,210.612 6.248,202.285C14.575,193.958 28.034,193.958 36.365,202.285L151.767,317.687L397.637,71.82C405.964,63.493 419.424,63.493 427.754,71.82C436.081,80.151 436.081,93.611 427.754,101.941L166.829,362.866C162.676,367.02 157.219,369.106 151.767,369.106Z" style="fill:rgb(207,182,135);fill-rule:nonzero;"/>
        </g>
        <g transform="matrix(0.609199,0,0,0.609199,121.755,132.668)">
            <path d="M151.767,369.106C146.315,369.106 140.862,367.02 136.709,362.866L6.248,232.402C-2.083,224.075 -2.083,210.612 6.248,202.285C14.575,193.958 28.034,193.958 36.365,202.285L151.767,317.687L397.637,71.82C405.964,63.493 419.424,63.493 427.754,71.82C436.081,80.151 436.081,93.611 427.754,101.941L166.829,362.866C162.676,367.02 157.219,369.106 151.767,369.106Z" style="fill:rgb(207,182,135);fill-rule:nonzero;"/>
        </g>
        <g transform="matrix(0.609199,0,0,0.609199,121.188,128.701)">
            <path d="M151.767,369.106C146.315,369.106 140.862,367.02 136.709,362.866L6.248,232.402C-2.083,224.075 -2.083,210.612 6.248,202.285C14.575,193.958 28.034,193.958 36.365,202.285L151.767,317.687L397.637,71.82C405.964,63.493 419.424,63.493 427.754,71.82C436.081,80.151 436.081,93.611 427.754,101.941L166.829,362.866C162.676,367.02 157.219,369.106 151.767,369.106Z" style="fill:rgb(207,182,135);fill-rule:nonzero;"/>
        </g>
    </g>
</svg>
