<?xml version="1.0" encoding="UTF-8" standalone="no"?>
<!DOCTYPE svg PUBLIC "-//W3C//DTD SVG 1.1//EN" "http://www.w3.org/Graphics/SVG/1.1/DTD/svg11.dtd">
<svg width="100%" height="100%" viewBox="0 0 513 446" version="1.1" xmlns="http://www.w3.org/2000/svg" xmlns:xlink="http://www.w3.org/1999/xlink" xml:space="preserve" xmlns:serif="http://www.serif.com/" style="fill-rule:evenodd;clip-rule:evenodd;stroke-linejoin:round;stroke-miterlimit:2;">
    <g transform="matrix(1,0,0,1,0.0005,-33.159)">
        <g>
            <path d="M510.432,249.597L388.297,38.537C386.201,34.906 382.33,33.159 378.138,33.159L133.861,33.159C129.669,33.159 125.798,34.906 123.702,38.537L1.567,249.841C-0.523,253.472 -0.523,257.817 1.567,261.448L123.702,472.983C125.798,476.615 129.669,478.841 133.861,478.841L378.137,478.841C382.329,478.841 386.2,476.553 388.296,472.922L510.431,261.353C512.523,257.722 512.523,253.228 510.432,249.597ZM371.369,455.384L140.63,455.384L25.27,256.003L140.63,56.616L371.368,56.616L486.728,256.003L371.369,455.384Z" style="fill:rgb(94,195,148);fill-rule:nonzero;"/>
            <path d="M510.432,249.597L388.297,38.537C386.201,34.906 382.33,33.159 378.138,33.159L133.861,33.159C129.669,33.159 125.798,34.906 123.702,38.537L1.567,249.841C-0.523,253.472 -0.523,257.817 1.567,261.448L123.702,472.983C125.798,476.615 129.669,478.841 133.861,478.841L378.137,478.841C382.329,478.841 386.2,476.553 388.296,472.922L510.431,261.353C512.523,257.722 512.523,253.228 510.432,249.597ZM371.369,455.384L140.63,455.384L25.27,256.003L140.63,56.616L371.368,56.616L486.728,256.003L371.369,455.384Z" style="fill:rgb(244,93,133);fill-rule:nonzero;"/>
            <g transform="matrix(0.936909,0,0,0.94278,17.0012,14.365)">
                <path d="M510.432,249.597L388.297,38.537C386.201,34.906 382.33,33.159 378.138,33.159L133.861,33.159C129.669,33.159 125.798,34.906 123.702,38.537L1.567,249.841C-0.523,253.472 -0.523,257.817 1.567,261.448L123.702,472.983C125.798,476.615 129.669,478.841 133.861,478.841L378.137,478.841C382.329,478.841 386.2,476.553 388.296,472.922L510.431,261.353C512.523,257.722 512.523,253.228 510.432,249.597ZM371.369,455.384L140.63,455.384L25.27,256.003L140.63,56.616L371.368,56.616L486.728,256.003L371.369,455.384Z" style="fill:rgb(244,93,133);fill-rule:nonzero;"/>
            </g>
        </g>
        <g transform="matrix(0.681667,0.681667,-0.893263,0.893263,221.005,-70.4406)">
            <rect x="134.091" y="149.611" width="265.787" height="27.202" style="fill:rgb(244,93,133);"/>
        </g>
        <g transform="matrix(0.681667,-0.681667,0.893263,0.893263,-67.397,294.839)">
            <rect x="134.091" y="149.611" width="265.787" height="27.202" style="fill:rgb(244,93,133);"/>
        </g>
    </g>
</svg>
