<?xml version="1.0" encoding="UTF-8" standalone="no"?>
<!DOCTYPE svg PUBLIC "-//W3C//DTD SVG 1.1//EN" "http://www.w3.org/Graphics/SVG/1.1/DTD/svg11.dtd">
<svg width="100%" height="100%" viewBox="0 0 1746 347" version="1.1" xmlns="http://www.w3.org/2000/svg" xmlns:xlink="http://www.w3.org/1999/xlink" xml:space="preserve" xmlns:serif="http://www.serif.com/" style="fill-rule:evenodd;clip-rule:evenodd;stroke-linejoin:round;stroke-miterlimit:2;">
    <g id="Layer-2" serif:id="Layer 2">
        <g transform="matrix(1,0,0,1,675.169,277.923)">
            <path d="M0,-215.902L0,-158.241L-63.354,4.266C-66.555,12.122 -71.603,16.049 -78.497,16.049C-85.76,16.049 -90.93,12.13 -94.007,4.294L-156.93,-158.241L-156.93,-215.902C-156.93,-220.381 -155.417,-224.174 -152.387,-227.285C-149.36,-230.393 -145.682,-231.951 -141.353,-231.951C-137.027,-231.951 -133.349,-230.393 -130.319,-227.285C-127.292,-224.177 -125.776,-220.383 -125.776,-215.908L-125.776,-164.798L-78.465,-43.106L-31.168,-164.431L-31.168,-215.911C-31.168,-220.386 -29.653,-224.18 -26.623,-227.288C-23.592,-230.396 -19.914,-231.951 -15.583,-231.951C-11.257,-231.951 -7.576,-230.393 -4.545,-227.285C-1.515,-224.174 0,-220.381 0,-215.902" style="fill:rgb(52,52,52);fill-rule:nonzero;"/>
        </g>
        <g transform="matrix(1,0,0,1,807.268,221.382)">
            <path d="M0,-102.82L-26.666,-13.062L25.932,-13.062L0,-102.82ZM-78.101,50.755L-15.502,-163.753C-13.009,-171.523 -7.77,-175.41 0.217,-175.41C7.949,-175.41 12.815,-172.112 14.811,-165.522L76.799,52.25C77.29,53.868 77.539,55.423 77.539,56.915C77.539,61.271 76.059,64.972 73.098,68.018C70.137,71.068 66.747,72.59 62.925,72.59C54.786,72.59 49.607,68.797 47.39,61.205L35.101,18.661L-36.089,18.661L-49.63,64.237C-50.003,66.219 -51.553,68.105 -54.28,69.899C-57.01,71.695 -59.985,72.59 -63.209,72.59C-67.798,72.59 -71.58,71.036 -74.556,67.925C-77.534,64.816 -79.02,61.02 -79.02,56.542C-79.02,54.676 -78.713,52.749 -78.101,50.755" style="fill:rgb(52,52,52);fill-rule:nonzero;"/>
        </g>
        <g transform="matrix(1,0,0,1,952.256,92.9962)">
            <path d="M0,153.951L0,-30.975C0,-35.329 1.541,-39.093 4.626,-42.265C7.708,-45.438 11.349,-47.024 15.545,-47.024C19.737,-47.024 23.378,-45.466 26.463,-42.359C29.545,-39.248 31.09,-35.577 31.09,-31.349L31.09,153.951C31.09,158.056 32.631,161.634 35.716,164.68C38.798,167.73 42.438,169.253 46.635,169.253L110.295,169.253C114.611,169.253 118.281,167.76 121.306,164.774C124.327,161.789 125.84,158.181 125.84,153.951L125.84,-30.975C125.84,-35.454 127.349,-39.248 130.373,-42.359C133.395,-45.466 137.064,-47.024 141.385,-47.024C145.701,-47.024 149.371,-45.466 152.396,-42.359C155.417,-39.248 156.93,-35.454 156.93,-30.975L156.93,153.578C156.93,166.518 152.332,177.649 143.143,186.981C133.95,196.31 123,200.975 110.295,200.975L46.635,200.975C33.802,200.975 22.822,196.375 13.693,187.167C4.562,177.962 0,166.891 0,153.951" style="fill:rgb(52,52,52);fill-rule:nonzero;"/>
        </g>
        <g transform="matrix(1,0,0,1,1189,45.9716)">
            <path d="M0,248L0,15.675C0,11.448 1.542,7.777 4.627,4.666C7.709,1.558 11.35,0 15.545,0C19.738,0 23.379,1.558 26.464,4.666C29.546,7.777 31.09,11.448 31.09,15.675L31.09,216.65L141.016,216.65C145.332,216.65 149.065,218.176 152.211,221.223C155.357,224.272 156.93,227.972 156.93,232.325C156.93,236.682 155.357,240.382 152.211,243.429C149.065,246.479 145.332,248 141.016,248L0,248Z" style="fill:rgb(52,52,52);fill-rule:nonzero;"/>
        </g>
        <g transform="matrix(1,0,0,1,1683.14,164.991)">
            <path d="M0,9.962L0,113.285C0,117.648 -1.545,121.354 -4.627,124.403C-7.712,127.455 -11.353,128.981 -15.545,128.981C-19.986,128.981 -23.752,127.459 -26.834,124.409C-29.919,121.359 -31.461,117.659 -31.461,113.303L-31.461,10.081L-94.01,-69.755L-94.01,-102.97C-94.01,-107.449 -92.501,-111.243 -89.477,-114.353C-86.455,-117.461 -82.785,-119.019 -78.465,-119.019C-74.148,-119.019 -70.415,-117.421 -67.27,-114.231C-64.123,-111.038 -62.551,-107.253 -62.551,-102.874L-62.551,-81.286L-15.916,-20.863L31.459,-81.222L31.459,-103.005C31.459,-107.35 33.001,-111.103 36.086,-114.268C39.168,-117.435 42.809,-119.019 47.004,-119.019C51.076,-119.019 54.685,-117.555 57.83,-114.633C60.977,-111.708 62.549,-107.823 62.549,-102.97L62.549,-70.127L0,9.962Z" style="fill:rgb(52,52,52);fill-rule:nonzero;"/>
        </g>
        <g transform="matrix(1,0,0,1,1532.47,278.426)">
            <path d="M0,-216.591C0,-220.783 -1.522,-224.424 -4.572,-227.509C-7.104,-230.07 -10.094,-231.553 -13.529,-231.987L-13.529,-232.08L-14.442,-232.08C-14.849,-232.109 -15.256,-232.136 -15.675,-232.136L-27.058,-232.136L-27.058,-232.08L-170.459,-232.08L-170.459,-231.779C-173.815,-231.325 -176.743,-229.884 -179.229,-227.417C-182.278,-224.396 -183.801,-220.726 -183.801,-216.405C-183.801,-212.089 -182.278,-208.419 -179.229,-205.395C-176.743,-202.929 -173.815,-201.487 -170.459,-201.032L-170.459,-200.731L-107.91,-200.731L-107.91,-0.13C-107.91,4.227 -106.368,7.927 -103.283,10.974C-100.201,14.023 -96.436,15.545 -91.994,15.545C-87.802,15.545 -84.161,14.023 -81.076,10.974C-77.994,7.927 -76.449,4.227 -76.449,-0.13L-76.449,-200.731L-27.058,-200.731L-27.058,-200.675L-15.675,-200.675C-15.275,-200.675 -14.887,-200.702 -14.497,-200.731L-13.529,-200.731L-13.529,-200.835C-10.193,-201.286 -7.234,-202.794 -4.665,-205.395C-1.555,-208.54 0,-212.271 0,-216.591" style="fill:rgb(52,52,52);fill-rule:nonzero;"/>
        </g>
        <g transform="matrix(1,0,0,1,336.937,166.519)">
            <path d="M0,13.788L-63.363,123.537C-65.777,127.719 -70.24,130.294 -75.068,130.291L-202.077,130.215C-206.896,130.212 -211.349,127.641 -213.762,123.469L-277.33,13.515C-279.747,9.335 -279.749,4.183 -277.334,0.001L-213.971,-109.748C-211.557,-113.929 -207.094,-116.504 -202.266,-116.502L-75.258,-116.426C-70.438,-116.423 -65.985,-113.852 -63.573,-109.68L-0.004,0.274C2.413,4.454 2.414,9.606 0,13.788M57.831,0.412L-34.805,-159.817C-37.162,-163.894 -41.513,-166.406 -46.222,-166.409L-231.302,-166.519C-236.02,-166.522 -240.38,-164.005 -242.739,-159.92L-335.168,0.173C-337.527,4.258 -337.526,9.293 -335.165,13.377L-242.53,173.606C-240.173,177.684 -235.822,180.195 -231.112,180.198L-46.032,180.308C-41.314,180.31 -36.954,177.795 -34.595,173.709L57.834,13.616C60.193,9.53 60.192,4.496 57.831,0.412" style="fill:rgb(52,52,52);fill-rule:nonzero;"/>
        </g>
        <g transform="matrix(1,0,0,1,162.213,123.179)">
            <path d="M0,100.468L-25.597,56.194C-27.785,52.408 -27.787,47.743 -25.601,43.956L-0.208,-0.024C1.978,-3.811 6.019,-6.142 10.391,-6.14L61.532,-6.11C65.897,-6.107 69.929,-3.779 72.114,0L97.711,44.275C99.899,48.06 99.901,52.726 97.714,56.512L72.323,100.491C70.137,104.278 66.096,106.61 61.724,106.607L10.582,106.577C6.217,106.574 2.185,104.246 0,100.468" style="fill:rgb(52,52,52);fill-rule:nonzero;"/>
        </g>
    </g>
</svg>
