<?xml version="1.0" encoding="UTF-8" standalone="no"?>
<!DOCTYPE svg PUBLIC "-//W3C//DTD SVG 1.1//EN" "http://www.w3.org/Graphics/SVG/1.1/DTD/svg11.dtd">
<svg width="100%" height="100%" viewBox="0 0 560 609" version="1.1" xmlns="http://www.w3.org/2000/svg" xmlns:xlink="http://www.w3.org/1999/xlink" xml:space="preserve" xmlns:serif="http://www.serif.com/" style="fill-rule:evenodd;clip-rule:evenodd;stroke-linejoin:round;stroke-miterlimit:2;">
    <g id="Layer-1" serif:id="Layer 1">
        <g transform="matrix(559.375,0,0,-559.375,0,304.089)">
            <path d="M0.5,0.544L0.44,0.479C0.346,0.378 0.211,0.319 0.075,0.302L0,0.293L0.004,0.217C0.02,-0.09 0.192,-0.368 0.46,-0.521L0.5,-0.544L0.54,-0.521C0.808,-0.368 0.98,-0.09 0.996,0.217L1,0.293L0.925,0.302C0.789,0.319 0.654,0.378 0.56,0.479L0.5,0.544Z" style="fill:url(#_Linear1);fill-rule:nonzero;"/>
        </g>
        <g transform="matrix(1,0,0,1,554.214,426.897)">
            <path d="M0,-244.614C-8.769,-73.404 -104.52,81.171 -253.482,165.849L-274.526,177.824L-295.521,165.849C-444.483,81.171 -540.234,-73.404 -549.003,-244.614L-551.058,-284.147L-511.775,-289.008C-435.063,-298.527 -358.804,-331.647 -305.692,-388.817L-274.526,-422.438L-243.311,-388.817C-190.249,-331.647 -113.939,-298.527 -37.278,-289.008L2.004,-284.147L0,-244.614Z" style="fill:white;"/>
        </g>
        <g transform="matrix(1,0,0,1,279.688,555.769)">
            <path d="M0,-488.778C-55.316,-429.153 -137.64,-387.364 -231.987,-375.64C-223.721,-214.501 -132.429,-75.309 0,0L0,-488.778Z" style="fill:rgb(168,147,107);"/>
        </g>
        <g transform="matrix(1,0,0,1,279.688,555.769)">
            <path d="M0,-488.778C55.316,-429.153 137.639,-387.364 232.037,-375.64C223.771,-214.501 132.428,-75.309 0,0L0,-488.778Z" style="fill:rgb(205,179,130);"/>
        </g>
        <g transform="matrix(1,0,0,1,279.688,245.767)">
            <path d="M0,-73.905C-10.322,-73.905 -19.691,-69.646 -26.506,-62.882C-33.32,-56.067 -37.529,-46.648 -37.529,-36.376L-37.529,-0.05L37.579,-0.05L37.579,-36.376C37.579,-46.648 33.32,-56.067 26.506,-62.882C19.691,-69.646 10.321,-73.905 0,-73.905M0,-98.908C17.236,-98.908 32.869,-91.893 44.242,-80.569C55.566,-69.245 62.581,-53.562 62.581,-36.376L62.581,12.477C62.581,19.391 56.97,25.003 50.055,25.003L-50.056,25.003C-56.97,25.003 -62.582,19.391 -62.582,12.477L-62.582,-36.376C-62.582,-53.562 -55.517,-69.245 -44.193,-80.569C-32.869,-91.893 -17.236,-98.908 0,-98.908" style="fill:rgb(246,249,252);fill-rule:nonzero;"/>
        </g>
        <g transform="matrix(1,0,0,1,279.688,432.661)">
            <path d="M0,-189.85L83.476,-189.85C92.645,-189.85 100.16,-182.334 100.16,-173.165L100.16,-16.686C100.16,-7.517 92.645,0 83.476,0L0,0L0,-189.85Z" style="fill:rgb(227,213,186);"/>
        </g>
        <g transform="matrix(1,0,0,1,196.262,432.661)">
            <path d="M0,-189.85L83.426,-189.85L83.426,0L0,0C-9.169,0 -16.685,-7.517 -16.685,-16.686L-16.685,-173.165C-16.685,-182.334 -9.169,-189.85 0,-189.85" style="fill:rgb(205,179,130);"/>
        </g>
        <g transform="matrix(1,0,0,1,279.688,369.328)">
            <path d="M0,-73.355C12.576,-73.355 22.798,-63.184 22.798,-50.607C22.798,-41.338 17.236,-33.372 9.27,-29.814L9.871,-28.21L19.691,0L-19.691,0L-9.821,-28.21L-9.27,-29.814C-17.187,-33.372 -22.748,-41.338 -22.748,-50.607C-22.748,-63.184 -12.576,-73.355 0,-73.355" style="fill:rgb(168,147,107);"/>
        </g>
        <g transform="matrix(1,0,0,1,286.051,369.227)">
            <path d="M0,-72.353C9.47,-69.597 16.435,-60.878 16.435,-50.506C16.435,-41.238 10.873,-33.271 2.906,-29.713L3.508,-28.11L13.328,0.1L-21.194,0.1L-11.625,-27.258L-11.073,-28.912C-19.04,-32.419 -24.552,-40.436 -24.552,-49.655C-24.552,-62.232 -14.38,-72.453 -1.804,-72.453C-1.203,-72.453 -0.602,-72.403 0,-72.353" style="fill:rgb(205,179,130);"/>
        </g>
        <g transform="matrix(0.450781,0.892635,0.892635,-0.450781,55.5333,453.614)">
            <path d="M-0.062,-0.1L0.163,-0.1" style="fill:none;"/>
        </g>
        <g transform="matrix(0.447214,0.894427,0.894427,-0.447214,55.4836,453.515)">
            <path d="M-0.062,-0.1L0.162,-0.1" style="fill:none;"/>
        </g>
        <g transform="matrix(-0.707107,-0.707107,-0.707107,0.707107,55.3913,453.543)">
            <path d="M-0.06,0.025L0.01,0.025" style="fill:none;"/>
        </g>
    </g>
    <defs>
        <linearGradient id="_Linear1" x1="0" y1="0" x2="1" y2="0" gradientUnits="userSpaceOnUse" gradientTransform="matrix(1,0,0,-1,0,-1.89497e-07)"><stop offset="0" style="stop-color:rgb(131,114,83);stop-opacity:1"/><stop offset="1" style="stop-color:rgb(131,114,83);stop-opacity:1"/></linearGradient>
    </defs>
</svg>
