<svg xmlns='http://www.w3.org/2000/svg' xmlns:xlink='http://www.w3.org/1999/xlink'>

	<symbol id="user_icon" viewBox="0 0 460.8 460.8">
		<g>
			<g>
				<path d="M230.432,0c-65.829,0-119.641,53.812-119.641,119.641s53.812,119.641,119.641,119.641s119.641-53.812,119.641-119.641
				S296.261,0,230.432,0z"/>
			</g>
			<g>
				<path d="M435.755,334.89c-3.135-7.837-7.314-15.151-12.016-21.943c-24.033-35.527-61.126-59.037-102.922-64.784
				c-5.224-0.522-10.971,0.522-15.151,3.657c-21.943,16.196-48.065,24.555-75.233,24.555s-53.29-8.359-75.233-24.555
				c-4.18-3.135-9.927-4.702-15.151-3.657c-41.796,5.747-79.412,29.257-102.922,64.784c-4.702,6.792-8.882,14.629-12.016,21.943
				c-1.567,3.135-1.045,6.792,0.522,9.927c4.18,7.314,9.404,14.629,14.106,20.898c7.314,9.927,15.151,18.808,24.033,27.167
				c7.314,7.314,15.673,14.106,24.033,20.898c41.273,30.825,90.906,47.02,142.106,47.02s100.833-16.196,142.106-47.02
				c8.359-6.269,16.718-13.584,24.033-20.898c8.359-8.359,16.718-17.241,24.033-27.167c5.224-6.792,9.927-13.584,14.106-20.898
				C436.8,341.682,437.322,338.024,435.755,334.89z"/>
			</g>
		</g>
	</symbol>

	<symbol id="basket_icon" viewBox="0 -31 512.00026 512">
		<g>
			<path d="m164.960938 300.003906h.023437c.019531 0 .039063-.003906.058594-.003906h271.957031c6.695312 0 12.582031-4.441406 14.421875-10.878906l60-210c1.292969-4.527344.386719-9.394532-2.445313-13.152344-2.835937-3.757812-7.269531-5.96875-11.976562-5.96875h-366.632812l-10.722657-48.253906c-1.527343-6.863282-7.613281-11.746094-14.644531-11.746094h-90c-8.285156 0-15 6.714844-15 15s6.714844 15 15 15h77.96875c1.898438 8.550781 51.3125 230.917969 54.15625 243.710938-15.941406 6.929687-27.125 22.824218-27.125 41.289062 0 24.8125 20.1875 45 45 45h272c8.285156 0 15-6.714844 15-15s-6.714844-15-15-15h-272c-8.269531 0-15-6.730469-15-15 0-8.257812 6.707031-14.976562 14.960938-14.996094zm312.152343-210.003906-51.429687 180h-248.652344l-40-180zm0 0"/><path d="m150 405c0 24.8125 20.1875 45 45 45s45-20.1875 45-45-20.1875-45-45-45-45 20.1875-45 45zm45-15c8.269531 0 15 6.730469 15 15s-6.730469 15-15 15-15-6.730469-15-15 6.730469-15 15-15zm0 0"/><path d="m362 405c0 24.8125 20.1875 45 45 45s45-20.1875 45-45-20.1875-45-45-45-45 20.1875-45 45zm45-15c8.269531 0 15 6.730469 15 15s-6.730469 15-15 15-15-6.730469-15-15 6.730469-15 15-15zm0 0"/>
		</g>
	</symbol>

	<symbol id="arrow_right" viewBox="0 0 19 15">
		<g transform="matrix(0.0350386,0,0,0.0295907,0,-0.558827)">
	        <path d="M509.687,237.877L329.29,21.751C327.71,20.183 299.368,14.841 289.672,24.636C284.739,29.618 281.996,32.414 280.67,40.148C279.548,46.696 282.489,59.859 282.933,60.303L421.393,226.32L15.135,226.971C9.239,226.972 0,239.437 0,245.333L0,266.666C0,272.562 4.771,285.509 10.667,285.509L422.532,283.437L289.664,451.966C282.036,460.81 286.642,483.86 299.037,491.859C310.772,499.432 330.358,496.264 336.69,488.949L510.093,273.642C515.254,268.853 515.027,241.383 509.687,237.877Z" style="fill-rule:nonzero;"/>
	    </g>
	    <g transform="matrix(0.0350386,0,0,0.0295907,0.0209389,-0.585571)">
	        <path d="M509.687,237.877L329.29,21.751C327.71,20.183 299.368,14.841 289.672,24.636C284.739,29.618 281.996,32.414 280.67,40.148C279.548,46.696 282.489,59.859 282.933,60.303L421.393,226.32L15.135,226.971C9.239,226.972 0,239.437 0,245.333L0,266.666C0,272.562 4.771,285.509 10.667,285.509L422.532,283.437L289.664,451.966C282.036,460.81 286.642,483.86 299.037,491.859C310.772,499.432 330.358,496.264 336.69,488.949L510.093,273.642C515.254,268.853 515.027,241.383 509.687,237.877Z" style="fill-rule:nonzero;"/>
	    </g>
	</symbol>

	<symbol id="close_icon" viewBox="0 0 18 18">
		<g>
			<g transform="matrix(1,0,0,1,1,-0.098)">
				<path d="M0,17.566C-0.256,17.566 -0.512,17.468 -0.707,17.273C-1.098,16.882 -1.098,16.25 -0.707,15.858L14.762,0.391C15.152,0 15.785,0 16.176,0.391C16.566,0.781 16.566,1.414 16.176,1.805L0.707,17.273C0.512,17.468 0.256,17.566 0,17.566" style="fill-rule:nonzero;"/>
			</g>
			<g transform="matrix(1,0,0,1,16.4688,-0.0975)">
				<path d="M0,17.566C-0.256,17.566 -0.512,17.468 -0.707,17.273L-16.176,1.805C-16.566,1.414 -16.566,0.782 -16.176,0.391C-15.785,0 -15.152,0 -14.762,0.391L0.707,15.858C1.098,16.25 1.098,16.882 0.707,17.273C0.512,17.468 0.256,17.566 0,17.566" style="fill-rule:nonzero;"/>
			</g>
		</g>
	</symbol>

	<symbol id="logo_icon" viewBox="0 0 1746 347">
		<g>
			<g transform="matrix(1,0,0,1,675.169,277.923)">
				<path d="M0,-215.902L0,-158.241L-63.354,4.266C-66.555,12.122 -71.603,16.049 -78.497,16.049C-85.76,16.049 -90.93,12.13 -94.007,4.294L-156.93,-158.241L-156.93,-215.902C-156.93,-220.381 -155.417,-224.174 -152.387,-227.285C-149.36,-230.393 -145.682,-231.951 -141.353,-231.951C-137.027,-231.951 -133.349,-230.393 -130.319,-227.285C-127.292,-224.177 -125.776,-220.383 -125.776,-215.908L-125.776,-164.798L-78.465,-43.106L-31.168,-164.431L-31.168,-215.911C-31.168,-220.386 -29.653,-224.18 -26.623,-227.288C-23.592,-230.396 -19.914,-231.951 -15.583,-231.951C-11.257,-231.951 -7.576,-230.393 -4.545,-227.285C-1.515,-224.174 0,-220.381 0,-215.902" style="fill-rule:nonzero;"/>
			</g>
			<g transform="matrix(1,0,0,1,807.268,221.382)">
				<path d="M0,-102.82L-26.666,-13.062L25.932,-13.062L0,-102.82ZM-78.101,50.755L-15.502,-163.753C-13.009,-171.523 -7.77,-175.41 0.217,-175.41C7.949,-175.41 12.815,-172.112 14.811,-165.522L76.799,52.25C77.29,53.868 77.539,55.423 77.539,56.915C77.539,61.271 76.059,64.972 73.098,68.018C70.137,71.068 66.747,72.59 62.925,72.59C54.786,72.59 49.607,68.797 47.39,61.205L35.101,18.661L-36.089,18.661L-49.63,64.237C-50.003,66.219 -51.553,68.105 -54.28,69.899C-57.01,71.695 -59.985,72.59 -63.209,72.59C-67.798,72.59 -71.58,71.036 -74.556,67.925C-77.534,64.816 -79.02,61.02 -79.02,56.542C-79.02,54.676 -78.713,52.749 -78.101,50.755" style="fill-rule:nonzero;"/>
			</g>
			<g transform="matrix(1,0,0,1,952.256,92.9962)">
				<path d="M0,153.951L0,-30.975C0,-35.329 1.541,-39.093 4.626,-42.265C7.708,-45.438 11.349,-47.024 15.545,-47.024C19.737,-47.024 23.378,-45.466 26.463,-42.359C29.545,-39.248 31.09,-35.577 31.09,-31.349L31.09,153.951C31.09,158.056 32.631,161.634 35.716,164.68C38.798,167.73 42.438,169.253 46.635,169.253L110.295,169.253C114.611,169.253 118.281,167.76 121.306,164.774C124.327,161.789 125.84,158.181 125.84,153.951L125.84,-30.975C125.84,-35.454 127.349,-39.248 130.373,-42.359C133.395,-45.466 137.064,-47.024 141.385,-47.024C145.701,-47.024 149.371,-45.466 152.396,-42.359C155.417,-39.248 156.93,-35.454 156.93,-30.975L156.93,153.578C156.93,166.518 152.332,177.649 143.143,186.981C133.95,196.31 123,200.975 110.295,200.975L46.635,200.975C33.802,200.975 22.822,196.375 13.693,187.167C4.562,177.962 0,166.891 0,153.951" style="fill-rule:nonzero;"/>
			</g>
			<g transform="matrix(1,0,0,1,1189,45.9716)">
				<path d="M0,248L0,15.675C0,11.448 1.542,7.777 4.627,4.666C7.709,1.558 11.35,0 15.545,0C19.738,0 23.379,1.558 26.464,4.666C29.546,7.777 31.09,11.448 31.09,15.675L31.09,216.65L141.016,216.65C145.332,216.65 149.065,218.176 152.211,221.223C155.357,224.272 156.93,227.972 156.93,232.325C156.93,236.682 155.357,240.382 152.211,243.429C149.065,246.479 145.332,248 141.016,248L0,248Z" style="fill-rule:nonzero;"/>
			</g>
			<g transform="matrix(1,0,0,1,1683.14,164.991)">
				<path d="M0,9.962L0,113.285C0,117.648 -1.545,121.354 -4.627,124.403C-7.712,127.455 -11.353,128.981 -15.545,128.981C-19.986,128.981 -23.752,127.459 -26.834,124.409C-29.919,121.359 -31.461,117.659 -31.461,113.303L-31.461,10.081L-94.01,-69.755L-94.01,-102.97C-94.01,-107.449 -92.501,-111.243 -89.477,-114.353C-86.455,-117.461 -82.785,-119.019 -78.465,-119.019C-74.148,-119.019 -70.415,-117.421 -67.27,-114.231C-64.123,-111.038 -62.551,-107.253 -62.551,-102.874L-62.551,-81.286L-15.916,-20.863L31.459,-81.222L31.459,-103.005C31.459,-107.35 33.001,-111.103 36.086,-114.268C39.168,-117.435 42.809,-119.019 47.004,-119.019C51.076,-119.019 54.685,-117.555 57.83,-114.633C60.977,-111.708 62.549,-107.823 62.549,-102.97L62.549,-70.127L0,9.962Z" style="fill-rule:nonzero;"/>
			</g>
			<g transform="matrix(1,0,0,1,1532.47,278.426)">
				<path d="M0,-216.591C0,-220.783 -1.522,-224.424 -4.572,-227.509C-7.104,-230.07 -10.094,-231.553 -13.529,-231.987L-13.529,-232.08L-14.442,-232.08C-14.849,-232.109 -15.256,-232.136 -15.675,-232.136L-27.058,-232.136L-27.058,-232.08L-170.459,-232.08L-170.459,-231.779C-173.815,-231.325 -176.743,-229.884 -179.229,-227.417C-182.278,-224.396 -183.801,-220.726 -183.801,-216.405C-183.801,-212.089 -182.278,-208.419 -179.229,-205.395C-176.743,-202.929 -173.815,-201.487 -170.459,-201.032L-170.459,-200.731L-107.91,-200.731L-107.91,-0.13C-107.91,4.227 -106.368,7.927 -103.283,10.974C-100.201,14.023 -96.436,15.545 -91.994,15.545C-87.802,15.545 -84.161,14.023 -81.076,10.974C-77.994,7.927 -76.449,4.227 -76.449,-0.13L-76.449,-200.731L-27.058,-200.731L-27.058,-200.675L-15.675,-200.675C-15.275,-200.675 -14.887,-200.702 -14.497,-200.731L-13.529,-200.731L-13.529,-200.835C-10.193,-201.286 -7.234,-202.794 -4.665,-205.395C-1.555,-208.54 0,-212.271 0,-216.591" style="fill-rule:nonzero;"/>
			</g>
			<g transform="matrix(1,0,0,1,336.937,166.519)">
				<path d="M0,13.788L-63.363,123.537C-65.777,127.719 -70.24,130.294 -75.068,130.291L-202.077,130.215C-206.896,130.212 -211.349,127.641 -213.762,123.469L-277.33,13.515C-279.747,9.335 -279.749,4.183 -277.334,0.001L-213.971,-109.748C-211.557,-113.929 -207.094,-116.504 -202.266,-116.502L-75.258,-116.426C-70.438,-116.423 -65.985,-113.852 -63.573,-109.68L-0.004,0.274C2.413,4.454 2.414,9.606 0,13.788M57.831,0.412L-34.805,-159.817C-37.162,-163.894 -41.513,-166.406 -46.222,-166.409L-231.302,-166.519C-236.02,-166.522 -240.38,-164.005 -242.739,-159.92L-335.168,0.173C-337.527,4.258 -337.526,9.293 -335.165,13.377L-242.53,173.606C-240.173,177.684 -235.822,180.195 -231.112,180.198L-46.032,180.308C-41.314,180.31 -36.954,177.795 -34.595,173.709L57.834,13.616C60.193,9.53 60.192,4.496 57.831,0.412" style="fill-rule:nonzero;"/>
			</g>
			<g transform="matrix(1,0,0,1,162.213,123.179)">
				<path d="M0,100.468L-25.597,56.194C-27.785,52.408 -27.787,47.743 -25.601,43.956L-0.208,-0.024C1.978,-3.811 6.019,-6.142 10.391,-6.14L61.532,-6.11C65.897,-6.107 69.929,-3.779 72.114,0L97.711,44.275C99.899,48.06 99.901,52.726 97.714,56.512L72.323,100.491C70.137,104.278 66.096,106.61 61.724,106.607L10.582,106.577C6.217,106.574 2.185,104.246 0,100.468" style="fill-rule:nonzero;"/>
			</g>
		</g>
	</symbol>

	<symbol id="twitter_icon" viewBox="0 0 512 512">
		<g>
			<path d="m475.074219 0h-438.148438c-20.394531 0-36.925781 16.53125-36.925781 36.925781v438.148438c0 20.394531 16.53125 36.925781 36.925781 36.925781h438.148438c20.394531 0 36.925781-16.53125 36.925781-36.925781v-438.148438c0-20.394531-16.53125-36.925781-36.925781-36.925781zm-102.1875 199.601562c.113281 2.519532.167969 5.050782.167969 7.59375 0 77.644532-59.101563 167.179688-167.183594 167.183594h.003906-.003906c-33.183594 0-64.0625-9.726562-90.066406-26.394531 4.597656.542969 9.277343.8125 14.015624.8125 27.53125 0 52.867188-9.390625 72.980469-25.152344-25.722656-.476562-47.410156-17.464843-54.894531-40.8125 3.582031.6875 7.265625 1.0625 11.042969 1.0625 5.363281 0 10.558593-.722656 15.496093-2.070312-26.886718-5.382813-47.140624-29.144531-47.140624-57.597657 0-.265624 0-.503906.007812-.75 7.917969 4.402344 16.972656 7.050782 26.613281 7.347657-15.777343-10.527344-26.148437-28.523438-26.148437-48.910157 0-10.765624 2.910156-20.851562 7.957031-29.535156 28.976563 35.554688 72.28125 58.9375 121.117187 61.394532-1.007812-4.304688-1.527343-8.789063-1.527343-13.398438 0-32.4375 26.316406-58.753906 58.765625-58.753906 16.902344 0 32.167968 7.144531 42.890625 18.566406 13.386719-2.640625 25.957031-7.53125 37.3125-14.261719-4.394531 13.714844-13.707031 25.222657-25.839844 32.5 11.886719-1.421875 23.214844-4.574219 33.742187-9.253906-7.863281 11.785156-17.835937 22.136719-29.308593 30.429687zm0 0"/>
		</g>
	</symbol>

	<symbol id="facebook_icon" viewBox="0 0 512 512">
		<g>
			<path d="m475.074219 0h-438.148438c-20.394531 0-36.925781 16.53125-36.925781 36.925781v438.148438c0 20.394531 16.53125 36.925781 36.925781 36.925781h236.574219v-198h-66.5v-77.5h66.5v-57.035156c0-66.140625 40.378906-102.140625 99.378906-102.140625 28.257813 0 52.542969 2.105469 59.621094 3.046875v69.128906h-40.683594c-32.101562 0-38.316406 15.253906-38.316406 37.640625v49.359375h76.75l-10 77.5h-66.75v198h121.574219c20.394531 0 36.925781-16.53125 36.925781-36.925781v-438.148438c0-20.394531-16.53125-36.925781-36.925781-36.925781zm0 0"/>
		</g>
	</symbol>

	<symbol id="check_icon" viewBox="0 -46 417.81333 417">
		<g>
			<path d="m159.988281 318.582031c-3.988281 4.011719-9.429687 6.25-15.082031 6.25s-11.09375-2.238281-15.082031-6.25l-120.449219-120.46875c-12.5-12.5-12.5-32.769531 0-45.246093l15.082031-15.085938c12.503907-12.5 32.75-12.5 45.25 0l75.199219 75.203125 203.199219-203.203125c12.503906-12.5 32.769531-12.5 45.25 0l15.082031 15.085938c12.5 12.5 12.5 32.765624 0 45.246093zm0 0"/>
		</g>
	</symbol>

	<symbol id="valid_icon" viewBox="0 0 515.556 515.556">
		<g>
			<path d="m257.778 0c-142.137 0-257.778 115.641-257.778 257.778s115.641 257.778 257.778 257.778 257.778-115.641 257.778-257.778-115.642-257.778-257.778-257.778zm-32.222 383.899-103.338-103.338 45.564-45.564 57.774 57.774 122.218-122.218 45.564 45.564s-167.782 167.782-167.782 167.782z"/>
		</g>
	</symbol>

	<symbol id="history_icon" viewBox="0 0 510 510">
		<g>
			<path style="opacity:0.9;enable-background:new    ;" d="M267.75,12.75c-89.25,0-168.3,48.45-209.1,122.4L0,76.5v165.75h165.75
			l-71.4-71.4c33.15-63.75,96.9-107.1,173.4-107.1C372.3,63.75,459,150.45,459,255s-86.7,191.25-191.25,191.25
			c-84.15,0-153-53.55-181.05-127.5H33.15c28.05,102,122.4,178.5,234.6,178.5C402.9,497.25,510,387.6,510,255
			C510,122.4,400.35,12.75,267.75,12.75z M229.5,140.25V270.3l119.85,71.4l20.4-33.15l-102-61.2v-107.1H229.5z"/>
		</g>
	</symbol>
	
	<symbol id="declined_icon" viewBox="0 0 438.533 438.533">
		<g>
			<path d="M409.133,109.203c-19.608-33.592-46.205-60.189-79.798-79.796C295.736,9.801,259.058,0,219.273,0
			c-39.781,0-76.47,9.801-110.063,29.407c-33.595,19.604-60.192,46.201-79.8,79.796C9.801,142.8,0,179.489,0,219.267
			c0,39.78,9.804,76.463,29.407,110.062c19.607,33.592,46.204,60.189,79.799,79.798c33.597,19.605,70.283,29.407,110.063,29.407
			s76.47-9.802,110.065-29.407c33.593-19.602,60.189-46.206,79.795-79.798c19.603-33.596,29.403-70.284,29.403-110.062
			C438.533,179.485,428.732,142.795,409.133,109.203z M322.621,270.939c3.617,3.613,5.428,7.905,5.428,12.854
			c0,5.133-1.811,9.514-5.428,13.127l-25.693,25.701c-3.614,3.613-7.994,5.42-13.135,5.42c-4.948,0-9.236-1.807-12.847-5.42
			l-51.676-51.682l-51.678,51.682c-3.616,3.613-7.898,5.42-12.847,5.42c-5.14,0-9.517-1.807-13.134-5.42l-25.697-25.701
			c-3.616-3.613-5.424-7.994-5.424-13.127c0-4.948,1.809-9.24,5.424-12.854l51.678-51.673l-51.678-51.678
			c-3.616-3.612-5.424-7.898-5.424-12.847c0-5.14,1.809-9.517,5.424-13.134l25.697-25.693c3.617-3.616,7.994-5.424,13.134-5.424
			c4.949,0,9.231,1.809,12.847,5.424l51.678,51.674l51.676-51.674c3.61-3.616,7.898-5.424,12.847-5.424
			c5.141,0,9.521,1.809,13.135,5.424l25.693,25.693c3.617,3.617,5.428,7.994,5.428,13.134c0,4.948-1.811,9.235-5.428,12.847
			l-51.675,51.678L322.621,270.939z"/>
		</g>
	</symbol>
	
	<symbol id="setting_icon" viewBox="0 0 512 512">
		<g>
			<path d="m464.866 192.8h-10.87c-3.531-11.05-7.986-21.784-13.323-32.097l7.698-7.698c18.665-18.645 18.165-48.525.006-66.665l-22.711-22.71c-18.129-18.153-48.015-18.679-66.665-.007l-7.704 7.704c-10.313-5.336-21.048-9.792-32.097-13.323v-10.871c0-25.989-21.144-47.133-47.134-47.133h-32.133c-25.989 0-47.133 21.144-47.133 47.133v10.871c-11.049 3.53-21.784 7.986-32.097 13.323l-7.697-7.697c-18.613-18.635-48.498-18.198-66.664-.006l-22.713 22.711c-18.152 18.132-18.677 48.014-.006 66.665l7.704 7.704c-5.337 10.313-9.792 21.046-13.323 32.097h-10.87c-25.989-.001-47.134 21.143-47.134 47.132v32.134c0 25.989 21.145 47.133 47.134 47.133h10.87c3.531 11.05 7.986 21.784 13.323 32.097l-7.698 7.698c-18.665 18.645-18.165 48.525-.006 66.665l22.711 22.71c18.129 18.153 48.015 18.679 66.665.007l7.704-7.704c10.313 5.336 21.048 9.792 32.097 13.323v10.871c0 25.989 21.145 47.133 47.134 47.133h32.133c25.989 0 47.134-21.144 47.134-47.133v-10.871c11.049-3.53 21.784-7.986 32.097-13.323l7.697 7.697c18.613 18.635 48.497 18.198 66.664.006l22.713-22.712c18.152-18.132 18.677-48.014.006-66.665l-7.704-7.704c5.337-10.313 9.792-21.046 13.323-32.097h10.87c25.989 0 47.134-21.144 47.134-47.133v-32.134c-.001-25.987-21.146-47.131-47.135-47.131zm-208.866 174.6c-61.427 0-111.4-49.974-111.4-111.4s49.973-111.4 111.4-111.4 111.4 49.974 111.4 111.4-49.973 111.4-111.4 111.4z"/>
		</g>
	</symbol>

	<symbol id="bell_icon" viewBox="0 0 427 448">
		<g transform="matrix(1,0,0,1,-42.332,-64)">
	        <path d="M255.668,512C211.551,512 175.668,476.117 175.668,432C175.668,423.168 182.836,416 191.668,416C200.5,416 207.668,423.168 207.668,432C207.668,458.477 229.191,480 255.668,480C282.141,480 303.668,458.477 303.668,432C303.668,423.168 310.836,416 319.668,416C328.5,416 335.668,423.168 335.668,432C335.668,476.117 299.785,512 255.668,512Z" style="fill-rule:nonzero;"/>
	    </g>
	    <g transform="matrix(1,0,0,1,-42.332,-64)">
	        <path d="M431.668,448L79.668,448C59.078,448 42.332,431.254 42.332,410.668C42.332,399.742 47.09,389.398 55.391,382.293C87.836,354.879 106.332,315.031 106.332,272.813L106.332,213.332C106.332,130.988 173.32,64 255.668,64C338.012,64 405,130.988 405,213.332L405,272.813C405,315.031 423.496,354.879 455.73,382.145C464.242,389.398 469,399.742 469,410.668C469,431.254 452.254,448 431.668,448ZM255.668,96C190.961,96 138.332,148.629 138.332,213.332L138.332,272.813C138.332,324.457 115.699,373.227 76.254,406.57C75.508,407.211 74.332,408.535 74.332,410.668C74.332,413.566 76.766,416 79.668,416L431.668,416C434.566,416 437,413.566 437,410.668C437,408.535 435.828,407.211 435.121,406.613C395.633,373.227 373,324.457 373,272.813L373,213.332C373,148.629 320.371,96 255.668,96Z" style="fill-rule:nonzero;"/>
	    </g>
	</symbol>
			
	<symbol id="change_icon" viewBox="0 0 290 513">
		<g>
			<path d="M367.954,213.588L160.67,5.872C152.866,-1.947 140.203,-1.959 132.386,5.843C124.567,13.645 119.846,30.862 127.648,38.681L331.416,245.111C339.214,252.909 341.568,261.043 333.755,268.856L127.06,474.62C119.258,482.439 124.567,498.355 132.386,506.157C136.289,510.053 141.402,512 146.513,512C151.638,512 156.763,510.042 160.67,506.127L367.939,298.426C391.333,275.032 391.333,236.967 367.954,213.588Z" style="fill-rule:nonzero;"/>
		</g>
	</symbol>		

	<symbol id="lock_icon" viewBox="0 0 512 512">
		<g>
			<path d="M437.333,192h-32v-42.667C405.333,66.99,338.344,0,256,0S106.667,66.99,106.667,149.333V192h-32
			C68.771,192,64,196.771,64,202.667v266.667C64,492.865,83.135,512,106.667,512h298.667C428.865,512,448,492.865,448,469.333
			V202.667C448,196.771,443.229,192,437.333,192z M287.938,414.823c0.333,3.01-0.635,6.031-2.656,8.292
			c-2.021,2.26-4.917,3.552-7.948,3.552h-42.667c-3.031,0-5.927-1.292-7.948-3.552c-2.021-2.26-2.99-5.281-2.656-8.292l6.729-60.51
			c-10.927-7.948-17.458-20.521-17.458-34.313c0-23.531,19.135-42.667,42.667-42.667s42.667,19.135,42.667,42.667
			c0,13.792-6.531,26.365-17.458,34.313L287.938,414.823z M341.333,192H170.667v-42.667C170.667,102.281,208.948,64,256,64
			s85.333,38.281,85.333,85.333V192z"/>
		</g>
	</symbol>	

	<symbol id="search_icon" viewBox="0 0 511.999 511.999">
		<g>
			<path d="M508.874,478.708L360.142,329.976c28.21-34.827,45.191-79.103,45.191-127.309c0-111.75-90.917-202.667-202.667-202.667
			S0,90.917,0,202.667s90.917,202.667,202.667,202.667c48.206,0,92.482-16.982,127.309-45.191l148.732,148.732
			c4.167,4.165,10.919,4.165,15.086,0l15.081-15.082C513.04,489.627,513.04,482.873,508.874,478.708z M202.667,362.667
			c-88.229,0-160-71.771-160-160s71.771-160,160-160s160,71.771,160,160S290.896,362.667,202.667,362.667z"/>
		</g>
	</symbol>		

	<symbol id="update_icon" viewBox="0 0 477.867 477.867">
		<g>
			<path d="M409.6,0c-9.426,0-17.067,7.641-17.067,17.067v62.344C304.667-5.656,164.478-3.386,79.411,84.479
				c-40.09,41.409-62.455,96.818-62.344,154.454c0,9.426,7.641,17.067,17.067,17.067S51.2,248.359,51.2,238.933
				c0.021-103.682,84.088-187.717,187.771-187.696c52.657,0.01,102.888,22.135,138.442,60.976l-75.605,25.207
				c-8.954,2.979-13.799,12.652-10.82,21.606s12.652,13.799,21.606,10.82l102.4-34.133c6.99-2.328,11.697-8.88,11.674-16.247v-102.4
				C426.667,7.641,419.026,0,409.6,0z"/>
		</g>
		<g>
			<path d="M443.733,221.867c-9.426,0-17.067,7.641-17.067,17.067c-0.021,103.682-84.088,187.717-187.771,187.696
				c-52.657-0.01-102.888-22.135-138.442-60.976l75.605-25.207c8.954-2.979,13.799-12.652,10.82-21.606
				c-2.979-8.954-12.652-13.799-21.606-10.82l-102.4,34.133c-6.99,2.328-11.697,8.88-11.674,16.247v102.4
				c0,9.426,7.641,17.067,17.067,17.067s17.067-7.641,17.067-17.067v-62.345c87.866,85.067,228.056,82.798,313.122-5.068
				c40.09-41.409,62.455-96.818,62.344-154.454C460.8,229.508,453.159,221.867,443.733,221.867z"/>
		</g>
	</symbol>		

	<symbol id="order_check" viewBox="0 0 515.556 515.556">
		<g>
			<path d="m0 274.226 176.549 176.886 339.007-338.672-48.67-47.997-290.337 290-128.553-128.552z"/>
		</g>
	</symbol>

	<symbol id="global_icon" viewBox="0 0 368 368">
		<g>
			<path d="m347.816406 100.367188c-30.511718-59.511719-92.464844-100.367188-163.816406-100.367188-71.375 0-133.335938 40.871094-163.839844 100.425781-.121094.238281-.265625.453125-.359375.703125-12.632812 24.925782-19.800781 53.070313-19.800781 82.871094 0 29.808594 7.167969 57.953125 19.800781 82.871094.09375.25.238281.464844.359375.703125 30.496094 59.554687 92.464844 100.425781 163.839844 100.425781 71.351562 0 133.304688-40.847656 163.816406-100.367188.136719-.265624.296875-.503906.398438-.785156 12.625-24.917968 19.785156-53.054687 19.785156-82.847656s-7.160156-57.929688-19.785156-82.847656c-.109375-.28125-.261719-.519532-.398438-.785156zm-12.257812 155.632812h-70.320313c3.90625-19.710938 6.226563-41.265625 6.664063-64h79.691406c-1.082031 22.824219-6.699219 44.433594-16.035156 64zm-151.558594 96c-25.304688 0-48-32.441406-60.871094-80h121.742188c-12.871094 47.558594-35.566406 80-60.871094 80zm-64.695312-96c-4.136719-19.671875-6.640626-41.304688-7.121094-64h143.640625c-.488281 22.695312-2.992188 44.328125-7.121094 64zm-102.898438-64h79.691406c.445313 22.734375 2.757813 44.289062 6.664063 64h-70.320313c-9.335937-19.566406-14.953125-41.175781-16.035156-64zm16.035156-80h70.320313c-3.90625 19.710938-6.226563 41.265625-6.664063 64h-79.691406c1.082031-22.824219 6.699219-44.433594 16.035156-64zm151.558594-96c25.304688 0 48 32.441406 60.871094 80h-121.742188c12.871094-47.558594 35.566406-80 60.871094-80zm64.695312 96c4.136719 19.664062 6.640626 41.304688 7.121094 64h-143.640625c.488281-22.695312 2.992188-44.335938 7.121094-64zm23.207032 64c-.445313-22.734375-2.757813-44.289062-6.664063-64h70.320313c9.335937 19.566406 14.953125 41.175781 16.035156 64zm54.929687-80h-65.214843c-8.097657-31.742188-20.511719-57.632812-35.722657-74.496094 42.488281 10.96875 78.425781 38.089844 100.9375 74.496094zm-184.734375-74.496094c-15.203125 16.863282-27.617187 42.753906-35.722656 74.496094h-65.214844c22.519532-36.40625 58.457032-63.527344 100.9375-74.496094zm-100.929687 250.496094h65.207031c8.097656 31.742188 20.511719 57.632812 35.722656 74.496094-42.480468-10.96875-78.417968-38.097656-100.929687-74.496094zm184.734375 74.496094c15.203125-16.863282 27.617187-42.753906 35.722656-74.496094h65.207031c-22.511719 36.398438-58.449219 63.527344-100.929687 74.496094zm0 0"/>
		</g>
	</symbol>


</svg>
