<?xml version="1.0" encoding="UTF-8" standalone="no"?>
<!DOCTYPE svg PUBLIC "-//W3C//DTD SVG 1.1//EN" "http://www.w3.org/Graphics/SVG/1.1/DTD/svg11.dtd">
<svg width="100%" height="100%" viewBox="0 0 11 13" version="1.1" xmlns="http://www.w3.org/2000/svg" xmlns:xlink="http://www.w3.org/1999/xlink" xml:space="preserve" xmlns:serif="http://www.serif.com/" style="fill-rule:evenodd;clip-rule:evenodd;stroke-linejoin:round;stroke-miterlimit:2;">
    <g id="jpgtoai-Image" serif:id="jpgtoai Image">
        <g transform="matrix(1,0,0,1,0.3686,1.2862)">
            <path d="M0,3.257C0.04,3.28 0.083,3.291 0.126,3.291C0.212,3.291 0.296,3.246 0.342,3.167C1.343,1.451 2.934,0.466 4.706,0.466C5.437,0.466 6.145,0.625 6.809,0.936C7.644,1.327 8.352,1.943 8.855,2.717C8.931,2.833 9.086,2.866 9.201,2.791C9.317,2.715 9.35,2.561 9.274,2.445C8.72,1.592 7.939,0.914 7.021,0.483C6.289,0.14 5.511,-0.034 4.706,-0.034C2.78,-0.034 0.987,1.069 -0.09,2.915C-0.159,3.034 -0.119,3.187 0,3.257" style="fill:white;fill-rule:nonzero;"/>
        </g>
        <g transform="matrix(1,0,0,1,9.4653,3.0313)">
            <path d="M0,6.778C-0.602,6.503 -0.893,6.025 -0.724,5.589C-0.36,4.645 -0.072,3.616 -0.416,2.474C-0.756,1.347 -1.562,0.415 -2.628,-0.085C-3.185,-0.346 -3.778,-0.478 -4.391,-0.478C-5.85,-0.478 -7.173,0.266 -7.932,1.513C-8.345,2.192 -8.835,2.816 -9.392,3.369C-9.489,3.465 -9.49,3.624 -9.393,3.722C-9.295,3.82 -9.137,3.82 -9.039,3.723C-8.454,3.143 -7.938,2.486 -7.505,1.773C-6.837,0.676 -5.673,0.022 -4.391,0.022C-3.853,0.022 -3.33,0.138 -2.84,0.368C-1.902,0.807 -1.193,1.627 -0.895,2.618C-0.594,3.616 -0.859,4.549 -1.19,5.408C-1.46,6.107 -1.065,6.84 -0.209,7.233C-0.175,7.248 -0.14,7.256 -0.104,7.256C-0.01,7.256 0.081,7.201 0.123,7.109C0.181,6.984 0.125,6.836 0,6.778" style="fill:white;fill-rule:nonzero;"/>
        </g>
        <g transform="matrix(1,0,0,1,8.9243,3.9829)">
            <path d="M0,7.008C-1.227,6.447 -1.813,5.253 -1.396,4.169C-1.135,3.492 -0.877,2.702 -1.12,1.898C-1.354,1.124 -1.906,0.484 -2.639,0.141C-3.958,-0.478 -5.523,-0.007 -6.279,1.237C-7.134,2.642 -8.103,3.557 -8.766,4.077C-8.874,4.163 -8.893,4.32 -8.808,4.429C-8.723,4.537 -8.565,4.556 -8.457,4.471C-7.762,3.925 -6.745,2.965 -5.853,1.497C-5.229,0.472 -3.938,0.084 -2.851,0.593C-2.247,0.876 -1.791,1.404 -1.599,2.042C-1.401,2.696 -1.632,3.39 -1.862,3.989C-2.378,5.327 -1.683,6.788 -0.209,7.463C-0.175,7.479 -0.14,7.486 -0.104,7.486C-0.01,7.486 0.081,7.432 0.123,7.34C0.181,7.214 0.125,7.066 0,7.008" style="fill:white;fill-rule:nonzero;"/>
        </g>
        <g transform="matrix(1,0,0,1,6.3979,9.7603)">
            <path d="M0,-2.244C0.23,-2.623 0.289,-3.082 0.162,-3.505C0.035,-3.925 -0.266,-4.273 -0.663,-4.459C-1.381,-4.796 -2.232,-4.54 -2.643,-3.865C-4.193,-1.314 -6.109,-0.201 -6.138,-0.184C-6.258,-0.117 -6.3,0.035 -6.232,0.155C-6.164,0.277 -6.012,0.319 -5.892,0.25C-5.871,0.239 -3.846,-0.924 -2.216,-3.605C-1.937,-4.062 -1.361,-4.234 -0.876,-4.007C-0.603,-3.879 -0.404,-3.649 -0.316,-3.36C-0.23,-3.073 -0.271,-2.762 -0.427,-2.505C-2.353,0.658 -4.765,2.027 -4.867,2.084C-4.987,2.151 -5.03,2.303 -4.964,2.424C-4.918,2.506 -4.833,2.552 -4.745,2.552C-4.704,2.552 -4.662,2.542 -4.623,2.521C-4.517,2.461 -1.993,1.03 0,-2.244" style="fill:white;fill-rule:nonzero;"/>
        </g>
        <g transform="matrix(1,0,0,1,5.3716,10.7853)">
            <path d="M0,-4.102C0.059,-4.227 0.004,-4.376 -0.121,-4.435C-0.246,-4.494 -0.395,-4.439 -0.453,-4.314C-1.702,-1.648 -4.446,-0.092 -4.474,-0.077C-4.594,-0.009 -4.638,0.143 -4.57,0.263C-4.524,0.345 -4.439,0.392 -4.352,0.392C-4.311,0.392 -4.269,0.381 -4.23,0.36C-4.112,0.294 -1.319,-1.287 0,-4.102" style="fill:white;fill-rule:nonzero;"/>
        </g>
        <g transform="matrix(1,0,0,1,7.2885,9.5295)">
            <path d="M0,2.229C-0.759,1.742 -0.992,1.226 -1.054,0.879C-1.112,0.549 -1.039,0.219 -0.853,-0.027C-0.77,-0.137 -0.791,-0.293 -0.901,-0.376C-1.012,-0.46 -1.168,-0.439 -1.251,-0.329C-1.521,0.029 -1.629,0.5 -1.546,0.967C-1.467,1.412 -1.181,2.065 -0.271,2.65C-0.229,2.676 -0.182,2.689 -0.136,2.689C-0.054,2.689 0.027,2.649 0.075,2.574C0.149,2.458 0.116,2.303 0,2.229" style="fill:white;fill-rule:nonzero;"/>
        </g>
        <g transform="matrix(1,0,0,1,4.7446,12.614)">
            <path d="M0,-1.501C-0.554,-1.572 -1.174,-1.203 -1.576,-0.562C-1.649,-0.444 -1.614,-0.29 -1.497,-0.217C-1.381,-0.144 -1.227,-0.179 -1.152,-0.296C-0.858,-0.766 -0.421,-1.052 -0.063,-1.006C0.352,-0.952 0.583,-0.485 0.703,-0.104C0.737,0.003 0.836,0.071 0.941,0.071C0.967,0.071 0.992,0.067 1.018,0.06C1.148,0.019 1.222,-0.122 1.181,-0.254C0.882,-1.198 0.374,-1.454 0,-1.501" style="fill:white;fill-rule:nonzero;"/>
        </g>
        <g transform="matrix(1,0,0,1,9.646,8.8315)">
            <path d="M0,-4.012C-0.073,-4.129 -0.227,-4.164 -0.344,-4.092C-0.46,-4.019 -0.497,-3.866 -0.425,-3.748C-0.417,-3.736 0.343,-2.457 -0.268,-0.163C-0.304,-0.029 -0.224,0.108 -0.091,0.144C-0.069,0.149 -0.047,0.152 -0.026,0.152C0.085,0.152 0.186,0.078 0.216,-0.034C0.886,-2.554 0.036,-3.954 0,-4.012" style="fill:white;fill-rule:nonzero;"/>
        </g>
        <g transform="matrix(1,0,0,1,0.8628,-0.0141)">
            <path d="M0,2.111C0.047,2.148 0.102,2.166 0.157,2.166C0.23,2.166 0.303,2.134 0.352,2.072C1.029,1.229 2.566,0.591 4.089,0.521C5.595,0.452 6.903,0.911 7.777,1.815C7.873,1.914 8.031,1.917 8.131,1.821C8.23,1.725 8.232,1.567 8.137,1.467C7.161,0.459 5.716,-0.055 4.066,0.022C2.384,0.099 0.734,0.798 -0.038,1.759C-0.124,1.867 -0.107,2.025 0,2.111" style="fill:white;fill-rule:nonzero;"/>
        </g>
    </g>
</svg>
