<?xml version="1.0" encoding="UTF-8" standalone="no"?>
<!DOCTYPE svg PUBLIC "-//W3C//DTD SVG 1.1//EN" "http://www.w3.org/Graphics/SVG/1.1/DTD/svg11.dtd">
<svg width="100%" height="100%" viewBox="0 0 447 448" version="1.1" xmlns="http://www.w3.org/2000/svg" xmlns:xlink="http://www.w3.org/1999/xlink" xml:space="preserve" xmlns:serif="http://www.serif.com/" style="fill-rule:evenodd;clip-rule:evenodd;stroke-linejoin:round;stroke-miterlimit:2;">
    <g id="Layer-1" serif:id="Layer 1">
        <g transform="matrix(1,0,0,1,111.875,127.5)">
            <path d="M0,-127.5L-96.25,-127.5C-104.879,-127.5 -111.875,-120.504 -111.875,-111.875L-111.875,-15.625C-111.875,-6.996 -104.879,0 -96.25,0L0,0C8.629,0 15.625,-6.996 15.625,-15.625L15.625,-111.875C15.625,-120.504 8.629,-127.5 0,-127.5" style="fill:white;fill-rule:nonzero;"/>
        </g>
        <g transform="matrix(1,0,0,1,271.625,127.5)">
            <path d="M0,-127.5L-96.25,-127.5C-104.879,-127.5 -111.875,-120.504 -111.875,-111.875L-111.875,-15.625C-111.875,-6.996 -104.879,0 -96.25,0L0,0C8.63,0 15.625,-6.996 15.625,-15.625L15.625,-111.875C15.625,-120.504 8.63,-127.5 0,-127.5" style="fill:white;fill-rule:nonzero;"/>
        </g>
        <g transform="matrix(1,0,0,1,431.375,127.5)">
            <path d="M0,-127.5L-96.25,-127.5C-104.88,-127.5 -111.875,-120.504 -111.875,-111.875L-111.875,-15.625C-111.875,-6.996 -104.88,0 -96.25,0L0,0C8.63,0 15.625,-6.996 15.625,-15.625L15.625,-111.875C15.625,-120.504 8.63,-127.5 0,-127.5" style="fill:white;fill-rule:nonzero;"/>
        </g>
        <g transform="matrix(1,0,0,1,111.875,287.75)">
            <path d="M0,-127.5L-96.25,-127.5C-104.879,-127.5 -111.875,-120.504 -111.875,-111.875L-111.875,-15.625C-111.875,-6.995 -104.879,0 -96.25,0L0,0C8.629,0 15.625,-6.995 15.625,-15.625L15.625,-111.875C15.625,-120.504 8.629,-127.5 0,-127.5" style="fill:white;fill-rule:nonzero;"/>
        </g>
        <g transform="matrix(1,0,0,1,271.625,287.75)">
            <path d="M0,-127.5L-96.25,-127.5C-104.879,-127.5 -111.875,-120.504 -111.875,-111.875L-111.875,-15.625C-111.875,-6.995 -104.879,0 -96.25,0L0,0C8.63,0 15.625,-6.995 15.625,-15.625L15.625,-111.875C15.625,-120.504 8.63,-127.5 0,-127.5" style="fill:white;fill-rule:nonzero;"/>
        </g>
        <g transform="matrix(1,0,0,1,431.375,287.75)">
            <path d="M0,-127.5L-96.25,-127.5C-104.88,-127.5 -111.875,-120.504 -111.875,-111.875L-111.875,-15.625C-111.875,-6.995 -104.88,0 -96.25,0L0,0C8.63,0 15.625,-6.995 15.625,-15.625L15.625,-111.875C15.625,-120.504 8.63,-127.5 0,-127.5" style="fill:white;fill-rule:nonzero;"/>
        </g>
        <g transform="matrix(1,0,0,1,111.875,448)">
            <path d="M0,-127.5L-96.25,-127.5C-104.879,-127.5 -111.875,-120.505 -111.875,-111.875L-111.875,-15.625C-111.875,-6.995 -104.879,0 -96.25,0L0,0C8.629,0 15.625,-6.995 15.625,-15.625L15.625,-111.875C15.625,-120.505 8.629,-127.5 0,-127.5" style="fill:white;fill-rule:nonzero;"/>
        </g>
        <g transform="matrix(1,0,0,1,271.625,448)">
            <path d="M0,-127.5L-96.25,-127.5C-104.879,-127.5 -111.875,-120.505 -111.875,-111.875L-111.875,-15.625C-111.875,-6.995 -104.879,0 -96.25,0L0,0C8.63,0 15.625,-6.995 15.625,-15.625L15.625,-111.875C15.625,-120.505 8.63,-127.5 0,-127.5" style="fill:white;fill-rule:nonzero;"/>
        </g>
        <g transform="matrix(1,0,0,1,431.375,448)">
            <path d="M0,-127.5L-96.25,-127.5C-104.88,-127.5 -111.875,-120.505 -111.875,-111.875L-111.875,-15.625C-111.875,-6.995 -104.88,0 -96.25,0L0,0C8.63,0 15.625,-6.995 15.625,-15.625L15.625,-111.875C15.625,-120.505 8.63,-127.5 0,-127.5" style="fill:white;fill-rule:nonzero;"/>
        </g>
    </g>
</svg>
