<?xml version="1.0" encoding="UTF-8" standalone="no"?>
<!DOCTYPE svg PUBLIC "-//W3C//DTD SVG 1.1//EN" "http://www.w3.org/Graphics/SVG/1.1/DTD/svg11.dtd">
<svg width="100%" height="100%" viewBox="0 0 12 13" version="1.1" xmlns="http://www.w3.org/2000/svg" xmlns:xlink="http://www.w3.org/1999/xlink" xml:space="preserve" xmlns:serif="http://www.serif.com/" style="fill-rule:evenodd;clip-rule:evenodd;stroke-linejoin:round;stroke-miterlimit:2;">
    <g id="jpgtoai-Image" serif:id="jpgtoai Image">
        <g transform="matrix(1,0,0,1,2.8066,10.8276)">
            <path d="M0,-1.358C0,-0.672 0.02,-0.093 0.073,0.506L0.06,0.506C-0.146,0.02 -0.406,-0.5 -0.706,-0.999L-1.863,-2.922L-2.795,-2.922L-2.795,1.564L-2.043,1.564L-2.043,-0.04C-2.043,-0.779 -2.05,-1.371 -2.083,-1.95L-2.063,-1.957C-1.843,-1.451 -1.544,-0.899 -1.258,-0.406L-0.086,1.564L0.759,1.564L0.759,-2.922L0,-2.922L0,-1.358Z" style="fill:white;fill-rule:nonzero;"/>
        </g>
        <g transform="matrix(1,0,0,1,4.5103,7.9055)">
            <path d="M0,4.486L0.819,4.486L0.819,2.583L2.47,2.583L2.47,1.911L0.819,1.911L0.819,0.673L2.589,0.673L2.589,0L0,0L0,4.486Z" style="fill:white;fill-rule:nonzero;"/>
        </g>
        <g transform="matrix(1,0,0,1,10.0879,8.5122)">
            <path d="M0,3.267C-0.985,3.267 -1.564,2.635 -1.564,1.65C-1.564,0.572 -0.905,-0.001 0.006,-0.001C0.379,-0.001 0.672,0.079 0.885,0.172L1.065,-0.48C0.898,-0.567 0.512,-0.679 -0.027,-0.679C-1.398,-0.679 -2.423,0.212 -2.423,1.69C-2.423,3.054 -1.558,3.946 -0.133,3.946C0.406,3.946 0.832,3.846 1.025,3.746L0.892,3.101C0.679,3.201 0.333,3.267 0,3.267" style="fill:white;fill-rule:nonzero;"/>
        </g>
        <g transform="matrix(1,0,0,1,8.1777,3.9699)">
            <path d="M0,1.468C0.151,1.306 0.142,1.053 -0.02,0.903C-0.761,0.211 -1.726,-0.17 -2.739,-0.17C-3.751,-0.17 -4.717,0.211 -5.458,0.903C-5.62,1.053 -5.628,1.306 -5.478,1.468C-5.327,1.629 -5.074,1.638 -4.912,1.488C-4.32,0.934 -3.548,0.63 -2.739,0.63C-1.93,0.63 -1.158,0.934 -0.565,1.488C-0.488,1.559 -0.39,1.595 -0.292,1.595C-0.186,1.595 -0.079,1.552 0,1.468" style="fill:white;fill-rule:nonzero;"/>
        </g>
        <g transform="matrix(1,0,0,1,0.6729,0.1511)">
            <path d="M0,2.528C1.298,1.316 2.991,0.649 4.766,0.649C6.541,0.649 8.234,1.316 9.532,2.528C9.609,2.6 9.707,2.635 9.805,2.635C9.912,2.635 10.019,2.593 10.098,2.508C10.248,2.347 10.24,2.094 10.078,1.943C8.631,0.592 6.745,-0.151 4.766,-0.151C2.788,-0.151 0.901,0.592 -0.546,1.943C-0.708,2.094 -0.716,2.347 -0.565,2.508C-0.415,2.67 -0.162,2.679 0,2.528" style="fill:white;fill-rule:nonzero;"/>
        </g>
        <g transform="matrix(1,0,0,1,1.4233,2.6363)">
            <path d="M0,0.847C-0.162,0.998 -0.17,1.251 -0.02,1.412C0.131,1.574 0.384,1.583 0.546,1.432C1.491,0.55 2.724,0.064 4.016,0.064C5.308,0.064 6.54,0.55 7.485,1.432C7.562,1.504 7.661,1.539 7.758,1.539C7.865,1.539 7.972,1.497 8.051,1.412C8.202,1.251 8.193,0.998 8.031,0.847C6.937,-0.174 5.511,-0.736 4.016,-0.736C2.52,-0.736 1.094,-0.174 0,0.847" style="fill:white;fill-rule:nonzero;"/>
        </g>
    </g>
</svg>
