<?xml version="1.0" encoding="UTF-8" standalone="no"?>
<!DOCTYPE svg PUBLIC "-//W3C//DTD SVG 1.1//EN" "http://www.w3.org/Graphics/SVG/1.1/DTD/svg11.dtd">
<svg width="100%" height="100%" viewBox="0 0 11 13" version="1.1" xmlns="http://www.w3.org/2000/svg" xmlns:xlink="http://www.w3.org/1999/xlink" xml:space="preserve" xmlns:serif="http://www.serif.com/" style="fill-rule:evenodd;clip-rule:evenodd;stroke-linejoin:round;stroke-miterlimit:2;">
    <g id="jpgtoai-Image" serif:id="jpgtoai Image">
        <g transform="matrix(1,0,0,1,10,6.2365)">
            <path d="M0,-0.303C0,2.659 -3.635,4.465 -4.5,4.853C-5.366,4.465 -9,2.658 -9,-0.303L-9,-5.237L0,-5.237L0,-0.303ZM-10,-6.237L-10,-0.303C-10,3.724 -4.9,5.777 -4.683,5.862L-4.5,5.934L-4.317,5.862C-4.1,5.777 1,3.724 1,-0.303L1,-6.237L-10,-6.237Z" style="fill:white;fill-rule:nonzero;"/>
        </g>
        <g transform="matrix(1,0,0,1,5.2515,2.5425)">
            <path d="M0,6.85L0.249,6.993L0.497,6.85C1.562,6.24 3.349,4.98 3.349,3.391L3.349,-0.143L-2.852,-0.143L-2.852,3.391C-2.852,4.98 -1.065,6.24 0,6.85" style="fill:white;fill-rule:nonzero;"/>
        </g>
    </g>
</svg>
